<mxfile host="app.diagrams.net" modified="2021-01-26T22:27:02.030Z" agent="5.0 (Windows NT 10.0; Win64; x64) AppleWebKit/537.36 (KHTML, like Gecko) Chrome/87.0.4280.141 Safari/537.36" etag="MllPvt6R0HFaUet9HMxH" version="14.2.7" type="github">
  <diagram name="Página 1" id="Página_1">
    <mxGraphModel dx="2770" dy="1125" grid="1" gridSize="10" guides="1" tooltips="1" connect="1" arrows="1" fold="1" page="1" pageScale="1" pageWidth="827" pageHeight="1169" math="0" shadow="0">
      <root>
        <mxCell id="0" />
        <mxCell id="1" parent="0" />
        <mxCell id="2" style="vsdxID=1;fillColor=none;gradientColor=none;fillOpacity=0;strokeOpacity=0;strokeWidth=2;spacingTop=-3;spacingBottom=-3;spacingLeft=-3;spacingRight=-3;labelBackgroundColor=none;rounded=1;strokeColor=none;html=1;whiteSpace=wrap;" parent="1" vertex="1">
          <mxGeometry x="491" y="513" width="127" height="25" as="geometry" />
        </mxCell>
        <mxCell id="3" style="vsdxID=2;fillColor=#ffffff;gradientColor=none;fillOpacity=0;strokeOpacity=0;shape=stencil(fZNRkoIwDIZP09dOaFbQR8d1L+AJGKlLZxGciit6eisp0lSEpyb503xJicDNucxPWig4t7b501dTtKXAb6GUqUttTetOArcCN4fG6l/bXOqC7FPulAp6jy4oJ3mqFeR2vzN3TT6QmGQLClDmsfl/Vux8nEI3fwMpf0i5v1iSJlzrzVRmKQSfr9Ipf5dE77kplt8hmeijGEb70rB21StTB5yrjIHCHOdqKdMFZ4WIDYCjfeoFYz2+D2qCdtSTvZyd66geGkCpvjhx2FPcxED5mlFE/YkSGSNTT0COzxljd/x9B76wC+QKfB/LBN/cv+kO/QrQcpiqog0K4/HKOBetG24f);strokeWidth=2;spacingTop=-3;spacingBottom=-3;spacingLeft=-3;spacingRight=-3;labelBackgroundColor=none;rounded=1;html=1;whiteSpace=wrap;" parent="2" vertex="1">
          <mxGeometry width="127" height="25" as="geometry" />
        </mxCell>
        <mxCell id="4" value="&lt;p style=&quot;align:center;margin-left:0;margin-right:0;margin-top:0px;margin-bottom:0px;text-indent:0;valign:middle;direction:ltr;&quot;&gt;&lt;font style=&quot;font-size:19px;font-family:Arial;color:#7ab648;direction:ltr;letter-spacing:0px;line-height:100%;opacity:1&quot;&gt;&lt;i&gt;&lt;b&gt;Saldos&lt;/b&gt;&lt;/i&gt;&lt;/font&gt;&lt;/p&gt;" style="text;vsdxID=1;fillColor=none;gradientColor=none;fillOpacity=0;strokeOpacity=0;strokeWidth=2;spacingTop=-3;spacingBottom=-3;spacingLeft=-3;spacingRight=-3;labelBackgroundColor=none;rounded=1;strokeColor=none;html=1;whiteSpace=wrap;verticalAlign=middle;align=center;;html=1;" parent="2" vertex="1">
          <mxGeometry x="3.17" y="2.78" width="120.65" height="19.05" as="geometry" />
        </mxCell>
        <mxCell id="5" style="vsdxID=3;fillColor=none;gradientColor=none;fillOpacity=0;strokeOpacity=0;strokeWidth=2;spacingTop=-3;spacingBottom=-3;spacingLeft=-3;spacingRight=-3;labelBackgroundColor=none;rounded=1;strokeColor=none;html=1;whiteSpace=wrap;" parent="1" vertex="1">
          <mxGeometry x="389" y="589" width="152" height="25" as="geometry" />
        </mxCell>
        <mxCell id="6" style="vsdxID=4;fillColor=#ffffff;gradientColor=none;fillOpacity=0;strokeOpacity=0;shape=stencil(fZNRkoIwDIZP09dOSHYFH3dcvYAnYKQrHVlgKq7o6a2kLG1BeWqSP82XlAjanMu8VQLh3JnmpK666EpB3wJR16UyurMnQVtBm5/GqKNpLnXBdptbJcLgUQXnJE81Qm4Oe31X7ANJSfrJAc78bf6eFXsX59DN3cDKHSsPF8PSJNQ6cyXTFXifq9Kju0sm5BIwyO+JTZQu40Z+fCgOX7Z+pWuPdJ3+62fyOes6k1ka8kLEBxDiveqHYj3Nh7XAO+nZzt7OdlKPDZDEj5DY7yluYqT0phRxv+LEaKyBfgF0etYYvQ/feWT0O6FQQfPRLBC++0ftYVgFXhJdVbxJfjxeHevitaPtAw==);strokeWidth=2;spacingTop=-3;spacingBottom=-3;spacingLeft=-3;spacingRight=-3;labelBackgroundColor=none;rounded=1;html=1;whiteSpace=wrap;" parent="5" vertex="1">
          <mxGeometry width="152" height="25" as="geometry" />
        </mxCell>
        <mxCell id="7" value="&lt;p style=&quot;align:center;margin-left:0;margin-right:0;margin-top:0px;margin-bottom:0px;text-indent:0;valign:middle;direction:ltr;&quot;&gt;&lt;font style=&quot;font-size:19px;font-family:Arial;color:#0c7cba;direction:ltr;letter-spacing:0px;line-height:100%;opacity:1&quot;&gt;&lt;i&gt;&lt;b&gt;Pagos&lt;/b&gt;&lt;/i&gt;&lt;/font&gt;&lt;/p&gt;" style="text;vsdxID=3;fillColor=none;gradientColor=none;fillOpacity=0;strokeOpacity=0;strokeWidth=2;spacingTop=-3;spacingBottom=-3;spacingLeft=-3;spacingRight=-3;labelBackgroundColor=none;rounded=1;strokeColor=none;html=1;whiteSpace=wrap;verticalAlign=middle;align=center;;html=1;" parent="5" vertex="1">
          <mxGeometry x="3.17" y="2.78" width="146.05" height="19.05" as="geometry" />
        </mxCell>
        <mxCell id="8" style="vsdxID=5;fillColor=none;gradientColor=none;fillOpacity=0;strokeOpacity=0;strokeWidth=2;spacingTop=-3;spacingBottom=-3;spacingLeft=-3;spacingRight=-3;labelBackgroundColor=none;rounded=1;strokeColor=none;html=1;whiteSpace=wrap;" parent="1" vertex="1">
          <mxGeometry x="339" y="666" width="152" height="36" as="geometry" />
        </mxCell>
        <mxCell id="9" style="vsdxID=6;fillColor=#ffffff;gradientColor=none;fillOpacity=0;strokeOpacity=0;shape=stencil(hZPRdoMgDIafhlsOJHbK5U7XvsCewFPZ5MxpD7Wb3dOPGloB6eYVSf6QL8Ew3J7a+qgZiNNohw/9bZqxZfjCAEzfamtGd2K4Y7h9G6x+t8O5b8g+1k4JYvbohnLkVQ2itodX86PJJzjKckMByvwcvq4VJx+n0MXfIHhRzp49iQ9nS2oZy71Z8Ccllk8ChSfw13GJPgGi/AnJBO7RLhjG5+Li2dXvTB/AqvKuX8nXrKriVRnzioRPiBjvUT+Y6jE7rwzykkJ2pXhR/UW9JNza2HDAmDvs7OZSXBUxbTAtTEWPcCEZcJKRwV2eWK5J4le/swYdYazA7JQyoP/8t+4wbwjtjuk6WrAwnm6Uc9E24u4X);strokeWidth=2;spacingTop=-3;spacingBottom=-3;spacingLeft=-3;spacingRight=-3;labelBackgroundColor=none;rounded=1;html=1;whiteSpace=wrap;" parent="8" vertex="1">
          <mxGeometry width="152" height="36" as="geometry" />
        </mxCell>
        <mxCell id="10" value="&lt;p style=&quot;align:center;margin-left:0;margin-right:0;margin-top:0px;margin-bottom:0px;text-indent:0;valign:middle;direction:ltr;&quot;&gt;&lt;font style=&quot;font-size:19px;font-family:Arial;color:#834187;direction:ltr;letter-spacing:0px;line-height:100%;opacity:1&quot;&gt;&lt;i&gt;&lt;b&gt;Disposiciones&lt;/b&gt;&lt;/i&gt;&lt;/font&gt;&lt;/p&gt;" style="text;vsdxID=5;fillColor=none;gradientColor=none;fillOpacity=0;strokeOpacity=0;strokeWidth=2;spacingTop=-3;spacingBottom=-3;spacingLeft=-3;spacingRight=-3;labelBackgroundColor=none;rounded=1;strokeColor=none;html=1;whiteSpace=wrap;verticalAlign=middle;align=center;;html=1;" parent="8" vertex="1">
          <mxGeometry x="3.17" y="2.77" width="146.05" height="30.48" as="geometry" />
        </mxCell>
        <mxCell id="11" style="vsdxID=7;fillColor=none;gradientColor=none;fillOpacity=0;strokeOpacity=0;strokeWidth=2;spacingTop=-3;spacingBottom=-3;spacingLeft=-3;spacingRight=-3;labelBackgroundColor=none;rounded=1;strokeColor=none;html=1;whiteSpace=wrap;" parent="1" vertex="1">
          <mxGeometry x="999" y="526" width="152" height="38" as="geometry" />
        </mxCell>
        <mxCell id="12" style="vsdxID=8;fillColor=#ffffff;gradientColor=none;fillOpacity=0;strokeOpacity=0;shape=stencil(hZPRdsIgDIafhlsOJHUtlzvOvcCeoMfiylnXerBudU8vGipQmfaKJH/Cl9AwXB/aeq8ZiMNohy/9a5qxZfjGAEzfamtGd2K4YbjeDVZ/2uHYN2Tva6cEcfXohnLkRQ2ittsP86fJJzjKckUByvwefi43Tj5OoZOvUPCCxO8k3h4tqWUq92bBX5QInwQKT+DLcYk+AZL8CckE7tFOOBeM7xevDqEzfcSryltKLuOeWFW8KlNqsaAUIoX8rytc6jE7tQx1SCG7Ulw9pA4JcxsrDphyx53NLle3SGmjgWEQPcaFxYzVU9zw0PKeJH37G2vUEaYKzE4pA/rk73WH657QBpmuozWL48u9ci7aSdycAQ==);strokeWidth=2;spacingTop=-3;spacingBottom=-3;spacingLeft=-3;spacingRight=-3;labelBackgroundColor=none;rounded=1;html=1;whiteSpace=wrap;" parent="11" vertex="1">
          <mxGeometry width="152" height="38" as="geometry" />
        </mxCell>
        <mxCell id="13" value="&lt;p style=&quot;align:center;margin-left:0;margin-right:0;margin-top:0px;margin-bottom:0px;text-indent:0;valign:middle;direction:ltr;&quot;&gt;&lt;font style=&quot;font-size:19px;font-family:Arial;color:#7ab648;direction:ltr;letter-spacing:0px;line-height:100%;opacity:1&quot;&gt;&lt;i&gt;&lt;b&gt;Saldos&lt;/b&gt;&lt;/i&gt;&lt;/font&gt;&lt;/p&gt;" style="text;vsdxID=7;fillColor=none;gradientColor=none;fillOpacity=0;strokeOpacity=0;strokeWidth=2;spacingTop=-3;spacingBottom=-3;spacingLeft=-3;spacingRight=-3;labelBackgroundColor=none;rounded=1;strokeColor=none;html=1;whiteSpace=wrap;verticalAlign=middle;align=center;;html=1;" parent="11" vertex="1">
          <mxGeometry x="3.17" y="3.08" width="146.05" height="31.75" as="geometry" />
        </mxCell>
        <mxCell id="14" style="vsdxID=9;fillColor=none;gradientColor=none;fillOpacity=0;strokeOpacity=0;strokeWidth=2;spacingTop=-3;spacingBottom=-3;spacingLeft=-3;spacingRight=-3;labelBackgroundColor=none;rounded=1;strokeColor=none;html=1;whiteSpace=wrap;" parent="1" vertex="1">
          <mxGeometry x="1024" y="602" width="179" height="25" as="geometry" />
        </mxCell>
        <mxCell id="15" style="vsdxID=10;fillColor=#ffffff;gradientColor=none;fillOpacity=0;strokeOpacity=0;shape=stencil(fZNRUoQwDIZP09dOmyjQR2ddL+AJmKVKR4SdLqvo6e2SMqbQhacm+UO+pI3Aw6Wtz1aAuox++LDfrhlbgc8CwPWt9W4MJ4FHgYe3wdt3P1z7huxzHZSgZo9tKEff1KBqf3p1v5Z8SqIuHylAmZ/D163iFOMU+ol/IOULKU9XT1KdaqNZyLJQ7ItVJlgqmyImQJI/IZkgNUQBcsFcXT0FgM71DNWUsioSXLVHa4xUJcPTKb1KaYPaVCnuvf5wm4Hb8eUaYBnkqXbnzfWLCyU8bMizfcawVqux8zFiqrkHzm4qk5B5KP9Xr9cU6VtYKHlfmCpwO6oM4t47Dod5XWiRXNfRtvH4er2Ci1YTj38=);strokeWidth=2;spacingTop=-3;spacingBottom=-3;spacingLeft=-3;spacingRight=-3;labelBackgroundColor=none;rounded=1;html=1;whiteSpace=wrap;" parent="14" vertex="1">
          <mxGeometry width="179" height="25" as="geometry" />
        </mxCell>
        <mxCell id="16" value="&lt;p style=&quot;align:center;margin-left:0;margin-right:0;margin-top:0px;margin-bottom:0px;text-indent:0;valign:middle;direction:ltr;&quot;&gt;&lt;font style=&quot;font-size:19px;font-family:Arial;color:#ef8d22;direction:ltr;letter-spacing:0px;line-height:100%;opacity:1&quot;&gt;&lt;i&gt;&lt;b&gt;Contrato Digital&lt;br/&gt;&lt;/b&gt;&lt;/i&gt;&lt;/font&gt;&lt;/p&gt;" style="text;vsdxID=9;fillColor=none;gradientColor=none;fillOpacity=0;strokeOpacity=0;strokeWidth=2;spacingTop=-3;spacingBottom=-3;spacingLeft=-3;spacingRight=-3;labelBackgroundColor=none;rounded=1;strokeColor=none;html=1;whiteSpace=wrap;verticalAlign=middle;align=center;;html=1;" parent="14" vertex="1">
          <mxGeometry x="3.18" y="2.78" width="173.36" height="19.05" as="geometry" />
        </mxCell>
        <mxCell id="17" style="vsdxID=11;fillColor=none;gradientColor=none;fillOpacity=0;strokeOpacity=0;strokeWidth=2;spacingTop=-3;spacingBottom=-3;spacingLeft=-3;spacingRight=-3;labelBackgroundColor=none;rounded=1;strokeColor=none;html=1;whiteSpace=wrap;" parent="1" vertex="1">
          <mxGeometry x="1037" y="564" width="165" height="27" as="geometry" />
        </mxCell>
        <mxCell id="18" style="vsdxID=12;fillColor=#ffffff;gradientColor=none;fillOpacity=0;strokeOpacity=0;shape=stencil(hZNRcoMgEIZPwyuzsBbjYydNLtATOJFWplYzxLS2py9xychabH1id/8fvkVW4P7S1mcrNFxGP7zZT9eMrcAnobXrW+vdGFYCDwL3L4O3r3649g3F5zooNcwZ25BH3dQaan96dt+WciBRlQ9UIOf78HE7cYp1Kn3FHQoJZs4cSXy6elIrLo+hkVhA8iGVJx23k1BEg2b+CSnUgS4KMBXMp8NjAOhcn9BWpTQVI4a/aKudrEyCpzg9rGgBOOxWd7jWY/b2MvyLheKdkRFqo4PFcG8JZVlw7q0ul7YklBw9vUf8JduiT/5W3pPhX16AyuDwV3EnTntErsDsvWVY/3nXYTFPEM2W6zoawLS+nriQomnFww8=);strokeWidth=2;spacingTop=-3;spacingBottom=-3;spacingLeft=-3;spacingRight=-3;labelBackgroundColor=none;rounded=1;html=1;whiteSpace=wrap;" parent="17" vertex="1">
          <mxGeometry width="165" height="27" as="geometry" />
        </mxCell>
        <mxCell id="19" value="&lt;p style=&quot;align:center;margin-left:0;margin-right:0;margin-top:0px;margin-bottom:0px;text-indent:0;valign:middle;direction:ltr;&quot;&gt;&lt;font style=&quot;font-size:19px;font-family:Arial;color:#fcc438;direction:ltr;letter-spacing:0px;line-height:100%;opacity:1&quot;&gt;&lt;i&gt;&lt;b&gt;Amortizaciones&lt;/b&gt;&lt;/i&gt;&lt;/font&gt;&lt;/p&gt;" style="text;vsdxID=11;fillColor=none;gradientColor=none;fillOpacity=0;strokeOpacity=0;strokeWidth=2;spacingTop=-3;spacingBottom=-3;spacingLeft=-3;spacingRight=-3;labelBackgroundColor=none;rounded=1;strokeColor=none;html=1;whiteSpace=wrap;verticalAlign=middle;align=center;;html=1;" parent="17" vertex="1">
          <mxGeometry x="3.17" y="3.07" width="158.75" height="20.96" as="geometry" />
        </mxCell>
        <mxCell id="20" style="vsdxID=13;fillColor=none;gradientColor=none;fillOpacity=0;strokeOpacity=0;strokeWidth=2;spacingTop=-3;spacingBottom=-3;spacingLeft=-3;spacingRight=-3;labelBackgroundColor=none;rounded=1;strokeColor=none;html=1;whiteSpace=wrap;" parent="1" vertex="1">
          <mxGeometry x="1024" y="640" width="215" height="36" as="geometry" />
        </mxCell>
        <mxCell id="21" style="vsdxID=14;fillColor=#ffffff;gradientColor=none;fillOpacity=0;strokeOpacity=0;shape=stencil(hZPRdoMgDIafhltOIHbK5U7XvcCewFPZ5MxpD7Wb29OPGhRwtPMKkj/mS0IY7s9tfdJMwnm0w7v+Ms3YMnxiUpq+1daM7sTwwHD/Olj9ZodL39D9VDulhNmiG4oRV7WE2h5fzI8mG3AU5Y4cFPkxfF4zTt5Prm//B+BFOVueSXy8WFKLVO6vBX9QED4hyT3JJXnl9TIJn9Cn42XpBRgL5uTw6PJ3po9gVcUlJsBwD1YpLlNeSPkEQMp3qx7c6jHbrwxyCKF7pXhR3YMOAUsVu7XohTsqLFhUkcLGzcKt6iZumEg2JPMi1hmLvyjp2FfYqCJMFZjtUgb0n3frDvOG0O6YrqMFi/3bjXIm2kY8/AI=);strokeWidth=2;spacingTop=-3;spacingBottom=-3;spacingLeft=-3;spacingRight=-3;labelBackgroundColor=none;rounded=1;html=1;whiteSpace=wrap;" parent="20" vertex="1">
          <mxGeometry width="215" height="36" as="geometry" />
        </mxCell>
        <mxCell id="22" value="&lt;p style=&quot;align:center;margin-left:0;margin-right:0;margin-top:0px;margin-bottom:0px;text-indent:0;valign:middle;direction:ltr;&quot;&gt;&lt;font style=&quot;font-size:19px;font-family:Arial;color:#333333;direction:ltr;letter-spacing:0px;line-height:100%;opacity:1&quot;&gt;&lt;i&gt;&lt;b&gt;Apertura de Crédito&lt;br/&gt;&lt;/b&gt;&lt;/i&gt;&lt;/font&gt;&lt;/p&gt;" style="text;vsdxID=13;fillColor=none;gradientColor=none;fillOpacity=0;strokeOpacity=0;strokeWidth=2;spacingTop=-3;spacingBottom=-3;spacingLeft=-3;spacingRight=-3;labelBackgroundColor=none;rounded=1;strokeColor=none;html=1;whiteSpace=wrap;verticalAlign=middle;align=center;;html=1;" parent="20" vertex="1">
          <mxGeometry x="3.18" y="2.77" width="208.92" height="30.48" as="geometry" />
        </mxCell>
        <mxCell id="54" style="vsdxID=27;edgeStyle=none;startArrow=none;endArrow=block;startSize=5;endSize=5;strokeWidth=5;strokeColor=#5E5E5E;spacingTop=-3;spacingBottom=-3;spacingLeft=-3;spacingRight=-3;verticalAlign=middle;html=1;labelBackgroundColor=none;rounded=1;" parent="1" edge="1">
          <mxGeometry relative="1" as="geometry">
            <mxPoint x="-159" y="-159" as="offset" />
            <Array as="points">
              <mxPoint x="1328" y="677.98" />
            </Array>
            <mxPoint x="1328" y="286" as="sourcePoint" />
            <mxPoint x="1012" y="678" as="targetPoint" />
          </mxGeometry>
        </mxCell>
        <mxCell id="57" style="vsdxID=32;edgeStyle=none;startArrow=none;endArrow=block;startSize=5;endSize=5;strokeWidth=5;strokeColor=#0c7cba;spacingTop=-3;spacingBottom=-3;spacingLeft=-3;spacingRight=-3;verticalAlign=middle;html=1;labelBackgroundColor=none;rounded=1;" parent="1" edge="1">
          <mxGeometry relative="1" as="geometry">
            <mxPoint x="90" y="-91" as="offset" />
            <Array as="points">
              <mxPoint x="424" y="629.11" />
            </Array>
            <mxPoint x="424" y="269" as="sourcePoint" />
            <mxPoint x="605" y="629" as="targetPoint" />
          </mxGeometry>
        </mxCell>
        <mxCell id="58" style="vsdxID=35;edgeStyle=none;startArrow=none;endArrow=block;startSize=5;endSize=5;strokeWidth=5;strokeColor=#0c7cba;spacingTop=-3;spacingBottom=-3;spacingLeft=-3;spacingRight=-3;verticalAlign=middle;html=1;labelBackgroundColor=none;rounded=1;" parent="1" edge="1">
          <mxGeometry relative="1" as="geometry">
            <mxPoint x="-179" y="-179" as="offset" />
            <Array as="points">
              <mxPoint x="1368" y="719.89" />
            </Array>
            <mxPoint x="1368" y="286" as="sourcePoint" />
            <mxPoint x="1012" y="719" as="targetPoint" />
          </mxGeometry>
        </mxCell>
        <mxCell id="59" style="vsdxID=38;edgeStyle=none;startArrow=none;endArrow=block;startSize=5;endSize=5;strokeWidth=5;strokeColor=#fcc438;spacingTop=-3;spacingBottom=-3;spacingLeft=-3;spacingRight=-3;verticalAlign=middle;html=1;labelBackgroundColor=none;rounded=1;" parent="1" edge="1">
          <mxGeometry relative="1" as="geometry">
            <mxPoint x="-55" y="54" as="offset" />
            <Array as="points">
              <mxPoint x="682" y="254.43" />
            </Array>
            <mxPoint x="682" y="513" as="sourcePoint" />
            <mxPoint x="573" y="255" as="targetPoint" />
          </mxGeometry>
        </mxCell>
        <mxCell id="60" style="vsdxID=41;edgeStyle=none;startArrow=none;endArrow=block;startSize=5;endSize=5;strokeWidth=5;strokeColor=#834187;spacingTop=-3;spacingBottom=-3;spacingLeft=-3;spacingRight=-3;verticalAlign=middle;html=1;labelBackgroundColor=none;rounded=1;" parent="1" edge="1">
          <mxGeometry relative="1" as="geometry">
            <mxPoint x="85" y="85" as="offset" />
            <Array as="points">
              <mxPoint x="992" y="252.71" />
            </Array>
            <mxPoint x="992" y="513" as="sourcePoint" />
            <mxPoint x="1163" y="253" as="targetPoint" />
          </mxGeometry>
        </mxCell>
        <mxCell id="61" style="vsdxID=44;edgeStyle=none;startArrow=none;endArrow=block;startSize=5;endSize=5;strokeWidth=5;strokeColor=#de5f85;spacingTop=-3;spacingBottom=-3;spacingLeft=-3;spacingRight=-3;verticalAlign=middle;html=1;labelBackgroundColor=none;rounded=1;" parent="1" edge="1">
          <mxGeometry relative="1" as="geometry">
            <mxPoint x="-199" y="-200" as="offset" />
            <Array as="points">
              <mxPoint x="1409" y="759.26" />
            </Array>
            <mxPoint x="1409" y="286" as="sourcePoint" />
            <mxPoint x="1012" y="759" as="targetPoint" />
          </mxGeometry>
        </mxCell>
        <mxCell id="63" style="vsdxID=48;edgeStyle=none;startArrow=none;endArrow=block;startSize=5;endSize=5;strokeWidth=5;strokeColor=#b2b2b2;spacingTop=-3;spacingBottom=-3;spacingLeft=-3;spacingRight=-3;verticalAlign=middle;html=1;labelBackgroundColor=none;rounded=1;" parent="1" edge="1">
          <mxGeometry relative="1" as="geometry">
            <mxPoint x="-219" y="-219" as="offset" />
            <Array as="points">
              <mxPoint x="1449" y="798.63" />
            </Array>
            <mxPoint x="1449" y="286" as="sourcePoint" />
            <mxPoint x="1012" y="798" as="targetPoint" />
          </mxGeometry>
        </mxCell>
        <mxCell id="62" style="vsdxID=47;edgeStyle=none;startArrow=none;endArrow=block;startSize=5;endSize=5;strokeColor=#5E5E5E;spacingTop=-3;spacingBottom=-3;spacingLeft=-3;spacingRight=-3;verticalAlign=middle;html=1;labelBackgroundColor=none;rounded=1;" parent="1" edge="1">
          <mxGeometry relative="1" as="geometry">
            <mxPoint as="offset" />
            <Array as="points">
              <mxPoint x="992" y="513" />
            </Array>
            <mxPoint x="992" y="513" as="sourcePoint" />
            <mxPoint x="992" y="513" as="targetPoint" />
          </mxGeometry>
        </mxCell>
        <mxCell id="56" style="vsdxID=31;edgeStyle=none;startArrow=none;endArrow=block;startSize=5;endSize=5;strokeWidth=5;strokeColor=#7ab648;spacingTop=-3;spacingBottom=-3;spacingLeft=-3;spacingRight=-3;verticalAlign=middle;html=1;labelBackgroundColor=none;rounded=1;" parent="1" edge="1">
          <mxGeometry relative="1" as="geometry">
            <mxPoint x="49" y="-50" as="offset" />
            <Array as="points">
              <mxPoint x="505" y="551.38" />
            </Array>
            <mxPoint x="505" y="269" as="sourcePoint" />
            <mxPoint x="605" y="551" as="targetPoint" />
          </mxGeometry>
        </mxCell>
        <mxCell id="55" style="vsdxID=30;edgeStyle=none;startArrow=none;endArrow=block;startSize=5;endSize=5;strokeWidth=5;strokeColor=#834187;spacingTop=-3;spacingBottom=-3;spacingLeft=-3;spacingRight=-3;verticalAlign=middle;html=1;labelBackgroundColor=none;rounded=1;" parent="1" edge="1">
          <mxGeometry relative="1" as="geometry">
            <mxPoint x="138" y="-139" as="offset" />
            <Array as="points">
              <mxPoint x="329" y="706.84" />
            </Array>
            <mxPoint x="329" y="269" as="sourcePoint" />
            <mxPoint x="605" y="707" as="targetPoint" />
          </mxGeometry>
        </mxCell>
        <mxCell id="53" style="vsdxID=26;edgeStyle=none;startArrow=none;endArrow=block;startSize=5;endSize=5;strokeWidth=5;strokeColor=#ef8d22;spacingTop=-3;spacingBottom=-3;spacingLeft=-3;spacingRight=-3;verticalAlign=middle;html=1;labelBackgroundColor=none;rounded=1;" parent="1" edge="1">
          <mxGeometry relative="1" as="geometry">
            <mxPoint x="-140" y="-140" as="offset" />
            <Array as="points">
              <mxPoint x="1291" y="629.72" />
            </Array>
            <mxPoint x="1291" y="286" as="sourcePoint" />
            <mxPoint x="1012" y="629" as="targetPoint" />
          </mxGeometry>
        </mxCell>
        <mxCell id="52" style="vsdxID=25;edgeStyle=none;startArrow=none;endArrow=block;startSize=5;endSize=5;strokeWidth=5;strokeColor=#fcc438;spacingTop=-3;spacingBottom=-3;spacingLeft=-3;spacingRight=-3;verticalAlign=middle;html=1;labelBackgroundColor=none;rounded=1;" parent="1" edge="1">
          <mxGeometry relative="1" as="geometry">
            <mxPoint x="-123" y="-123" as="offset" />
            <Array as="points">
              <mxPoint x="1256" y="591.62" />
            </Array>
            <mxPoint x="1256" y="286" as="sourcePoint" />
            <mxPoint x="1012" y="591" as="targetPoint" />
          </mxGeometry>
        </mxCell>
        <mxCell id="51" style="vsdxID=24;edgeStyle=none;startArrow=none;endArrow=block;startSize=5;endSize=5;strokeWidth=5;strokeColor=#7ab648;spacingTop=-3;spacingBottom=-3;spacingLeft=-3;spacingRight=-3;verticalAlign=middle;html=1;labelBackgroundColor=none;rounded=1;" parent="1" edge="1">
          <mxGeometry relative="1" as="geometry">
            <mxPoint x="-107" y="-107" as="offset" />
            <Array as="points">
              <mxPoint x="1225" y="556.06" />
            </Array>
            <mxPoint x="1225" y="286" as="sourcePoint" />
            <mxPoint x="1012" y="556" as="targetPoint" />
          </mxGeometry>
        </mxCell>
        <mxCell id="32" style="vsdxID=28;fillColor=none;gradientColor=none;strokeColor=none;strokeWidth=0;spacingTop=-3;spacingBottom=-3;spacingLeft=-3;spacingRight=-3;labelBackgroundColor=none;rounded=0;html=1;whiteSpace=wrap;" parent="1" vertex="1">
          <mxGeometry x="605" y="513" width="406" height="304" as="geometry" />
        </mxCell>
        <mxCell id="33" style="vsdxID=29;fillColor=none;gradientColor=none;image;aspect=fixed;image=data:image/png,/9j/4AAQSkZJRgABAQEASABIAAD/7QAsUGhvdG9zaG9wIDMuMAA4QklNA+0AAAAAABAASAAAAAEAAQBIAAAAAQAB/+IMWElDQ19QUk9GSUxFAAEBAAAMSExpbm8CEAAAbW50clJHQiBYWVogB84AAgAJAAYAMQAAYWNzcE1TRlQAAAAASUVDIHNSR0IAAAAAAAAAAAAAAAAAAPbWAAEAAAAA0y1IUCAgAAAAAAAAAAAAAAAAAAAAAAAAAAAAAAAAAAAAAAAAAAAAAAAAAAAAAAAAAAAAAAARY3BydAAAAVAAAAAzZGVzYwAAAYQAAABsd3RwdAAAAfAAAAAUYmtwdAAAAgQAAAAUclhZWgAAAhgAAAAUZ1hZWgAAAiwAAAAUYlhZWgAAAkAAAAAUZG1uZAAAAlQAAABwZG1kZAAAAsQAAACIdnVlZAAAA0wAAACGdmlldwAAA9QAAAAkbHVtaQAAA/gAAAAUbWVhcwAABAwAAAAkdGVjaAAABDAAAAAMclRSQwAABDwAAAgMZ1RSQwAABDwAAAgMYlRSQwAABDwAAAgMdGV4dAAAAABDb3B5cmlnaHQgKGMpIDE5OTggSGV3bGV0dC1QYWNrYXJkIENvbXBhbnkAAGRlc2MAAAAAAAAAEnNSR0IgSUVDNjE5NjYtMi4xAAAAAAAAAAAAAAASc1JHQiBJRUM2MTk2Ni0yLjEAAAAAAAAAAAAAAAAAAAAAAAAAAAAAAAAAAAAAAAAAAAAAAAAAAAAAAAAAAAAAAAAAAFhZWiAAAAAAAADzUQABAAAAARbMWFlaIAAAAAAAAAAAAAAAAAAAAABYWVogAAAAAAAAb6IAADj1AAADkFhZWiAAAAAAAABimQAAt4UAABjaWFlaIAAAAAAAACSgAAAPhAAAts9kZXNjAAAAAAAAABZJRUMgaHR0cDovL3d3dy5pZWMuY2gAAAAAAAAAAAAAABZJRUMgaHR0cDovL3d3dy5pZWMuY2gAAAAAAAAAAAAAAAAAAAAAAAAAAAAAAAAAAAAAAAAAAAAAAAAAAAAAAAAAAAAAZGVzYwAAAAAAAAAuSUVDIDYxOTY2LTIuMSBEZWZhdWx0IFJHQiBjb2xvdXIgc3BhY2UgLSBzUkdCAAAAAAAAAAAAAAAuSUVDIDYxOTY2LTIuMSBEZWZhdWx0IFJHQiBjb2xvdXIgc3BhY2UgLSBzUkdCAAAAAAAAAAAAAAAAAAAAAAAAAAAAAGRlc2MAAAAAAAAALFJlZmVyZW5jZSBWaWV3aW5nIENvbmRpdGlvbiBpbiBJRUM2MTk2Ni0yLjEAAAAAAAAAAAAAACxSZWZlcmVuY2UgVmlld2luZyBDb25kaXRpb24gaW4gSUVDNjE5NjYtMi4xAAAAAAAAAAAAAAAAAAAAAAAAAAAAAAAAAAB2aWV3AAAAAAATpP4AFF8uABDPFAAD7cwABBMLAANcngAAAAFYWVogAAAAAABMCVYAUAAAAFcf521lYXMAAAAAAAAAAQAAAAAAAAAAAAAAAAAAAAAAAAKPAAAAAnNpZyAAAAAAQ1JUIGN1cnYAAAAAAAAEAAAAAAUACgAPABQAGQAeACMAKAAtADIANwA7AEAARQBKAE8AVABZAF4AYwBoAG0AcgB3AHwAgQCGAIsAkACVAJoAnwCkAKkArgCyALcAvADBAMYAywDQANUA2wDgAOUA6wDwAPYA+wEBAQcBDQETARkBHwElASsBMgE4AT4BRQFMAVIBWQFgAWcBbgF1AXwBgwGLAZIBmgGhAakBsQG5AcEByQHRAdkB4QHpAfIB+gIDAgwCFAIdAiYCLwI4AkECSwJUAl0CZwJxAnoChAKOApgCogKsArYCwQLLAtUC4ALrAvUDAAMLAxYDIQMtAzgDQwNPA1oDZgNyA34DigOWA6IDrgO6A8cD0wPgA+wD+QQGBBMEIAQtBDsESARVBGMEcQR+BIwEmgSoBLYExATTBOEE8AT+BQ0FHAUrBToFSQVYBWcFdwWGBZYFpgW1BcUF1QXlBfYGBgYWBicGNwZIBlkGagZ7BowGnQavBsAG0QbjBvUHBwcZBysHPQdPB2EHdAeGB5kHrAe/B9IH5Qf4CAsIHwgyCEYIWghuCIIIlgiqCL4I0gjnCPsJEAklCToJTwlkCXkJjwmkCboJzwnlCfsKEQonCj0KVApqCoEKmAquCsUK3ArzCwsLIgs5C1ELaQuAC5gLsAvIC+EL+QwSDCoMQwxcDHUMjgynDMAM2QzzDQ0NJg1ADVoNdA2ODakNww3eDfgOEw4uDkkOZA5/DpsOtg7SDu4PCQ8lD0EPXg96D5YPsw/PD+wQCRAmEEMQYRB+EJsQuRDXEPURExExEU8RbRGMEaoRyRHoEgcSJhJFEmQShBKjEsMS4xMDEyMTQxNjE4MTpBPFE+UUBhQnFEkUahSLFK0UzhTwFRIVNBVWFXgVmxW9FeAWAxYmFkkWbBaPFrIW1hb6Fx0XQRdlF4kXrhfSF/cYGxhAGGUYihivGNUY+hkgGUUZaxmRGbcZ3RoEGioaURp3Gp4axRrsGxQbOxtjG4obshvaHAIcKhxSHHscoxzMHPUdHh1HHXAdmR3DHeweFh5AHmoelB6+HukfEx8+H2kflB+/H+ogFSBBIGwgmCDEIPAhHCFIIXUhoSHOIfsiJyJVIoIiryLdIwojOCNmI5QjwiPwJB8kTSR8JKsk2iUJJTglaCWXJccl9yYnJlcmhya3JugnGCdJJ3onqyfcKA0oPyhxKKIo1CkGKTgpaymdKdAqAio1KmgqmyrPKwIrNitpK50r0SwFLDksbiyiLNctDC1BLXYtqy3hLhYuTC6CLrcu7i8kL1ovkS/HL/4wNTBsMKQw2zESMUoxgjG6MfIyKjJjMpsy1DMNM0YzfzO4M/E0KzRlNJ402DUTNU01hzXCNf02NzZyNq426TckN2A3nDfXOBQ4UDiMOMg5BTlCOX85vDn5OjY6dDqyOu87LTtrO6o76DwnPGU8pDzjPSI9YT2hPeA+ID5gPqA+4D8hP2E/oj/iQCNAZECmQOdBKUFqQaxB7kIwQnJCtUL3QzpDfUPARANER0SKRM5FEkVVRZpF3kYiRmdGq0bwRzVHe0fASAVIS0iRSNdJHUljSalJ8Eo3Sn1KxEsMS1NLmkviTCpMcky6TQJNSk2TTdxOJU5uTrdPAE9JT5NP3VAnUHFQu1EGUVBRm1HmUjFSfFLHUxNTX1OqU/ZUQlSPVNtVKFV1VcJWD1ZcVqlW91dEV5JX4FgvWH1Yy1kaWWlZuFoHWlZaplr1W0VblVvlXDVchlzWXSddeF3JXhpebF69Xw9fYV+zYAVgV2CqYPxhT2GiYfViSWKcYvBjQ2OXY+tkQGSUZOllPWWSZedmPWaSZuhnPWeTZ+loP2iWaOxpQ2maafFqSGqfavdrT2una/9sV2yvbQhtYG25bhJua27Ebx5veG/RcCtwhnDgcTpxlXHwcktypnMBc11zuHQUdHB0zHUodYV14XY+dpt2+HdWd7N4EXhueMx5KnmJeed6RnqlewR7Y3vCfCF8gXzhfUF9oX4BfmJ+wn8jf4R/5YBHgKiBCoFrgc2CMIKSgvSDV4O6hB2EgITjhUeFq4YOhnKG14c7h5+IBIhpiM6JM4mZif6KZIrKizCLlov8jGOMyo0xjZiN/45mjs6PNo+ekAaQbpDWkT+RqJIRknqS45NNk7aUIJSKlPSVX5XJljSWn5cKl3WX4JhMmLiZJJmQmfyaaJrVm0Kbr5wcnImc951kndKeQJ6unx2fi5/6oGmg2KFHobaiJqKWowajdqPmpFakx6U4pammGqaLpv2nbqfgqFKoxKk3qamqHKqPqwKrdavprFys0K1ErbiuLa6hrxavi7AAsHWw6rFgsdayS7LCszizrrQltJy1E7WKtgG2ebbwt2i34LhZuNG5SrnCuju6tbsuu6e8IbybvRW9j74KvoS+/796v/XAcMDswWfB48JfwtvDWMPUxFHEzsVLxcjGRsbDx0HHv8g9yLzJOsm5yjjKt8s2y7bMNcy1zTXNtc42zrbPN8+40DnQutE80b7SP9LB00TTxtRJ1MvVTtXR1lXW2Ndc1+DYZNjo2WzZ8dp22vvbgNwF3IrdEN2W3hzeot8p36/gNuC94UThzOJT4tvjY+Pr5HPk/OWE5g3mlucf56noMui86Ubp0Opb6uXrcOv77IbtEe2c7ijutO9A78zwWPDl8XLx//KM8xnzp/Q09ML1UPXe9m32+/eK+Bn4qPk4+cf6V/rn+3f8B/yY/Sn9uv5L/tz/bf///+E6tGh0dHA6Ly9ucy5hZG9iZS5jb20veGFwLzEuMC8APD94cGFja2V0IGJlZ2luPSLvu78iIGlkPSJXNU0wTXBDZWhpSHpyZVN6TlRjemtjOWQiPz4KPHg6eG1wbWV0YSB4bWxuczp4PSJhZG9iZTpuczptZXRhLyIgeDp4bXB0az0iQWRvYmUgWE1QIENvcmUgNS42LWMxNDUgNzkuMTYzNDk5LCAyMDE4LzA4LzEzLTE2OjQwOjIyICAgICAgICAiPgogICA8cmRmOlJERiB4bWxuczpyZGY9Imh0dHA6Ly93d3cudzMub3JnLzE5OTkvMDIvMjItcmRmLXN5bnRheC1ucyMiPgogICAgICA8cmRmOkRlc2NyaXB0aW9uIHJkZjphYm91dD0iIgogICAgICAgICAgICB4bWxuczpkYz0iaHR0cDovL3B1cmwub3JnL2RjL2VsZW1lbnRzLzEuMS8iCiAgICAgICAgICAgIHhtbG5zOnhtcD0iaHR0cDovL25zLmFkb2JlLmNvbS94YXAvMS4wLyIKICAgICAgICAgICAgeG1sbnM6eG1wR0ltZz0iaHR0cDovL25zLmFkb2JlLmNvbS94YXAvMS4wL2cvaW1nLyIKICAgICAgICAgICAgeG1sbnM6eG1wTU09Imh0dHA6Ly9ucy5hZG9iZS5jb20veGFwLzEuMC9tbS8iCiAgICAgICAgICAgIHhtbG5zOnN0UmVmPSJodHRwOi8vbnMuYWRvYmUuY29tL3hhcC8xLjAvc1R5cGUvUmVzb3VyY2VSZWYjIgogICAgICAgICAgICB4bWxuczpzdEV2dD0iaHR0cDovL25zLmFkb2JlLmNvbS94YXAvMS4wL3NUeXBlL1Jlc291cmNlRXZlbnQjIgogICAgICAgICAgICB4bWxuczppbGx1c3RyYXRvcj0iaHR0cDovL25zLmFkb2JlLmNvbS9pbGx1c3RyYXRvci8xLjAvIgogICAgICAgICAgICB4bWxuczpwZGY9Imh0dHA6Ly9ucy5hZG9iZS5jb20vcGRmLzEuMy8iCiAgICAgICAgICAgIHhtbG5zOnBkZng9Imh0dHA6Ly9ucy5hZG9iZS5jb20vcGRmeC8xLjMvIj4KICAgICAgICAgPGRjOmZvcm1hdD5pbWFnZS9qcGVnPC9kYzpmb3JtYXQ+CiAgICAgICAgIDxkYzp0aXRsZT4KICAgICAgICAgICAgPHJkZjpBbHQ+CiAgICAgICAgICAgICAgIDxyZGY6bGkgeG1sOmxhbmc9IngtZGVmYXVsdCI+TG9nb19uZWdhdGl2b19ibG9xdWU8L3JkZjpsaT4KICAgICAgICAgICAgPC9yZGY6QWx0PgogICAgICAgICA8L2RjOnRpdGxlPgogICAgICAgICA8eG1wOkNyZWF0b3JUb29sPkFkb2JlIElsbHVzdHJhdG9yIENDIDIzLjEgKE1hY2ludG9zaCk8L3htcDpDcmVhdG9yVG9vbD4KICAgICAgICAgPHhtcDpDcmVhdGVEYXRlPjIwMjAtMDQtMDlUMTg6MjA6MDEtMDU6MDA8L3htcDpDcmVhdGVEYXRlPgogICAgICAgICA8eG1wOk1vZGlmeURhdGU+MjAyMC0wNC0wOVQyMzoyMDowMVo8L3htcDpNb2RpZnlEYXRlPgogICAgICAgICA8eG1wOk1ldGFkYXRhRGF0ZT4yMDIwLTA0LTA5VDE4OjIwOjAxLTA1OjAwPC94bXA6TWV0YWRhdGFEYXRlPgogICAgICAgICA8eG1wOlRodW1ibmFpbHM+CiAgICAgICAgICAgIDxyZGY6QWx0PgogICAgICAgICAgICAgICA8cmRmOmxpIHJkZjpwYXJzZVR5cGU9IlJlc291cmNlIj4KICAgICAgICAgICAgICAgICAgPHhtcEdJbWc6d2lkdGg+MjU2PC94bXBHSW1nOndpZHRoPgogICAgICAgICAgICAgICAgICA8eG1wR0ltZzpoZWlnaHQ+MTkyPC94bXBHSW1nOmhlaWdodD4KICAgICAgICAgICAgICAgICAgPHhtcEdJbWc6Zm9ybWF0PkpQRUc8L3htcEdJbWc6Zm9ybWF0PgogICAgICAgICAgICAgICAgICA8eG1wR0ltZzppbWFnZT4vOWovNEFBUVNrWkpSZ0FCQWdFQVNBQklBQUQvN1FBc1VHaHZkRzl6YUc5d0lETXVNQUE0UWtsTkErMEFBQUFBQUJBQVNBQUFBQUVBJiN4QTtBUUJJQUFBQUFRQUIvKzRBRGtGa2IySmxBR1RBQUFBQUFmL2JBSVFBQmdRRUJBVUVCZ1VGQmdrR0JRWUpDd2dHQmdnTERBb0tDd29LJiN4QTtEQkFNREF3TURBd1FEQTRQRUE4T0RCTVRGQlFURXh3Ykd4c2NIeDhmSHg4Zkh4OGZId0VIQndjTkRBMFlFQkFZR2hVUkZSb2ZIeDhmJiN4QTtIeDhmSHg4Zkh4OGZIeDhmSHg4Zkh4OGZIeDhmSHg4Zkh4OGZIeDhmSHg4Zkh4OGZIeDhmSHg4Zkh4OGYvOEFBRVFnQXdBRUFBd0VSJiN4QTtBQUlSQVFNUkFmL0VBYUlBQUFBSEFRRUJBUUVBQUFBQUFBQUFBQVFGQXdJR0FRQUhDQWtLQ3dFQUFnSURBUUVCQVFFQUFBQUFBQUFBJiN4QTtBUUFDQXdRRkJnY0lDUW9MRUFBQ0FRTURBZ1FDQmdjREJBSUdBbk1CQWdNUkJBQUZJUkl4UVZFR0UyRWljWUVVTXBHaEJ4V3hRaVBCJiN4QTtVdEhoTXhaaThDUnlndkVsUXpSVGtxS3lZM1BDTlVRbms2T3pOaGRVWkhURDB1SUlKb01KQ2hnWmhKUkZScVMwVnROVktCcnk0L1BFJiN4QTsxT1QwWlhXRmxhVzF4ZFhsOVdaMmhwYW10c2JXNXZZM1IxZG5kNGVYcDdmSDErZjNPRWhZYUhpSW1LaTR5TmpvK0NrNVNWbHBlWW1aJiN4QTtxYm5KMmVuNUtqcEtXbXA2aXBxcXVzcmE2dm9SQUFJQ0FRSURCUVVFQlFZRUNBTURiUUVBQWhFREJDRVNNVUVGVVJOaElnWnhnWkV5JiN4QTtvYkh3Rk1IUjRTTkNGVkppY3ZFekpEUkRnaGFTVXlXaVk3TENCM1BTTmVKRWd4ZFVrd2dKQ2hnWkpqWkZHaWRrZEZVMzhxT3p3eWdwJiN4QTswK1B6aEpTa3RNVFU1UFJsZFlXVnBiWEYxZVgxUmxabWRvYVdwcmJHMXViMlIxZG5kNGVYcDdmSDErZjNPRWhZYUhpSW1LaTR5TmpvJiN4QTsrRGxKV1dsNWlabXB1Y25aNmZrcU9rcGFhbnFLbXFxNnl0cnErdi9hQUF3REFRQUNFUU1SQUQ4QThxWXE3RlhZcTdGWFlxN0ZYWXE3JiN4QTtGWFlxN0ZYWXE3RlhZcTdGWFlxN0ZYWXE3RlhZcTdGWFlxN0ZYWXE3RlhZcTdGWFlxN0ZYWXE3RlhZcTdGWFlxN0ZYWXE3RlhZcTdGJiN4QTtYWXE3RlhZcTdGWFlxN0ZYWXE3RlhZcTdGWFlxN0ZYWXE3RlhZcTdGWFlxN0ZYWXE3RlhZcTdGWFlxN0ZYWXE3RlhZcTdGWFlxN0ZYJiN4QTtZcTdGWFlxN0ZYWXE3RlhZcTdGWFlxN0ZYWXE3RlhZcTdGWFlxN0ZYWXE3RlhZcTdGWFlxN0ZYWXE3RlhZcTdGWFlxN0ZYWXE3RlhZJiN4QTtxN0ZYWXE3RlhZcTdGWFlxN0ZYWXE3RlhZcTdGWFlxN0ZYWXE3RlhZcTdGWFlxN0ZYWXE3RlhZcTdGWFlxN0ZYWXE3RlhZcTdGWFlxJiN4QTs3RlhZcTdGWFlxN0ZYWXE3RlhZcTdGWFlxN0ZYWXE3RlhZcTdGWFlxN0ZYWXE3RlhZcTdGWFlxN0ZYWXE3RlhZcTdGWFlxN0ZYWXE3JiN4QTtGWFlxN0ZYWXE3RlhZcTdGWFlxN0ZYWXE3RlhZcTdGWFlxN0ZYWXE3RlhZcTdGWFlxN0ZYWXE3RlhZcTdGWFlxN0ZYWXE3RlhZcTdGJiN4QTtYWXE3RlhZcTdGWFlxN0ZYWXE3RlhZcTdGWFlxN0ZYWXE3RlhZcTdGWFlxN0ZYWXE3RlhZcTdGWFlxN0ZYWXE3RlhZcTdGWFlxN0ZYJiN4QTtZcTdGWFlxN0ZYWXE3RlhZcTdGWFlxN0ZYcFgvQURqcEhCUCtjT2dXTjFCRGRXVjY4ME4xYlhFVWMwYnA5WGtjQXBJR0d6S0NEMXhWJiN4QTtQdjhBbkxHM3M3SDgwZjBYcDluYldPbjJsbEEwTnZhUVJRTHlscXpzM3BxdklueE9LdkY4VlZMZTNudWJpSzJ0NDJtdUpuV09HRkFXJiN4QTtkM2MwVlZVYmtrbWdHS3ZvZlVQeTI4Zy9rdjVPczljODcyY2ZtWHozcWlrNlpvRXhKc2JkMUFMR1pWUDcxWXVRRGx0bUo0cVAyOFZlJiN4QTtVWHY1d2VmcDdocExlL1RUSUNUd3NOT3Q0TFMxVmY1QkRFaXF5Z2Z6VnhWbjM1ZCtZL0lINWwzYWVVZnpEMHUxc2RjdmlJdEg4MmFaJiN4QTtESFpUbTRPeXgzU1JCSXBDNTJWbVQyNi9GaXJ6cjh6L0FNdU5hL0w3emJjK1g5VXBLRkFtc3J4UVZTNHQzSkNTcURXbjJTckRzd0kzJiN4QTs2NHE5US81dzd0ZFAxVHozcStqYXBZV21vYWUybHZlQ0s3dDRwK00wVnhCR3JJWkZZcjhNekEwNjdlR0t2TWZ6ZW45VDgwUE5NU3hSJiN4QTtRUVdlcVhsbmJRUVJwREZIRGJUdkZHcXBHRlVVVkJYYmM3NHFodnl6dVRiL0FKaGVYRDZjVThjdW8yc00wRThheXhTUlN6S2tpT2pnJiN4QTtxUXlzUmlyMkQvbk1lejAzU2ZOR2hhVHBWaGFhZFlteE4yOFZwYnhRRjVXbWVQazdScXBhaXBzRDAzOGNWU3ovQUp4RWdzZFEvTVc5JiN4QTswalU3RzExRFQ1OU9sbWFDN2dpbkN5eFN4QlhUMUZiaWFPUnQxcjhzVllMK2QwaW44MXZNdHZIRERiMjFsZlMybHJiMjhTUXhSeFFzJiN4QTtVUlZTTUt2YXBQYzc0cTlOL3dDY09MUFRkVzgwYTdwT3EyRnBxTmlMRVhhUlhkdkZPVWxXWkkrU05JckZhcSs0SFhid3hWNXI1eTg1JiN4QTs2OXAzbmJYYmF6YTFpdHJUVXJ1SzNoK3BXYklzY2M3cWk4V2hJb0FLYjRxeW55QjVtL0xqenpmUStWL3pDMFN6MDY5MUJ4RnAvbXZTJiN4QTtJbzlPbGp1SDJYNnpGQ3EyN2gyMjUrblFIcVAyZ3F4UDgzZnlvMXY4dHZNeDBtL2NYTmxjS1p0TTFGRktwUEVEUTdiOFhRN090ZHZrJiN4QTtRY1ZZTmlyc1ZkaXJzVmRpcnNWZGlyc1ZkaXJzVmRpcnNWZGlyc1ZlbC84QU9OMy9BSk8zeXQveG5tLzZocGNWWkIvemw3LzVPUzUvJiN4QTs1Z2JUL2lKeFY0cGlyMlAvQUp4UDh0Vyt0L25EWlRYQ0NTTFJyYWZVdUI2YzQrTU1SLzJNazZzUGNZcWdmK2NuUE05eHJ2NXg2MHJPJiN4QTtUYmFTVTAyMFEvc3JBdjd3ZlRNMGgrbkZYbFdLcm81SklwRmtqWXBJaERJNmtobFlHb0lJNkVZcStxLytjaTRZL09YNURlVC9BRCs2JiN4QTtEOUp3TGJHNmtBcDhONUZ4dUYyN0M0UmFmMjRxeEwvbkNyL3lhZXEvOXNPNC93Q295MHhWNVYrYkgvazAvT1gvQUczTlMvNmpKTVZRJiN4QTtuNWVmOHAvNVovN2F0ai8xRXBpcjJyL25Oci9sUHRDLzdaUS82aVpjVlNyL0FKdzIvd0RKdVRmOXNxNS81T3c0cTgvL0FEci9BUEp1JiN4QTtlYi8rMnJkZjhuVGlyMVgvQUp3bC93Q1UrMTMvQUxaUi93Q29tTEZYaXY1aC93REtmK1p2KzJyZmY5Ukw0cWtBSkJxTmlPaHhWOVovJiN4QTttaTMrUFA4QW5GRFJQTnQwUFYxVFNWdHBYdUtWZDNqbS9SOXlUVHM3ZkczeTlzVmZKZUt1eFYyS3V4VjJLdXhWMkt1eFYyS3V4VjJLJiN4QTt1eFYyS3V4VjZYL3pqZC81TzN5dC93QVo1djhBcUdseFZrSC9BRGw3L3dDVGt1ZitZRzAvNGljVmVLWXE5My81dzB2NExiODI3aUdRJiN4QTtnUGZhVGN3UWducTZ6UVRFRC9ZUXRpckIvd0EvZE91TEQ4NVBOa0U0bzhsKzl3dmI0TGxST24vQ3lERldBWXE3RlgxdCtaNi9vWC9uJiN4QTtEL3k5cDkzOE54ZXhhWWthTnNlY2grdDhhYjdoRU9Lc0ovNXdxLzhBSnA2ci93QnNPNC82akxURlhsWDVzZjhBazAvT1gvYmMxTC9xJiN4QTtNa3hWQ2ZsNS93QXAvd0NXZisyclkvOEFVU21LdmF2K2MyditVKzBML3RsRC9xSmx4Vkt2K2NOdi9KdVRmOXNxNS81T3c0cTgvd0R6JiN4QTtyLzhBSnVlYi93RHRxM1gvQUNkT0t2VmYrY0pmK1UrMTMvdGxIL3FKaXhWNHIrWWYvS2YrWnY4QXRxMzMvVVMrS3NmeFY5YVgvTFF2JiN4QTsrY0pMYTN1OXByMkZQUVE3Y2hlYW1iaEtmODhXNVlxK1M4VmRpcnNWZGlyc1ZkaXJzVmRpcnNWZGlyc1ZkaXJzVmRpcjB2OEE1eHUvJiN4QTs4bmI1Vy80enpmOEFVTkxpcklQK2N2Zi9BQ2Nsei96QTJuL0VUaXJ5L3dBdmVUZk1QbUMxMVM4MDIxWjdMUnJXVzkxSzdhcXhSUlJLJiN4QTtXb1dwOXQ2VVZlcCtRSkNyZmtqelpxSGxIemJwZm1Td0hLNTB5ZFpoR1RRU0p1c2taSTZDU05tUS9QRlgwSitlM2xEVC93QTF0QXN2JiN4QTt6Uy9MMC9wS2VDQmJmWHRNaEhLNlFKOFNsb2wrTDFJdVJWeDNYaVZxb3hWOHdFRUdoMkk2akZYcFg1Si9rOXFmbjNYNDdpN2phMThvJiN4QTs2ZTRsMW5WSmYzY1hweC9FME1ibWdMc05qdjhBQ1BpUGFxckpQK2NudnpnMDN6cHJsbm9IbDExZnkxb1BJUnp4N1IzRnd3Q2wwQTI5JiN4QTtPTlJ3VC9aSG9SaXFWLzhBT0wzblhUZktuNXJXc21weXJiMldyVzhtbHlYRGtCSTJtZEpJeXhQUUdTRlZKN1YzMnhWVS93Q2NtZnk0JiN4QTsxanl4K1krcWF3YmQzMExYN2hyNjB2bFVtTDFiZ21TYUZtcHhEaVRrUU82ME9Lb2YvbkhIOHRkWjgyL21OcE4rbHRJTkQwUzVqdnRRJiN4QTt2aWg5R3Rzd2tqZ0RINFdlUndvNDFyeHFlMktvMy9uS3Z6dHAzbWo4MHBJdE1sV2V5MFMyVFR2V1NoUjVrZDVKaXJEcUZhVGgvc2RzJiN4QTtWVEwvQUp3MUJQNXR6a0NvR2szSlBzUFZoR0t2UC96c0JINXVlYjYvOVhXNi93Q1RoeFY2ci96aEtEL2o3WFQyL1JYWC9vNWl4VjRwJiN4QTsrWWYvQUNuL0FKbS83YXQ5L3dCUkw0cXlEOG92eWgxMzh3TmNqVlkzdGZMZHMvUFdkWllCSVlZVStKMVYyK0V5RmVnN2RUdGlyT1ArJiN4QTtjbWZ6YjBQekMrbStTUEtMcS9sYnkrRkJuaC91cHA0MDlLTll2R09HT3FxM2NrMDJBSlZlRDRxN0ZYWXE3RlhZcTdGWFlxN0ZYWXE3JiN4QTtGWFlxN0ZYWXE3RlUzOHIrYTllOHJhc21yNkRjaXoxS0pXU0s2OU9LUjBEamkzRDFWY0tTdTFSdlNvNzRxbk90Zm14NTQxeTdGNXJkJiN4QTt6YWFwZHFnalc0dmROMDY0a0NBa2hROHR1emNRU2RzVmJINXUvbUN2bCs2OHV3YWtscm9kNmp4M1duV3RwWjIwTHJLS1A4TU1NZE9YJiN4QTtjamZGV0w2ZEpZUlg4RW1vUXZjMlNPR3VMZUovU2VSQnVVRWhWK0hMcHk0bW5oaXIyUHlsL3dBNVNhNTVXbkVXaytWTkJzdEkyUnJPJiN4QTt6Z2xnbU1ZNmNybjFIZDM4WGNOVTc0cTl0OHI2cCtTLzUxV1VqNmZZV2VrZWNrWDFKa3VyS3l1cnZrQjlzL1dZcFZ1b3E5VDlyeDQxJiN4QTt4VjV0K2IzNVJmOEFPUnEyaHN6cU12bWp5MUYvZDJtbEtsckdvQnFPV213Q0phMTZjRmVuamlyekR5bCtRMzVxZVpkVlN3Zzh2M21uJiN4QTt4OCtOeGU2akJMYVFSQUdqRm1sVlN4WCtWQVc5c1ZTcjh6YmJ5MXAvbW1UUmZMa2d1ZE0wV0pMRDlJYlZ1NTRpVGNYR3hJbzB6dUVvJiN4QTtUOEFYRlZmU2Z6ai9BRE0wclMvMFRiNjdOTnBRVUlMQzlTRytnQ0RvZ2l1MG5RS095MHBpcTdVL3ptL00zVWRLT2tTNjdMYjZXUXltJiN4QTt4c0k0YkNFcTMybE1kbWtDOFc3clNoeFZoV0tzbzhrZm1YNXo4alRYTS9sYStqMCs0dTFFYzg1dGJXZVFvRFhnSG5pbFpWcnVRcEFPJiN4QTsxZW1LcGY1cTgyYTc1cjFtWFd0ZG5qdWRUbkNyUGNSd1FXNWZpS0F1dHVrU3MxTnVSRmNWUjNrNzh5Zk92a3dYSThzNmtkTk4zeCtzJiN4QTt2SEZBN3VFK3lDOGlPMUJYcFdtS3RUZm1INWtudXBMdWROTmx1cFhNc3R3K2s2VzBqU01lVE96bTI1RmkyNU9LdTE3OHlQUFd2V0thJiN4QTtmcXV0WE0ybXhpaWFlakNHMUZEVWY2UENJNHR1M3c0cXhyRlhZcTdGWFlxN0ZYWXE3RlhZcTdGWFlxN0ZYWXE3RlhZcTdGWFlxN0ZYJiN4QTtZcTdGWFlxcjJOOWUyRjVEZTJOeEphM2x1d2tndVlYYU9SSFhveU9wQkJIdGlyMy9BTW4vQVBPWjNuZlNySkxYekRwZHY1Z01ZQVc3JiN4QTtFaHM3aGdQOStNaVN4c2ZjSVBldUtwVCtZMy9PV1BudnpacFUya2FiYlErWDlQdWtNZDBiZDJsdVpFYlprOVpnbkZXSFhpb1B2VEZYJiN4QTtsZWdlUy9NZXY2ZnFXb2FWYnh6V21rUkNmVXBIdUxlSDBvaWFCeXMwa2JFVjIrRUhGVXMwM1RyclVyKzNzTFFLMTFkT0lvRmVSSWxMJiN4QTtzYUtDOGpJaTFQaWNWVGk3OGhlYUxQelUzbFM2dDRZZGVSdlRlMGE2dFFxdlN2RnB2VjlFTjdGNjRxdjBIOHZmTkd2V21wWGVsUTI5JiN4QTt4QnBFYnphbTMxeTBRd3d4N05NVmVWV2FNZnpvQ1B3eFZBM25sblZiTzEwKzZ1RGJwRnFxckpZLzZUYmxtUm1hUG15aCtVYWg0MlV0JiN4QTtJRkZSaXFOMXI4dnZOZWllWTdmeTNxbHJGYjZ6YytuNlZzYnExY2Z2Z0RIeWtTVm8wNWhoVGt3eFYyai9BSmYrYXRadk5XczlOdDRMJiN4QTtpZlE3ZVc4MVNsNWFLa1Z2QlQxWmZVZVZVZEVxT1JRbW1Lb2ZWdkp1djZQZDZmYjZwRkZhcnFzS1hOaGRHZUdTMmtoa0pVU0xjUlBKJiN4QTtGUUVFTjhYdzk4VlRLKy9LN3pocC9tVzI4dGFqRGJXZXIzY1ltaGhrdkxVcDZSWG1ydE5ISThTaGwzRld4Vmk5MUExdmN5d002U05FJiN4QTs3SVpJbUR4dHhOS282MURBOWlNVlVzVmRpcnNWZGlyc1ZkaXJzVmRpcnNWZGlyc1ZkaXJzVmRpcnNWZGlyc1ZkaXJzVmRpcnNWZGlyJiN4QTsxYjhuditVRS9OTC9BTFljZi9VUU1WWUg1V3RwNDliMGEva1FwWmZwR0NMNncyeWMwa1IyV3A4RllFNHE5SS9NQkhIL0FEa3hxNEtrJiN4QTtFYW16bmJvb2lERnZseDNyNFlxeHI4bDljbjh2K2NocjhqQmRFMDYzbGJ6QWpMNmlUV01vRVQyM0FsUXp6dTZvZ08zSWhqc0RpcmY1JiN4QTs0ZVhiblF2ekN2SVRJcytsWFVVTjE1Zm5qQkVUYVhKR0JhTEZXdnd4UnI2ZnVWcmlyTHZ6cFZwZitjZ3ROTVFMaVlhSVlTdS9NTkRBJiN4QTtBVnAxcWZERlVQOEFrWTlvTmQvTTJTNVI1N01lVU5jYWVPRjFqZDQvVWhMS2tqSktxTVY2TVVZRHJROU1WUzM4N2xsRmw1SU5pd1R5JiN4QTtwSm9VVXVnV2hINzJFTzdmV1Z1R3JTU1l5aXJ5S3FxMjFGR0twMXF1dVI2bi93QTQvYVY1cXVyZm41azBtN2w4a3dhZ1crSTJFdHY5JiN4QTthRE1LZmFTQXZici9BSkxzZXRLS3ZFOFZkaXJzVmRpcnNWZGlyc1ZkaXJzVmRpcnNWZGlyc1ZkaXJzVmRpcnNWZGlyc1ZkaXJzVmRpJiN4QTtyc1ZUM3k5NTI4eCtYclMrczlKdUlvYmJVbEVkL0ZKYlcxd0pveHVFZjE0NUtwWGZqMHJpcW5yUG0vWGRZMCsyMDY5bGhGaFp5U1RXJiN4QTsxcmJXMXRhUkpKTUZFajhMYU9JRXNFV3BQaGlxTTFQOHh2T1dxUWxOUTFINnpLWVBxalhra01CdTJnSzhURTEzdytzTXJMOEpCazNYJiN4QTtZN1lxbDl2NW0xZTMwT2JRNG5oR20zRXFUenhHMnQyZDVJNmhHTXJSbVg0QTdCZmkyQlBpY1ZSbXZlZmZOT3Y2WFphWHExMUhjMk9tJiN4QTtxSTlQaityVzBaZ2pBcDZjVHh4bzZwNHFEUS9SaXFvLzVqZWM1TEswczVkUjlaTENINnRZVHl3d1NYTnZEUWdKRGRPalR4Z0EwWGk0JiN4QTtwMnhWQytXL09YbUx5MEw0YUxjcGJmcEtCclMrTFFRVEdXM2Y3Y0xHWkpQM2IvdEtObW9LOUJpcWxjK2EvTU4xb1VHZzNGNjgya1dzJiN4QTtqeld0bzRVckMwaHE0aUpIS05HYmNvcENrNzByaXFJL3h2NWsvd0FMZjRWOWVMOUErcjlaK3BmVmJiKy80OGZYOVQwL1U5WGg4UHFjJiN4QTt1WEg0YTAyeFZJY1ZkaXJzVmRpcnNWZGlyc1ZkaXJzVmRpcnNWZGlyc1ZkaXJzVmRpcnNWZGlyc1ZkaXJzVmRpcnNWWmw1TThuNlByJiN4QTtmbGp6VHJGNVBjUlRlWExXTzdXS0hnVm1FMG9nVkNXRlZvN2hpZDl0cWQ4VlMvOEFMM3k3WStaZk91aitYNzJTV0dEVmJxTzBNOEpYJiN4QTtuR1pUeEQwWU1EUW5jWXFuTnArWFZ0ZWViL005akhjeTIzbDd5b0xxYlU3NXdray9vV2tubzBqUWVtclN6U1VWRnFBSzduYXVLb1Z2JiN4QTtKMm1hcDVNMUh6UDVkbHVEK2dwWUUxelRic1Jsb29ydDJqZ3VJWms0ZW9wZGVEcndCVWtkUnVGVlR6UjVRMExTZkkvay93QXhXMHQxJiN4QTtKY2VaVXVwTGlDUXhoSWhaVG0ya0NGVnFlYmprcFBRZGE0cW1mbGI4dlBMV3UvbWhENVE5ZThnc3JtMWFlSzY1Uk5LcnBZbStQSmVBJiN4QTtVZ2hTbTN6OXNWUVBrdnlqNVkxdnk5NXMxbStrdllSNWRoaXU0WUlHaVBxeFRUckFFWm1UWmxMVjVBVVBnTVZTL1ZmSmNhK1VZUE9HJiN4QTtqWEQzZWlHNi9SMS9ITWdpdUxXNzlQMVZWd3JPcnh5SnVrZzcxVWdHbFZXUWViUElIazd5OXF2bFdLNXZyeE5OMTdRSXZNTjNLVEMwJiN4QTtzWXVJWlpJcldJY1VWbjV3OE9URVZMRFlZcXMxL3dBaWVTdEowL1NicVRVTDJOdGYwU2JWOU5FZ2g0UnpSK3FJN2VadGkzcU5CeERLJiN4QTtCdXdGTytLcmgrVzJpNmo1TTh1ZVkvTDdYbDYrcDZuK2l0WnRwSklrV3luQURLcGtFWitHV004eEl3NHFCdU1WWU5yMGVpUjZ2ZFJhJiN4QTtKSk5OcGNjakphejNQRVN5SXBvSkNxZ0JlWFhqMjhjVlMvRlhZcTdGWFlxN0ZYWXE3RlhZcTdGWFlxN0ZYWXE3RlhZcTdGWFlxN0ZYJiN4QTtZcTdGWFlxOUsvTENTMC93UjUvc1piMnp0YnZWYkMxdHRQaHVydTN0bWxsUzdTVmxYMTVJOWdpazhqdDJyWEZWMzVmNlBwdmxqeno1JiN4QTtLMWJVdFowL211b202MUtPRzh0cG83UzJ0V2paWGtsaWQwTHlWY2hGSkpvS1ZKcGlxT3N2TjJnMit2OEE1bWFIZlhVY2VuK2NSUDhBJiN4QTtvL1ZZeUpvVW1TNk4xYUdSb3ZVSWlrNWNYSUJLbnFOalJWRDJpei9sMzVIODNhTnJ5TEY1azgwUVdWcllhY3JwTndzdy93QllrdXBXJiN4QTtqTHhxSFhpc1E1Y2lUeXBRVktxbnFwMC96UDhBbFQ1SzAvVDlUc1lkVTh0dHFWdHFWaGUzTVZwSnh2THY2eEZORVp6R2tpY1dvM0ZxJiN4QTtnOXNWUnY1YStZZEJ0dnp2aTF5NDFDQ0RSYkczdW9XdjUzRUtTQWFhOWpHNkxKeGMrckl5a0x4NUFHcEFvYUtvUDh0NDdlRHlaK1lXJiN4QTttM04vWVc5N3FOcGIyVmhEUGZXa1hyVFEzYVN1RVo1VlVxRVVrUFhpZXhPS29hOTE3U2RDL0tTWHlYRGRSWDJ1Nnpxa2VvNmsxc3drJiN4QTt0N1dDM2o0UlErc1AzY2tydWVSTWJNb0cxYTRxci9uZnFlbWFoL2dqOUgzdHZlZm92eXRwMmszL0FOWG1qbTlLOHMvVTlhSThHYW9YJiN4QTsxRm80K0Z2MlNhSEZWTDgxTG13dWZMUGtOYlMrdGJxWFR0Rld4djRiZTRpbGtobkUwazNGMVJtUDJKQnYwcnQxMnhWRmZsWHIzNlA4JiN4QTtoK2Y5TmJVN2V6bDFxeGl0OVB0cDdpS0V5enBJUFVvSFplUCtqeU9PUm9EMHJYYkZYbHVLdXhWMkt1eFYyS3V4VjJLdXhWMkt1eFYyJiN4QTtLdXhWMkt1eFYyS3V4VjJLdXhWMkt1eFYyS3V4VjJLdXhWUGRiODdlWk5kc2JPeTFlNWp2STdDRkxlMW1rdDdmNnlzTVFva1p1UkdKJiN4QTsyVmV3WnppcVJZcTdGWFlxN0ZYWXE3RlhZcTdGWFlxN0ZYWXE3RlhZcTdGWFlxN0ZYWXE3RlhZcTdGWFlxN0ZYWXE3RlhZcTdGWFlxJiN4QTs3RlhZcTdGWFlxN0ZYWXE3RlhZcTdGWFlxN0ZYWXE3RlhZcTdGWFlxN0ZYWXE3RlhZcTdGWFlxN0ZYWXE3RlhZcTdGWFlxN0ZYWXE3JiN4QTtGWFlxN0ZYWXE3RlhZcTdGWFlxN0ZYWXE3RlhZcTdGWFlxN0ZYWXE3RlhZcTdGWFlxN0ZYWXE3RlhZcTdGWFlxN0ZYWXE3RlhZcTdGJiN4QTtYWXE3RlhZcTdGWFlxN0ZYWXE3RlhZcTdGWFlxN0ZYWXE3RlhZcTdGWFlxN0ZYWXE3RlhZcTdGWFlxN0ZYWXE3RlhZcTdGWFlxN0ZYJiN4QTtZcTdGWFlxN0ZYWXE3RlhZcTdGWFlxN0ZYWXE3RlhZcTdGWFlxN0ZYWXE3RlhZcTdGWFlxN0ZYWXE3RlhZcTdGWFlxN0ZYWXE3RlhZJiN4QTtxN0ZYWXE3RlhZcTdGWFlxN0ZYWXE3RlhZcTdGWFlxN0ZYWXE3RlhZcTdGWFlxN0ZYWXE3RlhZcTdGWFlxN0ZYWXE3RlhZcTdGWFlxJiN4QTs3RlhZcTdGWFlxN0ZYWXE3RlhZcTdGWFlxN0ZYWXE3RlhZcTdGWFlxN0ZYWXE3RlhZcTdGWFlxN0ZYWXE3RlhZcTdGWC85az08L3htcEdJbWc6aW1hZ2U+CiAgICAgICAgICAgICAgIDwvcmRmOmxpPgogICAgICAgICAgICA8L3JkZjpBbHQ+CiAgICAgICAgIDwveG1wOlRodW1ibmFpbHM+CiAgICAgICAgIDx4bXBNTTpSZW5kaXRpb25DbGFzcz5wcm9vZjpwZGY8L3htcE1NOlJlbmRpdGlvbkNsYXNzPgogICAgICAgICA8eG1wTU06T3JpZ2luYWxEb2N1bWVudElEPnV1aWQ6NjVFNjM5MDY4NkNGMTFEQkE2RTJEODg3Q0VBQ0I0MDc8L3htcE1NOk9yaWdpbmFsRG9jdW1lbnRJRD4KICAgICAgICAgPHhtcE1NOkRvY3VtZW50SUQ+eG1wLmRpZDozYzNhNWYyNy1hMjQ3LTQ3NzQtODBkMS0yMjk4Yzk2MmE2NzI8L3htcE1NOkRvY3VtZW50SUQ+CiAgICAgICAgIDx4bXBNTTpJbnN0YW5jZUlEPnhtcC5paWQ6M2MzYTVmMjctYTI0Ny00Nzc0LTgwZDEtMjI5OGM5NjJhNjcyPC94bXBNTTpJbnN0YW5jZUlEPgogICAgICAgICA8eG1wTU06RGVyaXZlZEZyb20gcmRmOnBhcnNlVHlwZT0iUmVzb3VyY2UiPgogICAgICAgICAgICA8c3RSZWY6aW5zdGFuY2VJRD51dWlkOmU3MDcwYTdmLTA4YWItYmI0Yi1iYzhkLWRhYjlmODBiNTFmOTwvc3RSZWY6aW5zdGFuY2VJRD4KICAgICAgICAgICAgPHN0UmVmOmRvY3VtZW50SUQ+eG1wLmRpZDoyYmJjM2RlOC1mZTQwLTRmZTUtYTIyZS02NTk0Nzg3ODZiNjk8L3N0UmVmOmRvY3VtZW50SUQ+CiAgICAgICAgICAgIDxzdFJlZjpvcmlnaW5hbERvY3VtZW50SUQ+dXVpZDo2NUU2MzkwNjg2Q0YxMURCQTZFMkQ4ODdDRUFDQjQwNzwvc3RSZWY6b3JpZ2luYWxEb2N1bWVudElEPgogICAgICAgICAgICA8c3RSZWY6cmVuZGl0aW9uQ2xhc3M+cHJvb2Y6cGRmPC9zdFJlZjpyZW5kaXRpb25DbGFzcz4KICAgICAgICAgPC94bXBNTTpEZXJpdmVkRnJvbT4KICAgICAgICAgPHhtcE1NOkhpc3Rvcnk+CiAgICAgICAgICAgIDxyZGY6U2VxPgogICAgICAgICAgICAgICA8cmRmOmxpIHJkZjpwYXJzZVR5cGU9IlJlc291cmNlIj4KICAgICAgICAgICAgICAgICAgPHN0RXZ0OmFjdGlvbj5zYXZlZDwvc3RFdnQ6YWN0aW9uPgogICAgICAgICAgICAgICAgICA8c3RFdnQ6aW5zdGFuY2VJRD54bXAuaWlkOmU2YTAzNmE3LTM4MGQtNDQ0Yy1iYmFkLTY3NzFlZGQ5OWIxNjwvc3RFdnQ6aW5zdGFuY2VJRD4KICAgICAgICAgICAgICAgICAgPHN0RXZ0OndoZW4+MjAxOS0xMS0xOVQxODozODo0My0wNjowMDwvc3RFdnQ6d2hlbj4KICAgICAgICAgICAgICAgICAgPHN0RXZ0OnNvZnR3YXJlQWdlbnQ+QWRvYmUgSWxsdXN0cmF0b3IgMjQuMCAoTWFjaW50b3NoKTwvc3RFdnQ6c29mdHdhcmVBZ2VudD4KICAgICAgICAgICAgICAgICAgPHN0RXZ0OmNoYW5nZWQ+Lzwvc3RFdnQ6Y2hhbmdlZD4KICAgICAgICAgICAgICAgPC9yZGY6bGk+CiAgICAgICAgICAgICAgIDxyZGY6bGkgcmRmOnBhcnNlVHlwZT0iUmVzb3VyY2UiPgogICAgICAgICAgICAgICAgICA8c3RFdnQ6YWN0aW9uPnNhdmVkPC9zdEV2dDphY3Rpb24+CiAgICAgICAgICAgICAgICAgIDxzdEV2dDppbnN0YW5jZUlEPnhtcC5paWQ6M2MzYTVmMjctYTI0Ny00Nzc0LTgwZDEtMjI5OGM5NjJhNjcyPC9zdEV2dDppbnN0YW5jZUlEPgogICAgICAgICAgICAgICAgICA8c3RFdnQ6d2hlbj4yMDIwLTA0LTA5VDE4OjIwOjAxLTA1OjAwPC9zdEV2dDp3aGVuPgogICAgICAgICAgICAgICAgICA8c3RFdnQ6c29mdHdhcmVBZ2VudD5BZG9iZSBJbGx1c3RyYXRvciBDQyAyMy4xIChNYWNpbnRvc2gpPC9zdEV2dDpzb2Z0d2FyZUFnZW50PgogICAgICAgICAgICAgICAgICA8c3RFdnQ6Y2hhbmdlZD4vPC9zdEV2dDpjaGFuZ2VkPgogICAgICAgICAgICAgICA8L3JkZjpsaT4KICAgICAgICAgICAgPC9yZGY6U2VxPgogICAgICAgICA8L3htcE1NOkhpc3Rvcnk+CiAgICAgICAgIDxpbGx1c3RyYXRvcjpTdGFydHVwUHJvZmlsZT5XZWI8L2lsbHVzdHJhdG9yOlN0YXJ0dXBQcm9maWxlPgogICAgICAgICA8aWxsdXN0cmF0b3I6Q3JlYXRvclN1YlRvb2w+QUlSb2JpbjwvaWxsdXN0cmF0b3I6Q3JlYXRvclN1YlRvb2w+CiAgICAgICAgIDxwZGY6UHJvZHVjZXI+QWRvYmUgUERGIGxpYnJhcnkgMTUuMDA8L3BkZjpQcm9kdWNlcj4KICAgICAgICAgPHBkZng6Q3JlYXRvclZlcnNpb24+MjEuMC4wPC9wZGZ4OkNyZWF0b3JWZXJzaW9uPgogICAgICA8L3JkZjpEZXNjcmlwdGlvbj4KICAgPC9yZGY6UkRGPgo8L3g6eG1wbWV0YT4KICAgICAgICAgICAgICAgICAgICAgICAgICAgICAgICAgICAgICAgICAgICAgICAgICAgICAgICAgICAgICAgICAgICAgICAgICAgICAgICAgICAgICAgICAgICAgICAgICAgIAogICAgICAgICAgICAgICAgICAgICAgICAgICAgICAgICAgICAgICAgICAgICAgICAgICAgICAgICAgICAgICAgICAgICAgICAgICAgICAgICAgICAgICAgICAgICAgICAgICAgCiAgICAgICAgICAgICAgICAgICAgICAgICAgICAgICAgICAgICAgICAgICAgICAgICAgICAgICAgICAgICAgICAgICAgICAgICAgICAgICAgICAgICAgICAgICAgICAgICAgICAKICAgICAgICAgICAgICAgICAgICAgICAgICAgICAgICAgICAgICAgICAgICAgICAgICAgICAgICAgICAgICAgICAgICAgICAgICAgICAgICAgICAgICAgICAgICAgICAgICAgIAogICAgICAgICAgICAgICAgICAgICAgICAgICAgICAgICAgICAgICAgICAgICAgICAgICAgICAgICAgICAgICAgICAgICAgICAgICAgICAgICAgICAgICAgICAgICAgICAgICAgCiAgICAgICAgICAgICAgICAgICAgICAgICAgICAgICAgICAgICAgICAgICAgICAgICAgICAgICAgICAgICAgICAgICAgICAgICAgICAgICAgICAgICAgICAgICAgICAgICAgICAKICAgICAgICAgICAgICAgICAgICAgICAgICAgICAgICAgICAgICAgICAgICAgICAgICAgICAgICAgICAgICAgICAgICAgICAgICAgICAgICAgICAgICAgICAgICAgICAgICAgIAogICAgICAgICAgICAgICAgICAgICAgICAgICAgICAgICAgICAgICAgICAgICAgICAgICAgICAgICAgICAgICAgICAgICAgICAgICAgICAgICAgICAgICAgICAgICAgICAgICAgCiAgICAgICAgICAgICAgICAgICAgICAgICAgICAgICAgICAgICAgICAgICAgICAgICAgICAgICAgICAgICAgICAgICAgICAgICAgICAgICAgICAgICAgICAgICAgICAgICAgICAKICAgICAgICAgICAgICAgICAgICAgICAgICAgICAgICAgICAgICAgICAgICAgICAgICAgICAgICAgICAgICAgICAgICAgICAgICAgICAgICAgICAgICAgICAgICAgICAgICAgIAogICAgICAgICAgICAgICAgICAgICAgICAgICAgICAgICAgICAgICAgICAgICAgICAgICAgICAgICAgICAgICAgICAgICAgICAgICAgICAgICAgICAgICAgICAgICAgICAgICAgCiAgICAgICAgICAgICAgICAgICAgICAgICAgICAgICAgICAgICAgICAgICAgICAgICAgICAgICAgICAgICAgICAgICAgICAgICAgICAgICAgICAgICAgICAgICAgICAgICAgICAKICAgICAgICAgICAgICAgICAgICAgICAgICAgICAgICAgICAgICAgICAgICAgICAgICAgICAgICAgICAgICAgICAgICAgICAgICAgICAgICAgICAgICAgICAgICAgICAgICAgIAogICAgICAgICAgICAgICAgICAgICAgICAgICAgICAgICAgICAgICAgICAgICAgICAgICAgICAgICAgICAgICAgICAgICAgICAgICAgICAgICAgICAgICAgICAgICAgICAgICAgCiAgICAgICAgICAgICAgICAgICAgICAgICAgICAgICAgICAgICAgICAgICAgICAgICAgICAgICAgICAgICAgICAgICAgICAgICAgICAgICAgICAgICAgICAgICAgICAgICAgICAKICAgICAgICAgICAgICAgICAgICAgICAgICAgICAgICAgICAgICAgICAgICAgICAgICAgICAgICAgICAgICAgICAgICAgICAgICAgICAgICAgICAgICAgICAgICAgICAgICAgIAogICAgICAgICAgICAgICAgICAgICAgICAgICAgICAgICAgICAgICAgICAgICAgICAgICAgICAgICAgICAgICAgICAgICAgICAgICAgICAgICAgICAgICAgICAgICAgICAgICAgCiAgICAgICAgICAgICAgICAgICAgICAgICAgICAgICAgICAgICAgICAgICAgICAgICAgICAgICAgICAgICAgICAgICAgICAgICAgICAgICAgICAgICAgICAgICAgICAgICAgICAKICAgICAgICAgICAgICAgICAgICAgICAgICAgICAgICAgICAgICAgICAgICAgICAgICAgICAgICAgICAgICAgICAgICAgICAgICAgICAgICAgICAgICAgICAgICAgICAgICAgIAogICAgICAgICAgICAgICAgICAgICAgICAgICAgICAgICAgICAgICAgICAgICAgICAgICAgICAgICAgICAgICAgICAgICAgICAgICAgICAgICAgICAgICAgICAgICAgICAgICAgCiAgICAgICAgICAgICAgICAgICAgICAgICAgIAo8P3hwYWNrZXQgZW5kPSJ3Ij8+/9sAQwABAQEBAQEBAQEBAQEBAQEBAQEBAQEBAQEBAQEBAQEBAQEBAQECAgEBAgEBAQICAgICAgICAgECAgICAgICAgIC/8AACwgDwAUAAQERAP/EAB8AAQACAgMBAQEBAAAAAAAAAAAKCwgJBQYHBAMCAf/EAFYQAAEEAgIBAgMBCgkJBQYDCQACAwQFBgcBCAkKEhETFDkVISI3dniItre4FhkaIzFYd5jWFzI4SVmXtcjXGCRBQlYzaXmo2OglOlEmVFVhYnFzddX/2gAIAQEAAD8Ar/wAAAAAAAAAAAAAAAAAAAAAAAAAAAAAAAAAAAAAAAAAAAAAAAAAAAAAAAAAAAAAAAAAAAAAAAAAAAAAAAAAAAAAAAAAAAAAAAAAAAAAAAAAAAAAAAAAAAAAAAAAAAAAAAAAAAAAAAAAAAAAAAAAAAAAAAAAAAAAAAAAAAAAAAAAAAAAAAAAAAAAAAAAAAAAAAAAAAAAAAAAAAAAAAAAAAAAAAAAAAAAAAAAAAAAAAAAAAAAAAAAAAAAAAAAAAAAAAAAAAAAAAAAAAAAAAAAAAAAAAAAAAAAAAAAAAAAAAAAAAAAAAAAAAAAAAAAAAAAAAAAAAAAAAAAAAAAAAAAAAAAAAAAAAAAAAAAAAAAAAAAAAAAAAAAAAAAAAAAAAAAAAAAAAAAAAAAAAAAAAAAAAAAAAAAAAAAAAAAAAAAAAAAAAAAAAAAAAAAAAAAAAAAAAAAAAAAAAAAAAAAAAAAAAAAAAAAAAAAAAAAAAAAAAAAAAAAAAAAAAAAAAAAAAAAAAAAAAAAAAAAAAAAAAAAAAAAAAAAAAAAAAAAAAAAAAAAAAAAAAAAAAAAAAAAAAAAAAAAAAAAAAAAAAAAAAAAAAAAAAAAAAAAAAAAAAAAAAAAAAAAAAAAAAAAAAAAAAAAAAAAAAAAAAAAAAAAAAAAAAAAAAAAAAAAAAAAAAAAAAAAAAAAAAAAAAAAAAAAAAAAAAAAAAAAAAAAAAAAAAAAAAAAAAAAAAAAAAAAAAAAAAAAAAAAAAAAAAAAAAAAAAAAAAAAAAAAAAAAAAAAAAAAAAAAAAAAAAAAAAAAAAAAAAAAAAAAAAAAAAAAAAAAAAAAAAAAAAAAAAAAAAAAAAAAAAAAAAAAAAAAAAAAAAAAAAAAAAAAAAAAAAAAAAAAAAAAAAAAAAAAAAAAAAAAAAAAAAAAAAAAAAAAAAAAAAAAAAAAAAAAAAAAAAAAAAAAAAAAAAAAAAAAAAAAAAAAAAAAAAAAAAAAAAAAAAAAAAAAAAAAAAAAAAAAAAAAAAAAAAAAAAAAAAAAAAAAAAAAAAAAAAAAAAAAAAAAAAAAAAAAAAAAAAAAAAAAAAAAAAAAAAAAAAAAAAAAAAAAAAAAAAAAAAAAAAAAAAAAAAAAAAAAAAAAAAAAAAAAAAAAAAAAAAAAAAAAAAAAAAAAAAAAAAAAAAAAAAAAAAAAAAAAAAAAAAAAAAAAAAAAAAAAAAAAAAAAAAAAAAAAAAAAAAAAAAAAAAAAAAAAAAAAAAAAAAAAAAAAAAAAAAAAAAAAAAAAAAAAAAAAAAAAAAAAAAAAAAAAAAAAAAAAAAAAAAAAAAAAAAAAAAAAAAAAAAAAAAAAAAAAAAAAAAAAAAAAAAAAAAAAAAAAAAAAAAAAAAAAAAAAAAAAAAAAAAAAAAAAAAAAAAAAAAAAAAAAAAAAAAAAAAAAAAAAAAAAAAAAAAAAAAAAAAAAAAAAAAAAAAAAAAAAAAAAAAAAAAAAAAAAAAAAAAAAAAAAAAAAAAAAAAAAAAAAAAAAAAAAAAAAAAAAAAAAAAAAAAAAAAAAAAAAAAAAAAAAAAAAAAAAAAAAAAAAAAAAAAAAAAAAAAAAAAAAAAAAAAAAAAAAAAAAAAAAAAAAAAAAAAAAAAAAAAAAAAAAAAAAAAAAAAAAAAAAAAAAAAAAAAAAAAAAAAAAAAAAAAAAAAAAAAAAAAAAAAAAAAAAAAAAAAAAAAAAAAAAAAAAAAAAAAAAAAAAAAAAAAAAAAAAAAAAAAAAAAAAAAAAAAAAAAAAAAAAAAAAAAAAAAAAAAAAAAAAAAAAAAAAAAAAAAAAAAAAAAAAAAAAAAAAAAAAAAAAAAAAAAAAAAAAAAAAAAAAAAAAAAAAAAAAAAAAAAAAAAAAAAAAAAAAAAAAAAAAAAAAAAAAAAAAAAAAAAAAAAAAAAAAAAAAAAAAAAAAAAAAAAAAAAAAAAAAAAAAAAAAAAAAAAAAAAAAAAAAAAAAAAAAAAAAAAAAAAAAAAAAAAAAAAAAAAAAAAAAAAAAAAAAAAAAAAAAAAAAAAAAAAAAAAAAAAAAAAAAAAAAAAAAAAAAAAAAAAAAAAAAAAAAAAAAAAAAAAAAAAAAAAAAAAAAAAAAAAAAAAAAAAAAAAAAAAAAAAAAAAAAAAAAAAAAAAAAAAAAAAAAAAAAAAAAAAAAAAAAAAAAAAAAAAAAAAAAAAAAAAAAAAAAAAAAAAAAAAAAAAAAAAAAAAAAAAAAAAAAAAAAAAAAAAAAAAAAAAAAAAAAAAAAAAAAAAAAAAAAAAAAAAAAAAAAAAAAAAAAAAAAAAAAAAAAAAAAAAAAAAAAAAAAAAAAAAAAAAAAAAAAAAAAAAAAAAAAAAAAAAAAAAAAAAAAAAAAAAAAAAAAAAAAAAAAAAAAAAAAAAAAAAAAAAAAAAAAAAAAAAAAAAAAAAAAAAAAAAAAAAAAAAAAAAAAAAAAAAAAAAAAAAAAAAAAAAAAAAAAAAAAAAAAAAAAAAAAAAAAAAAAAAAAAAAAAAAAAAAAAAAAAAAAAAAAAAAAAAAAAAAAAAAAAAAAAAAAAAAAAAAAAAAAAAAAAAAAAAAAAAAAAAAAAAAAAAAAAAAAAAAAAAAAAAAAAAAAAAAAAAAAAAAAAAAAAAAAAAAAAAAAAAAAAAAAAAAAAAAAAAAAAAAAAAAAAAAAAAAAAAAAAAAAAAAAAAAAAAAAAAAAAAAAAAAAAAAAAAAAAAAAAAAAAAAAAAAAAAAAAAAAAAAAAAAAAAAAAAAAAAAAAAAAAAAAAAAAAAAAAAAAAAAAAAAAAAAAAAAAAAAAAAAAAAAAAAAAAAAAAAAAAACXl4y/T9eNjyuYbeXfWjyh7Yrs9wuHCm7E0hsjrBiONbWwmJPcTHj20ioh7xmQ8jxdcxSWU2tPNnwm3nmo8tyLLdRGNpX8h01X/tEtgf3ccc/6vj+Q6ar/ANolsD+7jjn/AFfOLvPRI6Sxmlt8kyTyU5Zj+O4/V2F5f395oHEqmlpKWpiOz7S3uLSfuVtitq40GO+9IkPOIaZaZW64tKEq54hi999P9GdG7Ni686SdqNk9uqiilZDAz7aOUaXrNR68lT4blUzSJ1TJ4z60ss1rVO/wiTNnTa2oic/Rwnql21iSlSWsEQAAAAAAAbDOoXii8iXe9cCT1d6m7Y2Hi1gtSGdlTKZnBtScfJf5jyuP8q+fSavH5EhlaHOXIzFi7L+DfPCI61/g8yS+uHoou4maM19p2g7U6O0PClJYkv47rTH8q3tmMNrn2cyK625nu4nTwLL7zieHIVpbxke5DnC3vwmuNqdZ6QXxLddMP4z7tv3B3tIpadLXF7lWX7P0p181R7+HeHVKlruMLkyatKmm/Zxxzknx4Qtzn4+/2LbxezDQHooOu8p2qzvasHcdpBhyW/k4fuDuXt2LbSeXHHW3G8k65SU0yZnHDSmmufr48XlK0qe9ylocPOY+W+hxfksMu6wziG086005LkWHk7VHiocWlC5D6Yew3XVMoSr3K4aacc5Sjn2IWr4J5961z47vR3dtFs0uk+zlFgF3ZuLYq4Nt2g2hp3JZsq04j/Qwqah7VMMu2lg0p9vhiO3EffUv3okIeW2vhHpe2/RP9M8zrG7XrX3T7Aa8RaR+LKrmbKx3Wm+McfiTmm5Veut5w+Jg7r9Zy05xy07zNkKWy4hXzXOeOVuaQez/AKOzyf6cam3GiMg0f2xoI7a3I9Zh+XK1fsdxDKHHHVyMW2m3Bp0/FCU/LRFyaY+6tXKOGeFez3xrt/8AV3sf1TzBeA9k9G7U0ZmHHDqo9Js/CL/D37OO0rhKp9G/cwWmb+r55UnlEuE5IjOcKSpt5SVccngwAAABJx8Snhn8b/lcrKrBcR8k2ztQdq6/EYV3m3XjPuuWKRZ82bCq47+X2eoMla3OuLs3DYdj90OW1o+kvWoEXifa0Vayv4m7G79DdhsiO0nG/JNk1VKS97nnrvqnVZBHdj/LVx8pqPA7B1imXvmct8/M5dcT7U8p+X8Ve9PWf5DH/wC9F/8Akm/+7gfyGP8A96L/APJN/wDdwRPfJJ0+6U9LtgT9O9cvIDbd49m4pkrlFsSdinWaFq7S2LIhMWbdvCp9tu9h8kczzKo1wxVsKj1NG9SqamSl85EiZB5r39YoAAM6Oh2pejm7NlysA7t9o9mdSqS8kY/AwXaOJaXrdv4FDnTH7Fi742kr+HlXZ4hWIVzRfSTYFdbx+PnzHLLmujx0PuTOMZ9E5ofNccocww3yZ5JluJZTT1uQ4xlOM6Hw2+xzI6C5hs2FTe0N3VbndjW9PKgSI78aTHdcZfZeQ60taFJ555z+Q6ar/wBolsD+7jjn/V8fyHTVf+0S2B/dxxz/AKvmsvyUenl8bXiswGsyzs/5Tdnc5dlcWbI11pXAOsmJZLt3YaYCvlypVHjsjeEWPVULcj+bdtrebXVaHv8Au3ExctSGFxAJfEVMqTxBXIdg8SHuIbktpDEp2Kl1XEdclll5xDMjlr2crShxaUq+PCVq4+/z8wBvc8THjo8cXkat8U0ntbyEbA6o9r8osJtZRa7zDRWK2WsNg2D1zLYxuk1ftZ/bkVFrlcqpXUJ+5FvBpp0qzlOwaZq29rbi5MH8h01X/tEtgf3ccc/6vj+Q6ar/ANolsD+7jjn/AFfH8h01X/tEtgf3ccc/6vkcTy3+Mbxy+M2xyXS+G+QzYvZntxR8w2LDUWG6CxeDhmv5jsiK9Ihbf2Txt55rGLbipVKUirrYtxbMyPpk2MGBGfTII/wAP3jpjqkMJluvMRVPNcSXo7CJUhljlaeHnGIzshlMh5Lfv5S2p1pK1J4Ty4jjn38S0vHH6cXpb5TMAtcz6seYiVPyHEmK1extRZv0U4xXbOt3LVK+YHOS4zz3CfZnVLzjTzbNrUTLOneeZcjNT+ZLLzLWyP8AkMf/AL0X/wCSb/7uB/IY/wD3ov8A8k3/AN3B55nHowdUaxdro+yvMnrzXr1w1JeqWc46t43ibto1DU0iY7XN3/cqPzNbZXIj8OKa4Vw3y+jhfw9/Hx6H/JE+rP8At2tAf7itdf8A1tj+SJ9Wf9u1oD/cVrr/AOtsfyRPqz/t2tAf7itdf/W2d+R6JtvJoSJmq/Knr/P0NpSua6jrLxFhRkSWvm1q0zMc7LXXvS/wl3njlaGuOEN+9Hzfv8Jxh2Z6KvyJ47GkTNX9iepGy0R2+F8Vlzd7U15fzVc8R08s17D2tbSvU5w45I555k2cVHy4/CuF8uL+SnUt2F9Ot5jut7dhPyjpPsPYWPwfmLRkOhZ2N71YmxmlL4VNYx3WVxY30SP7W+Vc8TKmK4lHHvWhPHPxNNWUYrk+EX9rieaY5fYhlNFKVBu8ayinsMfyCnmoQlaodrTWsdqRXSuELRzy282hfHC+Ofh984AAAAAAAAAAAAAAAAAAAAAAAAAAAAAAAAAAAAAAAAGY3QDuNsToP3A0T2s1pZzoVrqvOqiyyOqiPOIj5nr2ZJbgbCwK3ZQ4niXU3GIyLaE4lXPCmlym5LK2pMdh5u8qiS4s+LGnQZMebBmx2ZcOZEebkxZcWS2l6PJjSGVKQ/HcaWhaFo55SpKuFJ5545PoIb/rMO5ueaK6X6G6sYFcWGPcdxs8zlzYdnWvSYsm11Zo2FhVjeYS5KjOJ5Zr7PLNjYK7LR8f+9RKF6G4lcaTJQusnAAAAAAANxXjA8HXenypXUe00zhDOAaGiWT9fk3ZTaTVlSatr369zhuzqcVXHiOzdj5U1zwpvmDTsPtRn1NotplUy6l/iw48ePphPGl0ZjY7ludYC13B3vWNsSpWyd/1Ndd4bW3KOGVrk4LpRfD1BQR2pbDL8J+0RfXMJ5PLke4R+ClG77f3Yjr50707dbj7CbMwfSGnMHhx40zJcomM1FPE9rC26rHqCriNKkXd4+3GUzXVFXGkz5i2+I8KI857UEBjyXesj21mlheaz8ZWBx9S4a3zNr19jNv0FXkmz7z4pXHbssD1pO+ppMHhpX7nWXrtN9LktuNqcr6l5C2Vw1N9dlewfaTNpOx+x+6tnbwziSp74ZJs7M77MbCGw/y3yqBUc3U51FHUpSzHQ1DhoYistxm2mWUNtoRx4iAbAOmXlK79dALiFP6r9mtka8oY8xqXN1tKtf4W6ivPY+p59q51bljc2kfceS5IbVKahsz2kynFRpjDquHEzyPFh6vLr32Qscb035B8Yx/qrtq0ciVVbunHpc+R1uyu0e5bZRxkf3ZkyLLSkh2S6hKF2Eq3o0IZdkzr6sR7GCWbtbTeh+0WtH8E3LrfWW+NT5dBjWH8Hs6xzHc/w64izIvza26r2LWLJjqe+mkpehz43PDrXLiH4ryF+xZDO8nvo5tUZ5CyHa3jGzL/ACR5vx9TZu9adqXtndaqyBfx+cuBrzYs/iVb4BYq44e4Yi3KrmtffktM/X0MNtTnEAzsR1r311J2vkejuyWqsw05tbFHE/djDszreYM36V5TiIVxUzGnHIuR43L4ZcXCtK6RKrpzSfnQ5T7XwWeHAAAHpumdw7G6+7Y11u/UWT2GGbN1VmFFnOEZLWOKRKqchx2ezYQHlI+PtlQ1uM/KkxneFMSozzsaQhxl1xCrzPqzutjsp1j65di4tZ9xI2/tEah3XGpfetz7kR9qa+x7Omazlbn4S/kN3qWvir7/AD8r7/3z3gjo+qS7k7C6ceJzPZOrLiwxjN+yWy8P6uQctqHFs2uNUWeY7nGZ55JrZSOeOYEydr7XGVU6JKPg9G/hJ9RGWzKbYeaqNQAAAWVHov8Aujne4ernY7p/n97aZBG6rZZgeV6ml28t6a9U623MzmCJ+CVi3PjzHo6jMcDtJzDa1fgc7CWzH/mGEtszUAUfPk17o515Ae8XYbs/m1/ZXMPNthZBD1pXTpPDsXDNOUFpMrNW4VTxml8sQoMHEWa/5306UJmWEqdZv/MmT5LzuBoAPtrrGwqLCDbVM6ZWWtZMj2NbZV0h6FYV1hCeRJhzoMyMtLkSWzIabcadbUlba2+Fo54VxxyXRng+7gZX3q8WvUjsTsKwkWuzLnBrXBNl281XC7C/zrUWXZDq27yyxcQjhtdheKxFm8e+Xx7EryLlHwQpCm0bXzW75eu22QdF/Gp3A7RYc+mFnOuNUvQNeWS2Iktum2Tse/o9V65vnYc9CmJ7EDN82oJi47qVIkIg8sqQrhft5pQL++vMqvbrKMmt7K/yPI7axvshvrmbIsri7u7iY9YWtva2Mtxbs+ykz5D7z7zq1OOuvLWtXKlc8nEAAGe3jH7tZv49u8PX/tFhtxOrq/Cs6pq/ZtVFdd4jZjpzIbGJWbPw+yipd4RNZlYq7OXF+bwtMWygwLBCPqIbKk3gQK8T1xf40vHZ+QHY/wDWLT5BCAOYochv8Vtol9i95cY3eV7nzoFzQ2c2ntYLvH9DkOxr323ozn/9SFp5NwnU/wBQN5bOn86u4wTuBsTZOIwPkNO657DTXd64dLro60Lbp4y8/elW2LV/4CeP/wABtal5KPihDyUcqTzMi8cXrFOse97Gh1p3714nqdntgmPCb3FiUi4zHr3cWzjjLHH3ZhOsv5Bqll599PDXMrm/rI7bLr9lewWuOOST1uvq50g8hGs6V7dWn9CdqNa5LRx5uF5lZU+LZ2wuin88zIlxrjZdOpyZTx3uHHFtTqOyjqcRIX7HuUOL90SbyC+jD09mEW6zrxxblstQ5Kll+XG0NvWwtc01pZSOFLW1XYxtOMw/kOGM8M8JSji3jZQp55X87OhtcqWiCf3A6P8AanoXtOVp7thpjLtQ5khc1ynXeREScZzKsgvoYevsCzKsceq83oeHHWeFSq2XIbaW9wy/8l/3NJxQAAAAAAAAAAAAAAAAAAAAAAAAAAAAAAAAAAAAAAAL7nVH4rda/kBh36u1x38gB+uc/wBV1+mz/wAo5ADAAAAAABOF8CHpcn990uEdz/JHQWlHpy5j1uU6d6uvOWVDlW0Kx5XEuszTcTzXyJWK67kxuI71bSx3G7O8ZlJlznq2rSyxdWKGJYjiuA4xQ4Tg2NUOG4dilTBocYxTF6mBRY5j1JWMIi11RSUtWw1Hq61iM2220wy2httCOEoTxwa//J95RutHio6+vbu7AW0iyvr9yypdPaexyRE/h9uHMoERqQ7TY+xJV7KvH4fEuvcu7uQnmFURpzPvTJnzK2un1Jnks8qHbTyn7mc2p2RzJSMbpHprGrNK4u9Or9UajpJa+Pmw8Vx96S59ZfSUNs/dO8nKkW1kqOy09JTBiQIUPW6AAASa/Bp6jDdvjNyDHNDb8lZJuvo3ZWEeA7ibsxU/N9ApsLFC52WaikzeVczcfbS/MkTsUdcahS3Fcv1r9ZMXJVPtRNQbf1lv7WWD7n0xnGP7I1ZsjH4WUYTm2LzUz6W/pZ6eeWpMZ3jjhbEhDqHmJMZ9DUqHKivRJbLMll5lGGPkj8XPU7yjaXmam7I4RHcvq6HPVrDcmOxYULamor6U3+Ba4hkbjClO1bkhEdU+ml8PVVmmOj6qMp5mNIj1MXlT8TfZnxO74d1Xu6q/hBrzKZFvP0jvShhPN4PtzFa6UlvmRG+LrvONZpEYkQeLmglOql1rsxpxtybVyq6znauwAAC758Tv2WXjT/MA6b/u665M/wAiBetW+yy0H+f/AKs/d17VFYIAAACd76HT8aXkT/IDrh+sW4Cw7BQDgAAtu/SgfYldcfy/7EftxzgkemgH1R32FHeX9Gb98Pr6VAoAABf8ArxPXF/jS8dn5Adj/wBYtPkEIAAG6zxHecztz4nc6hwsMuZm2OsdzacSdh9ZcwuZXGJTUyX1Ln5HrizdakL1jnnwdeXzMgtKhWC/l8XVfZcMxlRrX7ob3263+R3rzjHZPrJl6shw68UqsyDHbdESvzrWuYxWGHrfAdjY7FnSf4P5VD4kMKUlDz8SZGlR7Gtlza2VFmPehdpepXXLupqK80Z2h1Lie4NZX3887R5NDXzKp7Ntp1mLkOKX8J1qww/KGG33kx7OslRJrKX3EIf4bdcQusP84npu90+M2Re9g+vL2Vb66SPTkrl5E/BTY7N0LxMWtMev2/Go4DTFhiPLvDbMbK40aJB5fkNQrSLWynoKrKMGAAAAAAAAAAAAAAAAAAAAAAAAAAAAAAAAAAAAAAC+51R+K3Wv5AYd+rtcd/IAfrnP9V1+mz/yjkAMAAAAAAnO+l+9P/Sbqj4t5Je7eDN2urodom06qaVymKlddseypZikf5adgUMuPymw1/GtI6kY5WyOeG7qVXu2syO5SIrfuzYtmK/dPuJpToX1p2f2m39f/cTXusqNc9cOKqOvIMwyKWriJjGB4hAkPITZ5ZcXLsWHDa5WhpCn1SZT0eFHkyWaa3yT+Rnf/k87O5d2Q3vcvITLekU+sdbwZ0l/D9Qa5YlOu0eD4nEe54SlKG1JesZvy0P2tlIkz5PHC3ktt4AgAAAEoT03nnIuPG5u6B1t7B5PKkdHN45Uw1eSbGTy7H687Fuvp6+Htup4cbUpvDZLrNfGyqEhaEohpTexkOTK12HaWtkSXFnxY06DJjzYM2OzLhzIjzcmLLiyW0vR5MaQypSH47jS0LQtHPKVJVwpPPPHJh5306K6C8jHWnOur/YvHlW+HZayidRZBXfJj5brjOK1p/8AgzsPBrV1pX3Lyaukvu+34pXHmxZUqtnsya2dMivU23kV6B7u8anavYXVjecH5lxi0hNthObQoT0TGtq61tn5X8EdkYpy645x9y58aM8iRH4eecrLOBPqJS/rIEhPGDYAALvnxO/ZZeNP8wDpv+7rrkz/ACIF61b7LLQf5/8Aqz93XtUVggAAAJ3vodPxpeRP8gOuH6xbgLDsFAOAAC279KB9iV1x/L/sR+3HOCR6aAfVHfYUd5f0Zv3w+vpUCgAAF/wCvE9cX+NLx2fkB2P/AFi0+QQgAADZx4qfKb2E8UnZOn3Zp2yfu8DvZFVT700tYTnmcR3BgMaapyRWTm/gpFRmEJmTOeoLtttciqmSVpUiVWzLOtn3GHUftbpfu5131h2e6/ZO1lWr9q4+1dU8laW2LalsGXXIOQYlk1e2659ycsqLyNYV9lF5WvhmXXucNuPM8tvL97vKOmyamt8bySoq8gxzIKuwo7+gvK+JbUt5S20R2BaVFvVz2nGLKrkwZEhmRHebW0808ttxCkKUnmrm9SJ4BF+O7K5Pb/qfj9nO6UbEyRqHlWKM/Ps3+sme5FMWmsx+VJWtb7uo7Wc4liisZPKvudOeZx+wkKkSaZ60iagAAAAAAAAAAAAAAAAAAAAAAAAAAAAAAAAAAAAAF9zqj8VutfyAw79Xa47+QA/XOf6rr9Nn/lHIAYAAAAAN3HgT8Vk/yq94sd19lcSxZ62adjwdodlb2E8/Cdfw6NO5Zx/W9ZYMKSqNkGVXsf7noW041Ii1UW4tIylPVqWl3E+PY9Q4lQUeKYtTVeOYzjNPWY/jePUcCNV0tDQ0sJitqKanrITSGa6ri18aOxHYZQhplllDaEJQnjg5kqtvVQ+Wad3b7eT+o+pcmck9X+n+UXGNv/cySv7j7O7BV3Eii2Bm8jlv2otKuie+6GOUbnPzWuEx7iyhPuRrtHtioAAAAAFm16SLyySuzvXq18fu7snTYbu6s47En6ctLWYnm1z3re07EqIVJ8HeeVT7bCrWTBrFL45TyqivKNpLS1182S5MeI9/qLvEpX+TvpbZ3musfTJ7bda4N/sHQ0yDH5Va5vXcxGZOd6SkexHPMxnIK6siuVKOeOFs5DS1nteYhybJL9Q48y7HddYfacZfZcWy8y8hTbzLzauUONOtr44U24laVcKTzxxzxzx8OT8gAC758Tv2WXjT/MA6b/u665M/yIF61b7LLQf5/wDqz93XtUVggAAAJ3vodPxpeRP8gOuH6xbgLDsFAOAAC279KB9iV1x/L/sR+3HOCR6aAfVHfYUd5f0Zv3w+vpUCgAAF/wAArxPXF/jS8dn5Adj/ANYtPkEIAAAEqz0s/lzndHO2UHqRuHKlROqnbbKqykQu2mIZpNVb/tEQaHCdgpfkK+XVU119PV49fucqaZ4bcqLSY8iPSL99qYec7d1LrjfWsM+0vt7EqnO9Y7PxW5wvOcQvGeXq29x29huQbCE77FJcjPfKc97MhlbciM+23JjOtPtNuIplvMN41M18WHdzYfXC5dsrzW9glOwdBZ5YMoS5nGnMjnT28dkzXmW0NryasmQbKluOEIaSqyx9+SyyiHJicr1bAAAAAAAAAAAAAAAAAAAAAAAAAAAAAAAAAAAAAAvudUfit1r+QGHfq7XHfyAH65z/AFXX6bP/ACjkAMAAAAAFwZ6cXx3RPHz40tVxcjpkwd6dk4tb2H3bJfjcNWkCwzSnhvYFgMnlfHLsZnHsAVSxn4ilqbau515JZSj6xaTfYaVfP95CXPHJ41dzbQxS9+4u7tpNtaI0A6w5wmxhbF2FBsW5mXQPg9wpiRjuEQMsvY73KHGeLCigR3kcpkpSqm0WtTilLWpS1rUpa1rVypalq55UpSlK5+Klc88/Hnnn7/PJ/AAAAABmV4+u5Gc9Ae4+g+2uv3JT1lqLOoFrkFFGe+SnMcAs0O0excHk8qXwj5NvhNleQUrX95h6Y1KR8HWG1pu9tZbGw7cOuMA21rq6j5Jr/Z+F4vsHCMhiJcTGvMSzKkg5Djtswh1KVttyKmxiO8JWlK0/N+C08K454O8FTj6qPx0RekXkWsdua9xtui0V3Rr7jceJNV8VuLR0e1IE+LE3lh1ey0hKWfbkFtR5Fw0hCWGGNmMRGPwIykIjKgAF3z4nfssvGn+YB03/AHddcmf5EC9at9lloP8AP/1Z+7r2qKwQAAAE730On40vIn+QHXD9YtwFh2CgHAABbd+lA+xK64/l/wBiP245wSPTQD6o77CjvL+jN++H19KgUAAAv+AV4nri/wAaXjs/IDsf+sWnyCEAAAD+0LU2pK0KUhaFJWhaFcpWlaeeFJUlSefilXHPHx454+/xyXFfp5fIpO8jnjY1Znmd3v3c31paQ7oTfMuQ8t20usuwivr147nlip1KVSZmRYHPxm0myEI4YXcSrVhj8GMpKd5RGf8AVLeOBHeLx1X+3sHo02G+ulSch3Zha4sfhy0yDVqa6OremCsq44UtxLuKU8HII7TaHJEmx1zDgx+E/WufGpnAAAAAAAAAAAAAAAAAAAAAAAAAAAAAAAAAAAAABfc6o/FbrX8gMO/V2uO/kAP1zn+q6/TZ/wCUcgBgAAAAG1bwmdNove/yedTuv9/UpudeP7Ca2PtyFIYU/Wy9WamhydhZfSW3KFccsQbqLj7NBw5xzxzw/lTPCfwueC6iBWM+sq7mvbg746x6f49b/UYZ1G1nGtsrr47zyW+dz7vi1WW26ZyG3PlTeIesIOr+IilJ5diu3tq0nlHzneOYdoAAAAABanekR7nP9jvGS7oXJ7f7o570v2JY6yQ0+8/Jsl6izniVneqbCa686r4R2ZcnPKCC2nhKWYGvYzSU/e+PMqojo+qM6VsduvE9t/K6ap+v2V1KmxezOFPsRVuzecew6NKr9v1qpDSuFtVXOqrXKLR1v2uNuysQgKWhPLSHmajUAAu+fE79ll40/wAwDpv+7rrkz/IgXrVvsstB/n/6s/d17VFYIAAACd76HT8aXkT/ACA64frFuAsOwUA4AALbv0oH2JXXH8v+xH7cc4JHpoB9Ud9hR3l/Rm/fD6+lQKAAAX/AK8T1xf40vHZ+QHY/9YtPkEIAAAAlr+j27oO6E8jeRdX7+1+kwTufrudj8KI+8pqGjcGooN5nuAzluL+LbS3sTVs6rbTz7FSJeQQmUrU58ttdpCfPLiRZ8WTBnRo82DNjvRJkOWy3Jiy4sltTMiNJjvJUh+O40taFoXxylSVcpVxzxyUkPlj6cOdBvIj2q6tR4z0fFdf7On2WtFO/NXy9qXPYcLYGrvjKc+9OlMYLk9HEluo55T9dXym+fattaE67QAAAAAAAAAAAAAAAAAAAAAAAAAAAAAAAAAAAAC+51R+K3Wv5AYd+rtcd/IAfrnP9V1+mz/yjkAMAAAAAnU+iM65t3G6O6/bGyhfewDXGAaExKY8ypbT8zZ+RTM9zbmEvlPKW5kSFq7C0OK4+DnDWTexP4DrnHNiefhIkR4kd+XLfZjRIzLsiTJkOoZjx47KFOPPvvOK4S0yltKlKUrnhKUp5555+BRd95+xU7t13L7Q9mpsiQ83u/emythUrcpC23K3E77KbKRhdEltxPC22K7EeKWA0lz4u8NVqEuKW57lc4pAAAAAAEu30anZV3Vvkp2J16n2Pycf7S6FyOHX1v1C2kz9j6YlI2Jjcnhn4cplOR9f87c44T8OFpTOWtK+EpWhy0LOAynGKHNsZyPDMrqot7i2XUNvjGS0k5Klwrigv6+RVXFVMQhXHKosiulyGXOOOeOeUPc/Dngoqe2Ohrbq52g7D9brxUp6y0TunZep3pkxKEv2bOCZhcY5Cufi22hDjM2DXRpbTjaUtutTEON8exaTHwAF3z4nfssvGn+YB03/d11yZ/kQL1q32WWg/z/8AVn7uvaorBAAAATvfQ6fjS8if5AdcP1i3AWHYKAcAAFt36UD7Errj+X/Yj9uOcEj00A+qO+wo7y/ozfvh9fSoFAAAL/gFeJ64v8aXjs/IDsf+sWnyCEAAAAe/9VN9X/VrszoDsji65XF5ovcWu9qQ2IbiUO2KcJyqrv5lOv5i0oeizoMKVDfac5+U8xOcad+LS18F7FQ3tTlFHS5LQTmbSiyKprr2kso/v4j2NTbQ2Z9bOY+YlKvkvQ5DLifcnjn2ucfHjjk5crfvWy9bGcT7P9Re1tVBS1H3NqLLdQZTIjp+CF5LpXJImQU8+w5//fpeN7WbitK/87GH+373yfvwiAAAAAAAAAAAAAAAAAAAAAAAAAAAAAAAAAAAAAC+51R+K3Wv5AYd+rtcd/IAfrnP9V1+mz/yjkAMAAAAAtP/AEc+pGMB8S9rn64//f8AefZ/bOb/AFi/k8uOVGK1GE6qr4Tamk8K4hs2eB3zqEue5fD1lIXxz7Fo4TK5NeHls3G7oHxi989rw5X0NvjfVfcsPGpvvUn6TMMrwy0w7DJPxRx8VezKr+nV7eOU8r9vt96Pj700iwAAAAAANo3hO28/o7y1ePjP2pSoTK+0GssBtJieeEpjUG4bhGockfe59/HwipoM6suXvh8eflcL+CF8/gKusgVJPqutGo015m9338SF9z6nf+u9O7yq46U8pYWuww1jWmSTWOVffX9Vm2scolO88888fUTHkp+COEoTG9ABd8+J37LLxp/mAdN/3ddcmf5EC9at9lloP8//AFZ+7r2qKwQAAAE730On40vIn+QHXD9YtwFh2CgHAABbd+lA+xK64/l/2I/bjnBI9NAPqjvsKO8v6M374fX0qBQAAC/4BXieuL/Gl47PyA7H/rFp8ghAAAAAur/CVuB3e3iV8fmw5UhMufz1l13gdpN45kcuTbjUNerUdzNkqlJ4Uuc9a4PMdkK44+Wp95xTP8zyg2kkSj1lWnWs88WOEbOjQUuWui+0uucgk2fEVx56LiecYtnevbeD89tHPEOLIya/wdxa18pQpyrZb+PvWhPNW8AAAAAAAAAAAAAAAAAAAAAAAAAAAAAAAAAAAAAX3OqPxW61/IDDv1drjv5AD9c5/quv02f+UcgBgAAAAFxn6bfDf4C+ErobT8sqZVY4LsXMl8LfZkLc/wAoO8toZ22981hPHHtUzkTfKEc/FbTfKGVq5W3ybxSPL6p7N1Yd4Re2UJiQ3GmZ3eaCwiK6qc1Ee5TL7Aa1v7SPGYcbVzZOPUOO2zLjCOUL4jyHn/d7WFJ5qIQAAAAAAehamzRzW+09abDaW429gWwMNzRtxlpL7qHMWyOtvELaYU6jh9zhUBPKUcrTwrn73uT/AEl9sCuS9b5rNFV2U6Kbi4ipQ5nmjtqa0VO4b44XIRqbPaTKURVO8cfFaWVbpcXwn4/BPM7lX/n5IOgALvnxO/ZZeNP8wDpv+7rrkz/IgXrVvsstB/n/AOrP3de1RWCAAAAne+h0/Gl5E/yA64frFuAsOwUA4AALbv0oH2JXXH8v+xH7cc4JHpoB9Ud9hR3l/Rm/fD6+lQKAAAX/AACvE9cX+NLx2fkB2P8A1i0+QQgAAAAW1HpMsxkZP4VdFUj/ACrlvXe0OwWHQ+OXGV8JjTts5HsBXCEtNp5ZT9VnUrn2ucrXzypS+F/LWhCJKBol9S9hLedeEfvLAVEckyqLG9U5tBcYjJlSITuE761ZksyWzwrjnlhv7kV1k1Id4+HKIsiQr+j4lPCAAAAAAAAAAAAAAAAAAAAAAAAAAAAAAAAAAAAAX3OqPxW61/IDDv1drjv5AD9c5/quv02f+UcgBgAAAAF034MKRGPeIHx2wESVSvqOruuLzl1TfDXKV5PXLyVyNwnhavilldspnhXx+K+GOF88J+Pt42ukWb1g941U+HyfAcYdeXk/ZvSFGw42pKUxXY7GaZJy+/wr762uWMeea44T9/3yEc/5vHJVQAAAAAAAF+FrWbMstdYDY2El6ZPsMKxWbNlyFqdkSpcujgPyZL7vPPxcececWpSufv8AKlc8ndiCz64TF48vR/j+zRXEXmVQbW3pi7PK4iFzeI+X4hr61k8R5vPPujxeXMIi/Oa449ry+GFq+/HQV1oALvnxO/ZZeNP8wDpv+7rrkz/IgXrVvsstB/n/AOrP3de1RWCAAAAne+h0/Gl5E/yA64frFuAsOwUA4AALbv0oH2JXXH8v+xH7cc4JHpoB9Ud9hR3l/Rm/fD6+lQKAAAX/AACvE9cX+NLx2fkB2P8A1i0+QQgAAAAWnfo2/sj8j/O/3L+pOoCV6akfPHWyLXw7eQ2LGXHbca635dZKVJkIjt8sUz9dcSkJcc+8qQqLBdSyj/OddUhpP4S+Cl1AAAAAAAAAAAAAAAAAAAAAAAAAAAAAAAAAAAAAL7nVH4rda/kBh36u1x38gB+uc/1XX6bP/KOQAwAAAAC578Bdou38N/j2lLsVWfLXX2jrOJKpfM3ltFJc3lMiv4e5cXyhMREBMThr48cR+IfDHCUfK9nG30jG+rnqpdh4ZtjS40X6hmi3loW1nu/zXwgxHctdpESvw1cc/fnXMJj8DjlX/fP6PZ7+U1PIAAAAAABfs4tRoxjGccxpuQqYjHqGoo0S1tpZclIqa+PATIUylauGlL4j8K5TwpXCeVfD3c/0nPkF31wV+uPonoFi6WmeUXG2t33ynlOc8SW143h+CVyGmmv/ADsL4ytzlxX9KVMt8f8An5K6kAF3z4nfssvGn+YB03/d11yZ/kQL1q32WWg/z/8AVn7uvaorBAAAATvfQ6fjS8if5AdcP1i3AWHYKAcAAFt36UD7Errj+X/Yj9uOcEj00A+qO+wo7y/ozfvh9fSoFAAAL/gFeJ64v8aXjs/IDsf+sWnyCEAAAAC1O9HZTTazxCvzZSW+GMi7V7qua7lDnvUqExR64oFqeTxx/NO/dCjnccJ5/pQlC/8AzEqo06eoEsIVZ4Z/ILJnyG4rDui5Fehx3nnhKplvlmMVNdH4+HH3nHrGZFaR/wDqt7gpkgAAAAAAAAAAAAAAAAAAAAAAAAAAAAAAAAAAAAC+51R+K3Wv5AYd+rtcd/IAfrnP9V1+mz/yjkAMAAAAAt7vS4Z7HznwidQGOH23rHBZm9cDuUtfTcJjyKnf+zbKoY5bjyFqbc/gpc46tfzktOrW8p35fyltuOSCjRf6lPXTuzfCZ3np4sZMifjuI622LEd+Q2+7Da1ru3WmcXUln5ik/JVzjdFdNOLTz7ksSnfbwv4+xVOuAAAAAADIvqBgEna/bTq7q2E289M2V2K0ngERqN8/mQ7JzHZeM46w2xxGiyHeXlO2KeE/LYeX7lcexpzn4I5vbQV3frh8/i2O4PHpq1DjPM3Dtbdg8/kMp+R9QiLsrKNWY7Dcd4TL5c+Sp3VE7hv3sNo9zTny3nlfNRHglgAu+fE79ll40/zAOm/7uuuTP8iBetW+yy0H+f8A6s/d17VFYIAAACd76HT8aXkT/IDrh+sW4Cw7BQDgAAtu/SgfYldcfy/7EftxzgkemgH1R32FHeX9Gb98Pr6VAoAABf8AAK8T1xf40vHZ+QHY/wDWLT5BCAAAABb2elv16vAPCP1FelQ0wrPPZ28dhWLfEeO0t9u83xseDQTHnWOPjLU9iVPjziXHeeXEtuIZ/wAxlCeJBhHj9U9sBGC+EjtbAQ+qNYbEvtC6/rHU/DnnlczfGu8lt2OUqjrSvh3GcXvmufjy3ynh7laHeHEo4VURgAAAAAAAAAAAAAAAAAAAAAAAAAAAAAAAAAAAAF9zqj8VutfyAw79Xa47+QA/XOf6rr9Nn/lHIAYAAAABZoeir3Q3lvj+7HaQkyvn2umu0EnKIzPLvKuYWJbd17ii6iPw0pXPy21ZRgOdO8c8fBKlSF/e9yVcqmUGMPdfSauyfTrtV18bbS5K3Z133Nq2t5U0h1TFxnGvMhx2lmsoX976pi2sIb7PP3va7HQrjnjlJRVPMux3XWH2nGX2XFsvMvIU28y82rlDjTra+OFNuJWlXCk88cc8c8fDk/IAAAAAA3aenS0k7vfzN9Gce5htya7B9l2e7bZ99CnI1c1o/Dck2hTy3uEfHlDisrxfHo0dXw544lWDHK/aj3KTciAqkfV7bta2n5g8jwSNLcfjdc+v+mNRvMcL45iM2t7Cut4zlspb59qpHMfcFe08vn+c90FLK+fgwhCIuoALvnxO/ZZeNP8AMA6b/u665M/yIF61b7LLQf5/+rP3de1RWCAAAAne+h0/Gl5E/wAgOuH6xbgLDsFAOAAC279KB9iV1x/L/sR+3HOCR6aAfVHfYUd5f0Zv3w+vpUCgAAF/wCvE9cX+NLx2fkB2P/WLT5BCAAAABeOeNbSDnW3x9dLNFymPp7fWnWTTGOZMj5PEb35k3gdJLzWR9Nxx8WPm5ZKunfYrlS0/O9q1rX7lqzcIWfrZN0tYz0l6m6DZlx2LLb3ZS42K5H59vMubj2k9dW9PZtNcLX+DDRebjxVx5SUe7hxlhPzEIWtD1amAAAAAAAAAAAAAAAAAAAAAAAAAAAAAAAAAAAAAX3OqPxW61/IDDv1drjv5AD9c5/quv02f+UcgBgAAAAEwr0Y3ZtjV/kN3D1tt7FuHU9ptDzZNBEU6tLlts3Rdk7mdFDbY9/CHfZrW83FJ5VzwpxHEH8D4IW6WdwKUfzQ9XJPTryi90tH8VjlVjsHdeS57r+P9PyxFTrTbi2tpYDHgOJ55RMjw8Zy6vr1ut8+36mpfaWlp5txlvV+AAAAAATh/RM9YpGS9je3Pb61rFc0+qdU41ozEp0phfMaRle28iay7Jn6l7lv282VbjWs61iT8FcLbj580n4KTI55TY4nyTp0KrhTLKymRa+vr4sidYWE6Q1EhQYURpb8qZMlPrS3GitMNuLccWpKEIb5Urnjjgo1fIL2Oc7ed4e1/ZfiS9Lrdzb62VmmLqkcOpdjYPOyeezgFXyl5PC+Ew8IjUERPCuEq4TC4+PCefvGHgALvTxMutPeLDxqLZdbdRx0F6etcqaWlxPDrHXrXjD7XKk888cOIebcQtP8ASlbakq+/xybBCIF61b7LLQf5/wDqz93XtUVggAAAJ3vodPxpeRP8gOuH6xbgLDsFAOAAC279KB9iV1x/L/sR+3HOCR6aAfVHfYUd5f0Zv3w+vpUCgAAF/wAArxPXF/jS8dn5Adj/ANYtPkEIAAAA2BeKrq673P8AIt0762qqnrmi2HvLDnM8hMs8PLVqzDpnOd7XfUhSVJ4S1rfGcoc+K+OUcct/h/FP3i72BVs+sY7QR9x+TnFtC0djxKoOp2i8VxS5h8OcOsxdobTkP7Qyt9hxCvbx7sGttUxnUcccrbkUzyFr93821EtAAAAAAAAAAAAAAAAAAAAAAAAAAAAAAAAAAAAAL7nVH4rda/kBh36u1x38gB+uc/1XX6bP/KOQAwAAAADK/ov2lyTpP3B659rcVTKkWejtrYtm06shufKfyHFY03iFnOJ+/wCpZ44ZuMKm5BVu/F1vjlq3XxytHHxUXjmBZzimzsGwzZWB3UPJcH2FieO5xhmRVy+XK+/xTLKeJf47dQXOeOPmQ5VRYQ32lfDj4okJ5O2lfH61vpNJi5L1f8gmKU7i6+4q5nWLcc6LH9rEK1qH7nPtOW07lpfPzZE2vn7MgPSXG0fLRjdVGU858yO03AjAAAAAALhn03nSeT0j8UGgceySndpdnb7bmdndoRZMfmLYRrnbMGpfw6psYzi1OQrGv1RUa+hS4zvscYnQpaXGWXeXG073zRH6j/uxD6UeKHsPaV10mq2Z2DqV9Y9VsMvJasXrjbVdZVuaWkBaeOXIj1ZquNnVg1KRxx8mbBhoS4088ysp4wAC6U8FGTwsu8PnjwtYHLPLETrLgWLr+RLamo+twhmThdilTzPHHCHuLGglcONc/hsOe9hz8NtRtkIgnrU0LV4sdDKSlSkt9/NWLc54TzzwhHPXjtO3wpfPHH4KeVrQn48/+KuOP/ErAgAAATyvQ41s53YHkduG2FKrYOHdYK2XK4U3wlmba3W9JNfHUjlfuUp1ims1cc8J5TxxF593KeeUe6wuPPNt5bzgGqtm53w8qPzhWvszy3iQiOiWtjnG8csrnh5MVzjlMlSfovdw3zxzwvlPt5/pKEoAAFt36UD7Errj+X/Yj9uOcEj00A+qO+wo7y/ozfvh9fSoFAAAL/gFeJ64v8aXjs/IDsf+sWnyCEAAAATpfRW9IJOT7d7H+QPK6dase1hj6eumoJ0ln4xJews0bqcr2jbV7vHHHLVpTYKxicBXPx5QuPtaQn28rRwpFimeZbn27gugdR7N3hs+4boNd6hwPKtj5tcOcsccwcZw6lmX1w6wh95tL8zmFBeSw1708vPOIZRz71pKNHtR2Byztd2U3v2Xznj5WVb12xnW0LaCmQuTHp15jkU+6i4/AecTxzzV10CVFgRE/DjhEauaRxxxwnjg8CAAAAAAAAAAAAAAAAAAAAAAAAAAAAAAAAAAAAAL7nVH4rda/kBh36u1x38gB+uc/wBV1+mz/wAo5ADAAAAABZ8+kK8kqeyfTi/6PbGyFMvcHThMdWBIsJfC7TJut2Sz1JxpcZLq+XJicUyh+VRP8o44ZhVdpjEb/OcJf5hL5GOlmFeQrpbv7qNm64sFjbGEyomJ5JJZW9xhWyaN9jI9a5qnhlHLqma3NqqjkymWeULmQW5UHlfypTnHNJFtbVue6Q2bn+nNpY3YYfsfV+YZDgecYvaNctT6PKMXtJNNc1z/AB/Q58udEe4S4jlTbqPa60pba0q58+AAAAAN03gQ8b8jyXeRTVOr8mo3rPQurHmt19jJLkda6uRrfC7GC5EwaY9zxwhT2U5W/R0KmUuolcV1rZz43Cvua77bkxppqO00ww02ywy2hpllpCW2mmm08IbaabRxwlttKEp4Snjjjjjjj4cH7FU36rfyVRe6ffj/ALO+tcgTa6I6SJyHWkORBdUqsyrelpLhp3TkrS+Pb9ZFrp9LS4xF5WlaEu4XZTILy4tr71xawAC2Q9JLu5nbHhs1lhfM1Uuz67bh3Zpyx+fK5kym0WOWc7op0OcL/Dait0u3q+PHTzzylLUDhpvnhDfCESaCPP6pDQU/fHhl7IyaWG9YX2jrnW2/ayIy37+VQMHy+DVZvMc54bVy2zE1tlOaTVK4+H3q34KVwhSuSofAAABZheir0DLwfot2W7C2dcqDI352GhYnSSHWlIXcYbo/D47EGzZc5Txw9BTmWxs+hp+HPPtfqZPHPCf/ABmbGrbzaboh6B8S3kD2NLms1ziusuxdd1E17hKksZPumvTpnEeWkL/BXK5ynP6dLKVcKQp5SErQtPxRzSoAAAtu/SgfYldcfy/7EftxzgkemgH1R32FHeX9Gb98Pr6VAoAABf8AAK8T1xf40vHZ+QHY/wDWLT5BCAAAB3nWWt843HsXA9S6zx2wy/YuzMwxzAsExaqb4dssiy3LbeJQ4/TQkLVwn6iRaTorSeVKShPLnuWpKOOVcXZ3jO6PYd46OkWhepmI/QzJeusRYf2Fk0FnltOcbYyNar7ZWYrW62l52LLyudYcQEP8qdi1cWBA93y4jfHGeJCT9Yp5NYuq9D4f42dXZD7di7/+4+xt/uVkpvl7HNI45cLlYph09TD3DsGwybOqeJLWj48c81GEyGJLa4l01yutzAAAAAAAAAAAAAAAAAAAAAAAAAAAAAAAAAAAAABfc6o/FbrX8gMO/V2uO/kAP1zn+q6/TZ/5RyAGAAAAADNTx694tr+OftxqLtnqB36m91zecpyTFH5aolRsbXlyj7m51ry9c4ZdSivtKB6U01I5ZeXXzm4dpGR9ZBjLRdKdR+1mme7fXbVvZ/QOSoyfWO18bjX1Q8tUZFvRWCeVRb/DsqhRZLyKnL6e7YnVtpE4dc4Ym1zyEOPNex1eSBAW9Xj4erC4548q3XzF+Zb1fW0mKdxcZpIfvlLr65EShwXfSIkaPyuSmNB4r6DJHffz8iHBorDhlDEe5mor8AAAAAczj2PX2XX9HimLU1pkeT5PcVmP43jtHAk2l1fX11NYraimp6yE2t6xtJVhJjsR2GkLdedeQ2hKlq44LhLwD+Jur8U/S2qxbMa6td7R7wVT7F7K5BEdiT+a+/RBeTi2p6y0h8qRMx3FKyynRuFtOvsSbm2u7GM8qLOjob3mkcb1HnmKrPGV1Ona01JlceP3R7I0dpjmoIdbLaXeapwuT9RWZXvqxjJ+PMD6FKZUDG1Pe36vIXkSGWpkSkuGmqkV552Q66++648+84t5555anHnnnFcrcddcXzypxxS1K5Urnnnnnnn48n5AAE4v0U3cCBhu++0fSTJ7VMdndeG49uzVsWU98theaapXOpc9pq1lKP5+2ssJyepsF8KVxwmJrF5Sfv8Au+NjadG2brrENwa22FqTYNU3fYFtLB8s11m9G8tSGrrEM3oZ+M5LVOqR+ElEmms5jKuePv8AHD33ijp7u9Uc96O9s999UNktSP4T6T2JdYkizficwE5RjPDiLLCM4hROXV/Jq73C59DcRU8rVymPdNpXz7+FcGKwAAO04PhWVbKzTEddYHRWGU5xn2UUGFYZjFS1w/a5HleVW0Oix2hrI/KuPnWEy3nw47KPjx7nJCePiXfPjn6g0fQvpB1p6k0TkWUrTOsaelyi1hNoZiZBsa5dlZVtDJorSUJ5bi2Wxb7KJzSF+9xtqwQhbrq0cuLzWIVfrR+4kHX/AFI0H0qoLZtOX9hdmf5Us4ro7qFvsan08ypNZGtI/CuFR49nsy/x+RCc5454dXrmchP/ALNfwrWwAAW3fpQPsSuuP5f9iP245wSPTQD6o77CjvL+jN++H19KgUAAAv8AgFeJ64v8aXjs/IDsf+sWnyCEAAACwV9I34a7Ch+n8qnY7E3Icyyq7Sj6b4nexEofbqbeO/U5X2BehvJ97P1da9YUuMKc9vzIU63teGVsyaSaT4zBHyO+QPSXjP6o7C7SbusGXYeORfuRr/A49hGhZJtnZ1rHk/wS1ziqHkrW5OmSY7z0yQhl9NXVVthbSG1RYDxS9drez23e53YjbPZ7et//AAj2juHLJeU5JMaS6zXV7ammYFHjNBEefcVXYvUY/Cq6uri8uOcxq+njs8rXyjlasegAAAAAAAAAAAAAAAAAAAAAAAAAAAAAAAAAAAAAX3OqPxW61/IDDv1drjv5AD9c5/quv02f+UcgBgAA3ceEnwwbd8ufYFNTz/CDX3VXWlhDl793hEr21JhM8pamRtZ4A/Yt8xrPaFrFUjhrhSJDFLCeVcWLDyOINfZ48+ZDTWsuvPk67j6O0ziNbgWrNW7V5wzBcRqeZC4VHj1LjOPxocbiRMfdkT5SuEqckSpLr0qXIedkyXnpDzji9ZoABIO8CPnHznxKbmm4hn7N5nvTDcV5Ae2/r+udVKuMDv8AluNWNbl1rBfeS1zlEatYjMWtf7mm76tgsxnXG5kKskxLaHUG39Zb+1lg+59MZxj+yNWbIx+FlGE5ti81M+lv6WennlqTGd444WxIQ6h5iTGfQ1Khyor0SWyzJZeZR3DIceoctoLzFMppqvI8Zyans8fyTHryBGtKW+obqE/W29NcVk1pbNjVyq+TIYkMPIW08y8ttaFIVzwVRvqFfArmnjJ2nbdgtBY/dZR0P2ZkXCqG0bW9cWXX7LLx/lzjWGePojpWzijs5xbeL3D3K+JDHyqmxkKtmmn7SMkAAAD+0IU4pKEJUta1JQhCE8qWpaueEpSlKePipXPPPw444+/zyWQ/pk/T5WfW9vGfIh3fwhVdvq1rW7PrbpPJYn/fdL0dxBcQrZ2waaZG+MHbU6ule2prXOeHcahSnH5yE38lDFBNuNVHlo8tfXbxMde5e09rTI+W7VyqPY1ui9DVVrHiZftTKo7PHHzHPih1eOa/gPPRnLu9dYcYhMuIjx2plrLr66ZT99w+3m8u9fYrZHZ7sRlTmVbL2TcKnS/kpdjUWMUkbj6fHcIw6qW85xS4fU1SI8OBG4W45w1H+dJekzHpMl7GIAAGSPUDtBsfpZ2d0h2o1LL+nzzSGwKXNqqKuQ7GhX8CI4uJk2HW7zCeXE4/eYtNuqax4R+GuBeSUI54Urjkuz+nfa/UXeHrVqLtNo67budd7exOHkNehTrS7LHbdCnIGUYVkTbPPKYuUUeSxLWqsWuOeUIl1L3yluM8tuLyYIanqxvDradqtQ1/kH67YhKu9+9ecV5pN1Ynj0Nb9ts7QVY/NtOMlh18VrlVpl+HSZthKV7U/US8dnTkLce5p6qGqsyAABOv9It4eLbLc4ieVPf+NPRMHwd6/wAf6jY9cw3m/wCF+b8tS8cy3dfyJLfDcrGaRh64p6Rz4OpfvXJ85vmM9QRXJNiSdSzzOsO1fhGXbI2HktPhuB4FjdzmGZ5bkE1quo8axjHa+RbXl5bTn1cJiV8WuiyHnVq5+CUM8lLv5ifInfeT/vpt7s2+m0rdc8yI+vNDYrar/wC84rpTC3pkbEY8mN7lcV9xaSZdtkFpHQt1ti2zCcyy84w20o1eAAAtu/SgfYldcfy/7EftxzgkemgH1R32FHeX9Gb98Pr6VAoAABf8ArxPXF/jS8dn5Adj/wBYtPkEIAAAlh+nh9PLlXkIyzHe2/bLH7jEukOHXjU3HMdnMyau87R5BSzeFOY/QqcSh2Fp+PNYUze3bfwVYLbepKVz6r7pWNJaRU1NUY5UVWP4/VVtFQUVbBpqOjpoMWsqKWorIrUKtqqqthNIZrq2PCZZZYYZQhplplDbaEoTxwYzdzO6vXDoJojKexXaDYVfgGvMZb5YiNq4TOyjNMkfYeeqcIwHG2nOH8ozCcphxMeKz8ENttvTJr0SujS5jFRH5hPLrvHy4djnNn543IwjTOC/dOi0Do6HZOzKbXmKS5SXJFtcOo9rV9si2THhu3Vr8pHzeYsaDGQzXQIbDWo8AAAAAAAAAAAAAAAAAAAAAAAAAAAAAAAAAAAAAH6ssuyHWmGGnHn3nEMsssoU48884rhDbTTaOOVOOKWpPCU8cc8888/Dgvx8DqJmP4PhlDY8NpsKXFMdqJ6WV/NZTMraiHClJadT/wC0b+ey57Vf+PH3zthAD9c5/quv02f+UcgBgAG9bwu+CvsP5bNmMXHKLrUHUPDrb5G0+wsynS+ifJh8tPSNdalg2C22st2FIaWlLz3HzK3H2HvrrXl15VdU2ts91Z6s6M6YaMwPrl1ywOr13qnXdWmvpKSvTy7LnS3efm2uR5Hau/F/IsrsZ3LsqxsZS3JMuTIW44v/ADU8VBXn4+2S8hP9v9v/AMCoTUAAADdl4gvOZ2q8SedfQ4c+rbfWPKLpNlszrdlVvJhUE6Q/9OxOyzXV3wxIVrrYXMOMy3zNZjSYM5DLbVrXTfkQ3IlpL47fK70p8n2vUZj1f2pBsMrra1idnelMtXDx3dGtlOucMK4yrClTXVyKn6lSW2resdn00hxXymLBbyXGm89c7wTC9oYZlGutj4pj+c4FmtHY41l+HZXUwr3HMlx+3iuQ7OnuqixZcYsK9+M64hxpxCkq4UVyvmg9JztHR9llPYjxi0GR7k0m85PvMk6w8SZWQ7l1WyrlyW63q96W6uZuLC2uOXGo9fyp/LYqEx2vhki1SZ7EKqxrrCosJ1TbQZlZa1kyRXWVbYx3oVhXWEJ5caZBnQ5KEuRJbMhpxt1pxKVtrb5QvjhXHPB8QAB7n126z7+7abRotLda9S5tubaGRK55rsSwenetJjURtxtEm4uJfPKIuOY7H+a2qXZ2L8Wvhtq+ZKkst/hlk54PfS/at6Kz8S7Q911YvvLtrXtxrrDMDh8cXWm9AWrrKVszYaJkZCNj7QicOOJTayGuaqqlfF2kjPzIkO+VLpIufmA9T51S8f8ACyjTfWeZjPazt3FTKq10lFa82GldR2za3Yjz21M3o5fHF3fRZaHPfjNI+qd8yG7GtZ9ApTDr1Y92p7Ydgu6+68s7C9mtl320tqZg8n668unW2odVVMOvu1uL4rRw224eKYjC4kyEwqyvYjw4/Dy1Ia+Y66teOgAAAJEfgL862beJja8/X2zWcgz/AKUbcvGJ2zsEqflTL/XGVuMxK1rcGt4kt1CHrhFdEixrmr+aw1cwIbH4aZsCAtNr3o3e+ney+rMQ3boPY+K7X1Tnlai1xXN8Os27Onso3KuWpEdfKeOHa22jSkOx5sCW2xOgSoz0SbHYksuso9XWhLiVIWlK0LTyhaF8cKQpCuOeFJUnnj8NPPHPw545+9zwV+vnu9LVk8vJs17keL7A2beuvHpOS7Y6dYtEZi2tbbvLfl3mX9eq1KkNWNTI555ffwxnhEmNI5dTjCJUeRFooECW2qbWgtbOivaywpbylsJtTc01tCk11rUWtdJch2FZZ18xtDsGwYltPNPMuoQ4040pC0pWnng44Al+eED0vG5u4dxh3ZXvpjmTaO6msvV+RY5q+04mY5uHsJDalsyIsZdZzw3N1pq6Yy09xItJX0tzYxHW1UMZuNMYvo1mziOJYxgOK41g2E0NTimHYbQ1OL4pjFDBYrKTHscooDFXS0lRXRUJag1sWuix2WGm08IbbZShPHw4P0ynKcZwfG73Mc1yOhw/EcWqZ99k2VZRb1+P43jlFVRnJlpdXt5byGotRUxobTzr8mQ62yy22pbi0oTzyVl3qPfUQxu9y7XpJ0tvrKN1DorqM/tTaLKZ9PN7JZFQTm5lZVVMGQhp+HpmttoseWwmU2h+8soMae4xHhwIf1cPcAAAtyPSm1thX+EXrA/MiPR2rbMOxFlWrdT7eJkD/L7sWu+rZ4/p5Z+trpjfHPPw+PMdXw+KfhzzIwNCHqe6qwufBj3qiVkVyZJZr+vlq401yn3or6Ltdom7t5XPuVxx8tiqr5j6/v8Ax9kfn4ccq+HHNPsAAD7a6vm21hBqquJIsLKzmRq+ugRGlvyps6a8iNEiRmG08qdkOyHG0IQnjnlSnOE8ffL+sFeJ64v8aXjs/IDsf+sWnyCEAAek6l07tffWe0WrdJa2zjbWx8mkfTUGD67xe4y7KLVzjlPzFRaajiPPqjtJV73nuUcNMNp5ceWhtKlcTzPDn6RRWP22J9ivKointZMBcK+xfpvjls1cVKJrXyJUF3f2aU0rmLctsyEucu4vSPya+T8tnizuZcVc2kcnnUdHTYzTVGN43UVeP45j9XX0dBQUdfEqaWjpamI1Aq6ioq4DTbFbVxoMeOzHjstoaZaZQ22hKEpTxH08q3qSOi/jbiZJrzFb2D2l7U1yplW1pHV+QwXKPCr2PxylSdzbIjtSoWDJZe4Ul6sit2eQcOpQ27VRWHVTmax/yE+Svtr5ONyubk7UbCcv3q76+Lr/AFxjyJdLqrU9HYOsuSKLXeHOTn01bbv0kHiZPkvS7ez+58ZdpYzFx2VIwHAAAAAAAAAAAAAAAAAAAAAAAAAAAAAAAAAAAAAAJZXp1PAZvztl2K1D3B7K6xyTWfTXUOUY/tChczupk4/adjMpxmZFyHDMewqguIfD9xq/m6j1si7u1scVk+FHep6yTJmPy3ay0uBHl9Qr4Vcp8wmltLp1LsnF9d7664XmfWWvE7C5umtd5fj+0IWIsZti+Q2OPV82Zj1guXgGHyYNi3X2CWua2REdi8Imqlxob/8AI2/Lf/6l6f8A++TOP+j4/kbflv8A/UvT/wD3yZx/0fH8jb8t/wD6l6f/AO+TOP8Ao+P5G35b/wD1L0//AN8mcf8AR823ePD0YVLiGV0exfJNuzG9l11RIYnp689f5WUwsRvnUe5xETOtu3tdUWz9X99CZEClq655a0fzV98n4pdnJ611przTWBYpq3U+FYvrjW+DU8agw/B8LpK/HcXxymicK+RXVFNVsNsQo/CluLVwhHHK3HVur5Uta1c95KYbz8fbJeQn+3+3/wCBUJqAAAPU9M6Q3F2J2HQ6l0PrDOdv7Myd1TNHg+u8ZtssySfw37eZMtNZTxXXGK2O0r5sqW7wiNEZSt+S80yha0y0+ofoxe8W26ypybtlu/VnU2rsG2ZL+FUle7vjasBCm4764dvBx69q8brZCuHXGvmRsms+WnGVKWwtPCUr3cab9G/1o0pkuJ7Hwrv33awjbuHTk2tDsjU1lrrWV1SWjfv4bn47Lg4tMsKN75K1IVyiyc5Wla0q59i1IJSmk9Y7f07qprCss35k3ZrLaOM23R5/uOgwjEsqum4if5qqy+01NiVZAkKcYbbY4tW6Jc1rlXM2YzcP+9t7DXcXefuN1wkSLDafi33juDBY6pS3cw6G7X152isWo7bLb0RKtXbCgayy+bOXxzK4cbgUU1ltUX2NyZC3mUL0Y9utgemg8suUP4x3BXc9Ku29vFRBXnG7dcZx0j7A49K4S1FYXl+d53ifGEZrJjtstx2msnk37MRtXsjoY+KFmnHsB6Nfek+oa2R4/O5Ohu0GsbtLlljkbOZD2BXk2qcWtEZigzbCV5LjecPJ54TwuYuRQR3PgvlDKFJS2vTNtH053mj1LJlM3vRDZeSx4/zlNz9XZBrjbUaYy1yj4PxWNcZnZyuPfwtPKGnY7Ujn8LjlnjlC+E+JR/CZ5cpUhiM145u3KXJLzTDfMjTGXw46VurS2lUiXLgIais8KVx7nHVobQn4qWtKU8qMzdJelx80e5psNM3rBVaXopTiG3Mn3btXXOLQoXv44VyuZjVDkNtkaW0p5Tyrlukc/wD0T7l8KTxId6aeifwuisKvJ++nauZnaI/070zUnWqnk4xQyJLSeHHI9ht7PIK7G0p3HufluNRMZppfLTfK2p7LjnHyZXes9X+NDxFaaVjOGtdaukuqlp4n2ttlmY4vgc3MJldH+nRaZXnef3nFtsO+QwlLLb9hPnzPb7I7Kvb7GzTP3M9XZ4xOubFzR6BXsDuhsSD9RHiQ9bVUrAdUps4y+EKjXO2M+rGlrr1ce7ludj9Fkkdznjj28+zn38Qr/I36k3ySeQuDfa/dzuH1p0Bd++NK05oR6xx5zIKzlCmvodgbLfkc3+YR3GXHEy4Lcquo5nCk8vUvPKEcpj+AAAGROu+smzdj6D7C9lauvbgaj64t62r8vyayUmPEtc22vnFZiWG6/wAfUtfCrHKH6tWU3bjbaVoj1mFzHJCmlPReHsdgDYt49fKr3Y8YmeSMy6p7YlUVDdzo83OtQ5Yy/lGmdjrjNcR2lZhgzk1lPNkmMlLTdrWv113HZ+LMayZaWtC53PRz1lfSvb0Wnxbu5rHOOp2crajx7DPcUi2W5NITZDbbbciwc5x+v4yvE/nylcqag/cO8ZjNfHiRdL5R73JM3X7yD9Ge1Uase67dt+vm3Zlt8niJj2H7UxCbmiHpHt5ZiWOCO2jd1T2CuHG/hGlwGH/w+P5v7/Bhv5G/BR47fJvzJyXeGp3MI3UuO4xG7CaWkV+B7Xe55jIjx05XL4q5NZseOyliKlnjIa2zeiNMcswH4aHXvfFI3N6ILbsGzkPdee9muMnpnnFLi1m5tU5PgtnXNcvNcIjSL3CL7Imrlzhjl9XL6a6BwpaEI+mTwrlxHVtY+iE7IWdqhG5e82kMLo0uK5ck6y1lnmzrV5pPyeUoRCyqzxFmO4vnmQnlXMhzhr5aF+x73qQiTr46PTeeNbx4WVDsKr19YdjN+UnyJULc/YHmsyqRjlsjmI+qfrzXsWAzj2EyGp8VLsCf9DNyCClxbSL5aFue/bVvHt71T6zQJVn2I7JaL0jFiNpcdTtLamE4RMc5cYTIYYh12QXTEmwmOsrbUyxHacee+Yj5KF8q4+Mczuh6vvxq9fYl1RdbIOwu5uxYjMhqv5w2pnaz1A3aNcOI+mudk5/VtT3ovz+GvhIpMduoryFKU3J/o55goeTHzm9+vKRNkUW7thRcG0axZIsKLrpqRmfi2rYr0Z1S66dlKH58ix2NfNI+WpMm7my2I7/Dj1XDrUPLZNOoAABsc8b/AIte2vk/3PSau676+uHMTbuK1jZm7bmrlx9V6jx6RJaTZXmU5E58pibaNweZD0OkiPOW1mqOpuHGUlLzzNyt1N60676cdbNJ9XdUMym8A0fr2gwKhk2Cm1WtzzUxeObbJ7pbKUtrvra8esrOfy0htnmZbPcstNNexCchjxnsRojX/aHQ+4Oum1oD1lrnduuct1nmMaItlmxapMvppdNKsKaW+w4mvvon1SZUCV8tSos2GxJQn3tJKa3yd+Jbtr4stz3uv944LeWerpd5ZM6j7C0lLLc1dtjGm5K+KudBuWFvsY5mH0PMdVnjk2QmyrXnP82TAeg2MzV+AAS7vTfeA/efZvsXqbuz2e11kGsepmkcsx3aGFVue0FjSXXY7OMblpu8Jg4pS2rDS5Wq4WRQaufc277TlfatQuKKAiZ9ZZSqi0KBE49Sl4VO4fllzbqXkHVy00zXwdJ4tt6mzFO1c1vsSkOy83ttfzaXmlbpsMteJzPDONWXz1OKZ5bUpvhKV+/nlMYz+Rt+W/8A9S9P/wDfJnH/AEfH8jb8t/8A6l6f/wC+TOP+j4/kbflv/wDUvT//AHyZx/0fPX9f+in8jN1Jhr2R2O6cYHUvtpXI/g9kW5M9yOCvnlfC2nah7UFNBec4+Df32rZaOeFf5/3vv7b+vPoxuk2nG2c17pdudkbprKltmXY0mK1mOdb9bpeWpv5kLIrqxv8AIradVp97raXYdtRPuq4Q78WfwmOdxGBdqPT1+IjCrHC9Sbu6PdfIkdniFk9RqLK6jbO4rz7lKe5aRnzuAv5NnGZz2XEPIaXcuTZHCk8tNK934Bq07YetC6N61Zs6fqZozcXZzJmmXEV+TZb9JovVjjznzW2JTUy5jWeS2CWlJS65Gexut+chSWkTGVrWtmI7329SD5R++jV3ilxub/s8abt/qYrmoOtabTXFXY1T6X4q6/Ls6TaSMozGO/XPpanw5VymllqSpaaeOlfy06GAAAAAAAAAAAAAAAAAAAAAAAAAAAAAAAAAAAAAAADMD+MK79/14u4H95fdH+NR/GFd+/68XcD+8vuj/Go/jCu/f9eLuB/eX3R/jUfxhXfv+vF3A/vL7o/xqP4wrv3/AF4u4H95fdH+NR/GFd+/68XcD+8vuj/Go/jCu/f9eLuB/eX3R/jUfxhXfv8ArxdwP7y+6P8AGo/jCu/f9eLuB/eX3R/jUfxhXfv+vF3A/vL7o/xqP4wrv3/Xi7gf3l90f41MZMvzLL9hZNc5rn2VZJnGY5HLXY5DluX3lnkuTXlgtCG1zrm9upT0q0mctttp5dfdWvnhHHHu+9wdaABsg8XPjJ315Uuz9B150ux9wqKI2zkW39u2tVOsMP1Dr5qR8ubkV1xE9nFheSVIci0lTw+w7bWC0s/URYbU2fDtBNEa58PXp3Ov9br+92/pnRF7d0tdY53sTZ2RVM7sZv2xg8cx38jkY5UNSMhySlbn8TOYlTRVq6ep+c7xGitOuSXn8K9oesR8QmAWjsDE2u1G8Ircv6dF1q/SlLU1khr2v88TmWt07Ew+YmL8WW+Pg5EQ/wDGUj+Z+HDnLfF4J6yLxHZdKaj5Bj3b3VzTkpUdU7O9NYXYRWGuEx1fXOo1ltzInuYvPLznHHCGVv8AxiufFnhPLXLu2vrF5t/FT2/mV9Po/u1pmflNopDFfhGwbOz0vnNjOUrhC62nxLcVXRTshnJXzzx7a5mWlaW+XWVuM/zptROl51rjXm0KRzGtl4FhmxMce93zqDOcXo8tpHfcn2L+bVX8GQw57k/e5+LfPx4PDdT9JOpegspsMw0F1/1roS5uZTk2/b0bQNadocomOph8OyctxPW66ypy15XMCKrlVlClc8ra9/8An8rUryft/pTvxmEa0ynpJ3UxzTGX8VfDUDWO8NDa/wBqabsLCPwj5So+RUNVV5bh0h9XCvqJb87J46OOf+706P6Uw5u+fk49Vt46HbW17Aat0/aauq3JCuN8al0TV7N0u7CYWhPFjaZVRyOJGCR3Vr+DDWTwaOW98tfLcZXCFc8aVcw9Vx5tsn5kfcjstg+v0PuMrS3h/XjRUniM21G4Ydjx3M4wK6c4bdc/nlqWtbqXFfzLrLfwb4wW2v5vPLfulp+NnPkH7OtQ5KeW5UDAtj2Wo66WzzGRFWxLrtSppGJUVbLfHzGnG1NuKUtxaFOrWtWtDJcqyfM7iXkWYZHfZXfz1e+beZLcWF7cTF/Hnn3S7OzkOvSVffV99a+efvnAAAAA9r659e9sdrt46x656MxaVme2Nu5VBxHDcfjc/LQ/OlJdfl2FjL5TymsoYFVGnz7Ka78GINfVyZj6kssrVxMW9Q1151D4lPEJ0H8WmppzFrmO0d2X3YjeueMsfTW20sw1hgiMcy7KLiPxxz9Dj8zLdoY6xRxHeVOxavW8CH8+S7DmSZEH4AAGQOB9su0+rYSK3WXZfsBrmubj8RG4GCbl2LiMJuLxy1zxGRFx/I46ER/iwzz7OE+3+ZR978Hg9+/jYvKb/tLO/wD/AHyOxX/UYfxsXlN/2lnf/wDvkdiv+ox5HmneHunshmXG2J2+7RZ7HnvTJM5jNOwG2MoZmyLD38z35bV5lr6ZLz/zHPnKXwpTvzFe/lXxMYXnnZDrr77rjz7zi3nnnlqceeecVytx11xfPKnHFLUrlSueeeeeefjyfkAAAAZfas8g3ffRmC0ur9Jd3+3undaY2qzXjuu9Wdldza+wWgVdW06+uFUuJYlmkSBVql3tpZTZPLEdvl+XYvyXfe884tXoP8bF5Tf9pZ3/AP75HYr/AKjD+Ni8pv8AtLO//wDfI7Ff9Rh/GxeU3/aWd/8A++R2K/6jHSNkeRTyB7kwi/1nt7vV3H2rrjK48eJlGv8AZHZzdmc4RkkSJOi2kSNf4pk+byoFxHasoMKQ2iRHcSh+I08njhxtCuMNwAfRHkPw32JcR96LLivNSI0mO6tiRHkMLS6y+w80rhTTyHEpUlSeeFJUnjnjn4mXH8YV37/rxdwP7y+6P8aj+MK79/14u4H95fdH+NR/GFd+/wCvF3A/vL7o/wAaj+MK79/14u4H95fdH+NR/GFd+/68XcD+8vuj/Go/jCu/f9eLuB/eX3R/jUfxhXfv+vF3A/vL7o/xqcZcd7+8OQwua6/7ldrLyvU428qBcdh9u2cJTrXPPLTqok3L1t8uJ55/BV7fjx/4GO+T5ll+bWCrbM8qyTLrVbkh5dlk95Z31gt2W8qTLdXMtZLzinHZC1OOK5V8VrVytfxVz8TrQAAAAAAAAAAAAAAAAAAAAAAAAAAAAAAAAAAAAAAAAAAAAAAAAN+usvNjlvQrpPj3TXxj0itLZhn9bX5p247k3lRVS937P2nb1zf3QxLVsaU3Jja71jjMKTLoqSwdS/czGmXr6GzjFpYTfqNGea5xmmysqvc82Ll2UZ9nGU2Dttk+Z5rf22VZXkdq/wAJ4kWd9kV7MfmW9gvhKfe9IeccV7ePio6sAbduhPnL8lHjqk1FZo7sFfZPqqsVHbXoTczk3Z2nnK5l5L66ymx+5npmYAy4tP8AOu4xYUklz3c+95aeeeOZ63jI9V90d7ny8f1b2djs9Kd82aY8GK/nF/Hsuv8AmVwvltlLOO7XkMxv4GzpDnznUw8mjV8VrhTcONd2kxaEuSpmnWpDTT7DrbzDzaHWXmlpcadacTwtt1pxHPKXG1IUnlKuOeeOeOfjwfsfi601IadYfabeYebW08y6hLjTrTieUONOtr45S42pClcKTzxzxzxz8OSPB5BfTGeMjvQi4yrGdeOdRt1z/qpTey+ulfU45jlraOsctsO5vp52Pxj19E+q5+olOVrFFcTXVK5euvwuSCn5CfTGeTLooq6y7GcAb7caPrW5M3/Kd16r7O9yKmq2XPhw9nGnnW1ZBQSEx+HH5L1aze08Nhvlb9wn4c8cR3XmXY7rrD7TjL7Li2XmXkKbeZebVyhxp1tfHCm3ErSrhSeeOOeOePhyfkAAActR0d1k11UY3jdRaZDkWQ2lfR0FBR18u1ury6tZbMCqp6eqgMuP2VnJnSI7MeOy2t1515DbaFLUlPNqT6bfwUs+NvVKuzfZPH4b/drdONtxpFLMagTf+zprix5Zlp1zVzY77yHc8suWosjJZ7DnCGvlsUcT+ZhzZltDB9UB3Yhdx/K9turxW64uNZ9Wamv6x4W9Fe4XXSrnBbG2stq2jCG+PluvK2pfZZX8Sk8ufVQsZgL4dUyhlCI7wAAAAAAAAAAAAAAAAAAAAAAAAAAAAAAAAAAAAAAAAAAAAAAAAAAAAAAAAAAAAAAAAAAAAAAAJD/iJ9Rr3G8YszH9YZVOsOyvUNiREiS9JZxfSfu/r2pTwlh2Ro/N5iH3cN+U2ltaaOQiVj7/AMtxDUOulynbNuzl8f3ko6jeTHT7G4Oq2y4eTMwm4Led66uvpaXa2qrmah3luk2JhXMx16ncW5GmIizmVyamz4gvOVVjNZaWvjPQA1Dd+/Bl42PI2i4vN6aDqcZ25bJec/y+6aXG1puHie9xyn7p3l3VQVwNgykp55SjjJ627abTz/NIQrhK0wj++no6O7ejF3eZdK89xXuBryMp2VGweyXX6r31Xw/it3mOinvLHnHczTGjp9q5ES6gTprnw+loU8r4aTE52vp3bWh81s9b7u1hsDUGwqb282uD7Mw/IMGyuvQtx1tp6VQZLXxpTUdxbD3DbnLXy3Plq5QpXHHxPNgAZA9aOq/YfuNtWj0n1k1Fmm5dl37jf02OYdVOTE1sFUlmM9eZLbvcog4ji7Dshn6q1tJMSuiJc4XJktJ++Wafgm9NnrHxuKoOzXaF/Gdz92HYKZGPfQNuWGteuiLCItibAwHmc2n+FOwlx33GZmSvx2vpkLXCo2Y7PMuwtdlvm98kFP4xPH9tneUKzhs7py6G9qfrhTPfIkP2W48wrbBqmvua9/4pmU+OVke0yKelzhLTzON8QPmJkToyV0xdjY2FvYTra2nTLO1s5kixsrKxkPTbCxsJry5MydOmSVqcly3pDrjjrrilLcW5ytfPKueeT4gAAAAAAAAAAAAAAAAAAAAAAAAAAAAAAAAAAAAAAAAAAAAAAAAAAAAAAAAAAAAAAAAAAAAAAADIbq72s7B9L9x4zvvrLtHJtT7QxV74wr7HZfCY9nXOONOTcdyemkpXCyvFZfDLaZdZYMSYUlLafmsqUhHKbPHwp+pY69eR6LjWh+xjmL9c+6LjcSrg45KsXIWr97WHy+UczdS3Vu7z9yModdR8V4rYSXJ3PMhH3Hl3CEyeIcoEAHgvYHq31v7W4h/ALstovVO9cRQp12JS7RwbHsxYqZTzfLS7GhfuoLr2PW3DfPPCJkFyPKb/AKW3k8kc3sf6PvxRbkmWFzqVzfXVm3kpfcjVmstit5lgbc99Sl8yJmN7hqL+w5i8OL55TFgXdayjj4IZ4bb44RxqhzT0ONlxZfN135HYLlQ6pfP0WadYH2bGAlDUbhrj7qUe83GrdTj/ADMUrn6ODwyhLSOEvq5Wvjr9T6HDO3prbd55IcTrq3lLnL0up6t3F1NQvhCuWktV8zfMBt1PLns4VzzJRylKuVccL549nOyfrh6Mfx0ays4V52D252B7OPw1I5dxRdvT6Z13aI93CneLOvwWO9knu+CEpRzEyuJ7UuO+7hxXLa2pPfWvqX1n6c4C3rDq7o7W+jcI+YzIm0+vsagUrt7OjtKYatsruUNqn5fecMK9nM+0kzJnKPgjl9SeOOD1zO87wzV+F5XsfYuUUeFYFg2P22V5jl+S2MWox/GscooT1jb3VxZzHEtQq+PCjvOOuLVxwlLZT8eejy5X3lj7gTMsxd+2qerul03GC9bcPsEPQ35NE/Na5yHauQ1zyU8w8tyiXX18hxhaUrr6utqqtfvkQ5MmTo6AAAAAAAAAAAAAAAAAAAAAAAAAAAAAAAAAAAAAAAAAAAAAAAAAAAAAAAAAAAAAAAAAAAAAAAAAPojyH4b7EuI+9FlxXmpEaTHdWxIjyGFpdZfYeaVwpp5DiUqSpPPCkqTxzxz8SZr4c/Vl7e62NYv198jqss7AaKgR49JjW+65H3d37reK2lqPBazXmdMb53JibKUcfNkSHeMnjtuOvcS7zluNWpsU+v8A2K0d2p1XjW7eum0cP3BqvLo/z6PMsLtWrOtccS205Jq7Fn4IkUOQRuXm0TayezGsIL3PLEyMw8lSOPaAAADrGZ5piGucSyTPdg5VjuD4Ph1LY5HluY5dc12OYvjGP1EVyba3l/fW8lmLUVMaGy86/IkOttNNt8rWtKePiVdXqHPUOZN5EcmvepnUy9usT6OYndcM39+zxNpcg7RZBSzUuxchyGK6luRVali2EZt+ion0odmuss3d2ymYmtraSKGAAAAAAAAAAAAAAAAAAAAAAAAAAAAAAAAAAAAAAAAAAAAAAAAAAAAAAAAAAAAAAAAAAAAAAAAAADNjpB5Ee4Pjr2WnaHUvc+Sa2s5bkXjKsW4cTda52BBiL+KazPcBteHK3JI/DankMvuscToX1DjlfLhvq+bxPw8cvrEeqG7oOO6/7/4ZM6q7Ve+mr5W1MQg3Oa9d8hmqRynmxlMR+ZWRau+dKUy2mNKYvq+On3SJd+w17kty7NWbd1VvLCqnZOl9lYHtrXt838ylzfW2W0Wa4paJ+W26r6K/xydIiyHEoea5WhLvKke/jhaeOT0QAGlzyG+fPxueOWvvqfZW6qvam7KuO+mD170bKrtgbHctW1LZRW5ZJgTeKjWXte4Qt7+EFjAlfT+56HCnL+Ww7W+eW/z7dxvK9aycOyWUzo/q3XWybDGOueAW09+qsnIby3ay72zlLiGHtm5MzzylTXzI8KniLZQ9Bp40rh2U9otAAAAAAAAAAAAAAAAAAAAAAAAAAAAAAAAAAAAAAAAAAAAAAAAAAAAAAAAAAAAAAAAAAAAAAAAAAAAPe9B9peynVjJlZl1s33t7RGSuqZ5m2mqdg5Rg7ts1HcS4iHesY/ZsNX9bypKeFxZrb8Z1P4DjS0c88G8bT/quvNBqqFHrrve2vd2Q4iuOIqNw6VwGZNRH4ZU3xGkXmvq7HbCzT8xXzfmy5ciTyv4J5f8AlccNGWkT1p/lRjRYsd7R3Qme8xHZZenS9Vb/AESprjTaULlyUwe0DDCJDik8rXwyy01wpzn5bSEe1CfFM59X35istgPQ6DI+uer5DjbqEWuDaNh2E9hS3mnUPNN7LyLIYqnEIbU2nhyMtHKH18rQtz2LRqj7IeY/yidtYFrS747wb5yjGb1Mhu8wrHcpRq/ALliT8fnRLbX+qYdJS2MH4c88JYegLZRx95CEmtEAAAAAAAAAAAAAAAAAAAAAAAAAAAAAAAAAAAAAAAAAAAAAAAAAAAAAAAAAAAAAAAAAAAAAAAAAAAAAAAAAA3N6N9Pn5cuyet8G23pDqvT55gex8LxzYWI2kPsr1MqrGfiGW1sa3x63n4tkO9Yltj31NfLjucR7KDElNcuex5htzhSOO4xPTXebuZOZr2eheZoffkJjIcl7R6/wIKXFL9nCnrOdtpuNGj/H+l1x1LXHH3+V+3755L2U8FXlK6g6wzPcfYrrZS661/r2tiW+XWa+xfVvKriorJ82NXRJnGG4TuyyurBlc2XGb4+lr3+f573c8e3488ajQD6YkV2bKjQo/DfMiZIZiscPPsRmuXpDiWmuHJMlxDUdv5i0+5bi0oRx+EtXCeOeTefivpp/NNnFei1w3qFj+U1648SVxLoO1/S61aQzYM/UQnHuYXYlfLHzWOOVI4XwnnnhPP3vvcnZv5Lj51/6jX/zM9PP/qCMIe7viO8hnjkxTCs37mdeJGnMU2HkEzFcPuuNnaY2JGtchgVzlvJq18ap2LeOVkjitaedTzMRHQ4llfylLUjnjjW+Z0dHvGv3X8j9/n2MdL9KObmu9X09LfZ3F42DqrXrVDV5FNm19LIXP2rnNHHnuSJddOSlmK8+9xxFWtbaUce42GzfTAecqsiSbCx6SxYECGy5IlzZvaHpvEiRY7SeVOvyZL/YVKGGUo455UpSuE8cf08mvDuJ43u4PQaPhMjtVrzDddq2I9bM4jBo999ets3FlxSIirspcij01tXIJtNWo5mR0JlzmI0V51SmWXXHULQnw7rb1x2v203NhegtI1FHe7Mz6ZJh47W5HmmHYDUO8wYb9lPel5Nnd5XV0NtmuiSnuULk/OdTH5RHZee5Q0vb4x6Y/wA09vMnx8P6pYjnsSuVGRIuMP7WdQLGt98pjh5CPbM3xHkxlcK+c38H47XKlxVqb97ftWr7f5Lj51/6jX/zM9PP/qCOpT/Te+XfH0Xzmb6C1VrxvG4MiZZLzXuP0zqENOR+Eq5gvKZ349xWyuUrTzwub9LHTx/7R9H3jVj1r6xbZ7Z7zxTrppeHiNps7M5VxEoYmUbFwLAsalPUVZPuLBPObZpkUGo93MGslcxkJmLcnOcNsQUSXnmW17boXpivNtc8SpGM9PqHLaqPOkwW7zG+0/TuwqJi4yuOOXI73+X9DiEKbU24lDzTL6UPI+ay2vn2ceXbK9P/AOT/AErj2bZBufVelNT84FjdlltzQ5v3M6b12TP0FPXSrW0nV1JF3w+4/wDJgQ3l/Lc+U49+CiOh5fPtNL5nf018afczyAxsxkdTdX41sv8AgDOpq7KotrvDQOq7KBLyFEldOmLU7h2jQSrpl/6OQlLsFmSylxvlta0OfBHOw/8AkuPnX/qNf/Mz08/+oI/KR6XrzpRY78l7o2pLUZl195SOyvUB1fDTKFLc5S0z2AUp1XtRz8EpTypXP3uOOeTQ/kWP3OJ395i2R18ioyHGrizx+9qZfCUyqy5p5r9daV0lKVc8JkMTo7za+OOeeOFN8/fOMjx3pchiLGaU9IkvNR2GkffW688tLbTSfj/5lLUnjj/+fJvpqfTD+cm8q6y6q+kP1VZcV8O0rpP/AGleoTH1ECfGblxH/kyN/IcZ98d5tXtcQlafd8Fp4V8eDquV+nB8x2CM2L+bdWsKxFmnrX7i2XkvcLpDR/c2pix3Zciym8WXZBvmNBRFZdcU6vjhHCG1K+Pw45NIUhhcV96M4plbkd51hxUeRHmR1ONLU2tTEuI6tqUzypP4LjS1trT8FoXynnjk2AdNvFh3p8gGM5Ll3U3TlHsyhxHKIeGXsm03boHVspnJrCBHs4lVAqdv7SoJl44uHLiq+ZBYkspU+htTnDqvYZoXXpoPOFQSm4c7ofk77zsdEhKqXcXXDJIvDa3HWuEuzsd3HLYZke5lXPLS3EupSpC1I4QtClKX00HnCv5TkOD0Pydh5qOuQpV1uLrhjcXltDjTXKWp2RbjiMPSPc8nnhpDinVJStaUcoQtSf3yb0y/nFxKokXdr0RyCXDjf+0YxndnWbNbdX4Djn/d6DDN0z58v8FtX/soy/wvaj/OWjhWn3dWgd5db81l647Baf2ZpPPoTfD72H7UwjI8EyDmGpa2mrGPWZLXxnZlW6ptXLEplLkZ9P4bLq0cpVz5EDcp108DfkO7V4FrzYWlMe6+ZTWbRxuuyzEKHjtx1pYziTS23Daq9VnhHGzl2VFacoej/Pr5sdiwgvP/AEc+LFnNvRm/bVelx86qFKSno4lzhKlJ4Wjsz0/4Qvjjn4cLTwvsAlXt54+/x7k8c/Dn76eDrGTemr8y2CMRLDYvVrCtbUcmUxGXkeedu+l2OUcNLsmNFXJkS5nYX3OMNuS2Pellt57n5yENtOOLQheojfuidhdaNt5lpLajWKs53gs6PBvUYXn2EbMxpSpkGLaQH6zMtd5BZ1Voy7WzYb3wZlqdZ+o+TJaYkocZR7j046C9ge9dhntboZ3T7cnW0PHZuTJ2vvjT+k/cxlD1wxVc0Le08yqnMo+C6Kf9UquRJRB90biauOqbDTI2u1vpU/NFcQo9nUaB1ja1stKlxZ9d2S0ROgyUoWppao8uLna23k8OIcTzylXPHCkc8f08GBHcXxE9zuiOGTs67EwNC4/V1d9Fxmzpcc7VdcMyz+HeznmWY1Y1q/HtnPZJcSvg846+ivqpioUWG/Mn8RobLj/GsUAAAAAAAAAAAAAAAAAAAAAAAAAAAAAAAAAAAAAAAAAAAAAAAAAAAAAAAAAGSvTO7t8a7fdV76hsplPdU/YvSlhV2le+uPNgzY2yMacYkR32+eOW3ErTx/8A3/o5+PHJexlBNlWUZBm+TZBmWW287IMpyu6s8iyO9s3uZFjcXlzNesLSznPq5/nZT82Q84tX3vipzk4AAEhX0sN/e1HnJ6b1lVdW1ZW5TW9kaXJoFfYzIUHIqeJ1V3bkcWqvYkZ5KLetayGipJ7bEhLjSJtPFlJRw/HZcRZdeY+/vMX8U/kMv8aurbHb2s6i7xkVl3RWMuot66R/AW3b+fBsoDzb0R75a1p9za0q+CuU/H75SYAEvTFNkZ3M9HXtensMsvrOtZ8hFLriDEtLSZYM1eCRLLWGcxsTp0zHlcVVCjK23JqYrHsZ4flPr4R7nnPdELBn141PINuPxodtNadmtR29tzCobqvr9qa/i2kiDSbc1VLnMfwwwDIoyXPkSkyK5Ljtc/Ibe4rLaJBs2UcvREF1NondmueyWmdX791DkEfKNZbfwjHdgYTeR1NfGXQ5LWsWURqcw08v7n3Ef5yo06ItXzoU2I/EfSh5lxCaZnzFdGMg8d3kQ7FdcLHi2lYjFy6TsHT+RXC5UqVlOntivP5Lg9i7azVqcu7KHGlSqW0mcq5+dc4rZf0cp5TxrFJhXWbOMo8CvhGy3sqzcTMR8gPl5crsf630DjzsW+011qwyHYr53g1A4Xylm8fq8xcs61/3oWiTnmGSFMucVtpGIgtnZ2V3ZWFzc2E63uLedLtLW1tJcifY2ljPkOS51hYTpbi3Zs56U664884tTjjjilrUpSlKOPBcn+nXvr3JfCz0Itcjura/tONZZXWfdK7sZlrP+5tDtrYdDRV/1k55bn0MKjra2FEa93y40SvZjMpQy0hCYI3rAchvrTy/XFLZXVpPp8Y676XiY5VTJ8mRXUUaziXltYsVEJ1zluvbkWkqRIf4aSn5rz3K1+5X3yLSDc36evJsjxjzKdDF45fXFCq93G3jN3zT2Muu5uMcusdvGLahtOIjyPr6eS0lHD8Z33sufLTytCuUJ+Hn3nMyC0yXy++ROyuJKpUuP2l2Xj7Tq+Vc8pq8StP4K0cbjlaueeEs0lNXs8cfH4ccMce3jhPwTxqlBcN+mby3Js38H3Ra9y28ssiuW6XeWOos7aS5Mm8UeGdnt2YditZy+7zypUWDjFDTwY6eeefZHrmkf+BCa9YXsvYOR+V7nXN5mGQWOAa76/6kXhOGP2Uj+DGNyckYv7rILKtpULTHbuJthMc5lTVNqlvtR40Zx5UaJFZZ1O+Mby9dvPGLuzCc31Xs7NLvTEfIKjja/Xa5yOxsNY7GwlMtpF7WsY1YyHIWNZhxVKlfcm8hssza+V7Pct+A5MgSraXst1P6ceW/qHj+Nblwqr2XqDcmu6LYmqM5bhw4We4LH2BjNffYpsfWWTPxXnsRyhNZPq3+FI+ZGltp+hs406vekRHqcDvp1CzboV3D7AdQ9gzE2eQ6Qz6Zjce+RF5gN5VidlBgZPr/ADRqAp5zmvZu8BvcatkR+XHFMJuOGVLXyj384in0R5D8N9iXEfeiy4rzUiNJjurYkR5DC0usvsPNK4U08hxKVJUnnhSVJ4545+JcEenX8nDvkt8fOIXWfXabPsf15erdKb+VJktu22SWlRUMOYVteW0lCOeE5PjLKX5LvCENLvae9aYRwzHQRWfWj9M81wzs9ojvNXycgutYbpwOJpDIvrJU2fUYDs/WvFnc0lVBVJk8tUlfkOFWEyXEgx20IcnYPfz1/F6SvnmEqCZNtfsBtrw5+nO679RqjPcwxHtn5P8AJM07A3NQzklkzeaH6r5XGx1l2Fj7HDqXMEmZVjdZhbDsXhlh1cjOs2+DyLCt5WiGyAAAAAAAAAAAAAAAAAAAAAAAAAAAAAAAAAAAAAAAAAAAAAAAAAAAAAAAAAAZAdTf9KfrR+cBpr9ouOF7wUA4ABv+9Lj9uv0a/SZ/c87BFl55rPskPI1+Z/vH9R7UpRQCV9hv/wCT92z/APE+rf8Ag2tCKCAWEfo1vJpzc0GxfF/tbJGeJ2Ks3W5+q/3TlJbel0E2e9P3NrCr5fcTw89DtpzOUV8NnhyQ4xcZRLX7Y0D8DNj1e3jd/wC0p01x7u9rmh+s2701+q/h39BG+ZY5J1xyicz/AAo+f8pPK5f8Fsmcg3jPu54ah1Vlksnn76yFF4QPHVR99e1srJd4SWcV6SdSsZk9iu5WxbhUqHjdZq/CGpd6zgsu1ZYUlidkTtLOZeQlxqS1QVN/ZRFLfrkNOeR+XzyK3/ky7q59vZuI9jencbZZ1X1r1ylpEGBr/ROGSZcXDa9qnY/mam2seHpVxZsM8ctMz756KwtUSNG4Rq9ALjr03v2JXQj+z/YP7cNoEEP1eX2yWafm/wCif+B2pGBBt/8AAP8AbJePb+3+o/4FfHn/AJrftcPI1+d/vD9drQ1gAt+vS4/YUdGv0mf3w+wRCD9Xl9slmn5v+if+B2pGBLtfw8Q7+v8AFJ444mSolM2jXSnrdzw1MdQ7IZqndUYu9j7K+UuK+SlFA5WpQyrnhbCEpZcQhaFITWpeqozjEs181nZRrFFw5KsMxPR+D5RPhSHpDc3LafUmJy7VDyl8cIamQ2bOFWvttc8obdpVpX8JHDyeI6oN/wD6bvyRfxeHkcwL+Gt/9yevnZr7maH3b9ZJ+RT0f3etG/8AJtsmd8xXDUf7gZs/E+qlufH6WhyG99n4TpZ7eUXofiHkk6Ob16m5O5ArbfOcb5tdYZZYMKdbwXcGLOfdvXGWcrZbU81XtZDFjxrRMf2vSqa2soKV8JlLKT3Yuvsx1NsDONWbDoZ2K59rfLsjwTNsZtEcNWOP5ZiVvMochpZyE888JlRraBKZX8OeU+5rn2888ffNqvgt6BwfIX5DdUa4zyvad696obmb+7NWlgpDFBD05rF2LaT6K9mPKSiPX5BkTuP0D/PC0OtRMilzG+UphuLR5v5jO+07yQeQXevY+JLmK1jxct620BTSmlxGsd0Tr5yVT4FGjVy+PjUOWSVWWQTovx54ZtMyn8I59nt441fgAAAAAAAAAAAAAAAAAAAAAAAAAAAAAAAAAAAAAAAAAAAAAAAAAAAAAAAAAGQHU3/Sn60fnAaa/aLjhe8FAOAAb/vS4/br9Gv0mf3POwRZeeaz7JDyNfmf7x/Ue1KUUAlfYb/+T92z/wDE+rf+Da0IoIB7/wBV+yOyun/YzTPZ3UNiit2LpPPqLO8cU8p5MCyVVSOOLTHLpEdxC5OO21K7Y1dkwlSeZEC3ks+7j5nxLs/rD2C0z5AeomsN+4VFrcp0/wBkdUxrSwxe44iXMePEyWsfps71tlsf5fLEuyrLb7vUVuxynlrmTVyW/wAJv4c816vnon6h8OnWin8I/SmLlVdC37fWXaztxt/J4D8PLti4TeZ5eM6O081kDsVPF/jNVCw+HHnPwnOIy/4Dxm18/X2+URuYbYALjr03v2JXQj+z/YP7cNoEEP1eX2yWafm/6J/4HakYEG3/AMA/2yXj2/t/qP8AgV8ef+a37XDyNfnf7w/Xa0NYALfr0uP2FHRr9Jn98PsEQi/VzxJU/wAzmVwYMaRNnTdD6DiQocRl2TKlypNPZMx40aOylS35C3loQhCOOVKUrhKeOVcmPPim9Pf3V8ge1cOvNmao2B1y6f1dpAvNq712nQT9e/dXCIMiPLuajUNblkJqTmmSTq1uaxGso8R+hq3G3H7OahbLUKXNg8pfqR+jPjb0/J0R02yTXvZHsjjuIxcE1tgus7mLluktLt0la1Q0knZ+c0FkqJKZqI0RKOMaqpsi4ferEQbFdI099e3VqbH2LnG3tgZvtXZmTWmZ7F2RleQZznWXXb3Ei3ybLcqtZV3kF5ZOoQlKpkq0mynl+1KUcKd+CEIRxxxx0oAt8PTceS5nyKeO7C4OaX6rXsb1bZo9IbyRNf8AnW99HraxxGrtoS1LWpcpOQ4dV+yVKd5SuRf4tfc8I4aQ2pcXT1ifjL/yQ73wryQasx6PD112IkV2ud8xqqH8lik3zR08xzHMylsx2UtR4+UYLS/KeXxx8VW+DzJkp1cu4R7/AACzZb8M3p8mqn6hvHO9vmxcjS7SNxwqPl+vOkdTVuqRGXx/nV8e5xPI0suJdS06/wAb4mMo45k46pceIyAAAAAAAAAAAAAAAAAAAAAAAAAAAAAAAAAAAAAAAAAAAAAAAAAAAAAAAAAADIDqb/pT9aPzgNNftFxwveCgHAAN/wB6XH7dfo1+kz+552CLLzzWfZIeRr8z/eP6j2pSigEr7Df/AMn7tn/4n1b/AMG1oRQQAWoHpfcLtuj3RLr5o7tDt6PjW4e/2WbZ7LdVetmTL+nySq1PjWH4dKvJNNGW0t1Eizx2PEy+RFU61HYg5Ey4iM1Zfdj3cT6tfxnr7a9JoPcDWtImXuzpNFu8myBqFF5cssv653HMeRsqsc5ZRxzJexuXDg5PGU+vlqJW12SIZRzIsOPjVqgAuOvTe/YldCP7P9g/tw2gQQ/V5fbJZp+b/on/AIHakYEG3/wD/bJePb+3+o/4FfHn/mt+1w8jX53+8P12tDWAC369Lj9hR0a/SZ/fD7BGh7z7eejyG+NnyiZNpjrVluq4urYmo9O5VKxLNdQYjkirm0uK6ylzeLjK2I8S9kw/f85LLSLVtMdEp1LHy+V/E806UdseinqXMxtuo/kGwDbnXjuRkOP3+Ta4z3QfZ/e3GodmKoK/7r5HUYjprbOcZPj2GZZX1EFyzYrZtZdMSKzF5Ko1lDVFRCe0NeaPwJ9hvENkNJmUnImd49VdgXztBge8aekfoptFki48yxia+2rjf1MlvF8ucrYM56DIjypNdcR6yQ9GdjyWZlbD0LAA3y+nP8jT3jt8kesbTKrpVdoTsW9X9f8AerUmT8mpqqjMLeI3g+xZfzV/KiqxvOuaeZJl8oW81RTL2Mx8FTFfG2X7M9YtH9w9NZNoDsZgVXsrU2XzMan32KW6pDUeXMxHJanLqGSmTDebejuM3lJXr5+W4n5rSXI73vYeeaXUF+d7vLknfXyZdh9iy1SIWu9VZRadeNH4058xqNjuqtQXtxj1a6xDUnjmBIush/hJkUpjn48x5WXPRUK5Zjs8cadwAAAAAAAAAAAAAAAAAAAAAAAAAAAAAAAAAAAAAAAAAAAAAAAAAAAAAAAAAAZAdTf9KfrR+cBpr9ouOF7wUA4ABvq9MTbw6TzmdFJk9TiWHrTf1QjlpvlxX1mQdVt5UNdxynj+hvmwsovC1f8AkRypf/lLNDzWfZIeRr8z/eP6j2pSigEsKgaVTej7zdVpy3CTlnk5iO45w881wq3TGq8QZf4iI4X8VOJXjV9zyjnjhfsrHV/D2ccK5iegG7jwP+OrGe+vcF3J96uV9F0q6h42vsX3AzLIXlwsVY19iSZ1vTYBb2Xw4TGbyKfRT0TeOXWHUY5Q5DMjO/UwWkL/AN75eZ7dXY3yw1PkU1JZ2WH1PXvYWLx+o2F2HKo9dh2n9YXDi8bx64poK0IZZyZhy6nZPXpcdacVnFjVcPvQGmOE20PV7sFqfvb1O1J2FwqFFvNU9jdU1uSLxu8ajWjcaHk1Y5X5fgOTx3GvkTp1dbcXdLaNexTC5FXJRx72ueOVU/vmg8dt54yfIBuTrvxX2DWqrOwVs7rzeTfmvJyDSGbTrCRijSZz/PusLClmRLjHLF5XCOXrLD5T3CEsvMqVqnALh/0z13HyDwe9D58Zl5luPjO5aRSH/Z7+ZGM9kdyY5LdT8tSuPkuSql5xv7/u+W4j38JV8U8QXvV5fbJZp+b/AKJ/4HakYEG4r0/kKZYeZfx8sQYz0p5vesaatphtTi0Q6zFMmsrCSpKePvMswIkp5xX9CW2Fr5+9xyeW+aSXFm+WryOPQ5MeWyjuPvuIp2M82+2iVA2DdQZ0ZS2lc8JkMzY0hl5HPPubdjrbXwlaFJ41jgt+vS4/YUdGv0mf3w+wRCD9Xl9slmn5v+if+B2pp38WO1Z+kvJR0N2fAsnqpGL9tdCKupTD/wBLy7iNtsrHaHNq12Ry2r5UWbh9peQ3ufYr+Znr+9z/AEFxN5HuoONd8ej/AGU6rZHXV86RtXV+RV+EyrFLPyse2lVRFXurMrbee4/7u5W5/W4/LUrhSPe1HdZWvht1ZR1y4kqBKkwZ0aRCnQpD0SZDlsuRpUSVGcUzIjSY7yUrYkNuoWhaF8cKSpPKVccc8HzgAv8Agoh+2X+lP2X/ADgNy/tFyMx/AAAAAAAAAAAAAAAAAAAAAAAAAAAAAAAAAAAAAAAAAAAAAAAAAAAAAAAAAABkB1N/0p+tH5wGmv2i44XvBQDgEkLenTzX+rvTA9QO0Vrq7G63d28PJdk0iu2c/Rxo2fy9PT9V77xFrFJF0qG3Kcw+Rf6LqrSJEdW9H9yUz4vKOJrnvjemwLxTdgqfqx5JOku+8lsk02Ia/wCxus5GdXC5PEVuo19f5BGxXP7R11Xw45Zj4beXjy0K5Qh1LPLS1toXytNzF3L0k92W6idpOu0XmOibvXrzufUVa9K4Y+TEtdia6yLE6qfyqR+A05HsrWK+hxXPHylx0ucKTyjhXFFVZ1ljS2VhTW8GVWW1TOl1lpWzmHI02vsYEhyLNgzIzqeFsSmpLTjbiFccKQtvlPPHx4PgBLI8sVTK6UeArw++PjJWlUe4tx5VnXejbuLrQmFfUsO8Zy97BIWXQEtIdjSvuRu5mt5Ykc8uIma1ktuo4dhIS3E3BzuM4zkWa5Jj2G4jSWmTZZlt5U4zi+OUcKRZXWQZFfT41VS0lPWxELdsLSXZSorEdhpKnHXZCG0J5Urjgll+UW+pPDJ4xtO+FzVFvWudrez9TR9kfJhnmOTY0h6AzdJYfw7Q0aziuLc+5vDtXDjrR7onzaTC2rBUPljN5SERFyf56MvyRfjV8YuzL7/+M746y/Xyf/8AB/ln1rWfNV//AK/KIMRnj/1TMcNsvqufGq93R6Ec9jNbY4q1310nVebHiM10bh24yvRVpHi/5ZcYQhpKVTHq2HVVGUReHFLU0zhtpFhsqk2quF1TwBaa+jq7BU+z/Fda6WTOTzk/Wbfuw8Ym1Cl8Kfj4ns1yLtbGrrhPC+eEQZd/kmdRm/j7VcvY5J/A+HtWvQR61jQF3iXefrR2PZgON4fujrh/k6VPSxzy07n2mM8yWfepelJ59qHFYhs/AktNq44VzxAeWlS+OFcNQwQSa/Sn6Tg33kiu+3eeOx6PSHQHr/uLsDs7MrVKOKGidtcDyLAKSPOeWv4MTEUl/m16wtfHsQ1r2S770OIa90fHf+2rffu992b2yBDjd9urbmyNtXbbr7kl1u32PmVzmNkh2S6pSpDnEy5e4UtSuVL5/C555555PIgW/XpcfsKOjX6TP74fYIhB+ry+2SzT83/RP/A7UjQYrkdlh2T45l1MtLdxi19T5FUuLVIQhuyo7CPZwVqXEfadSniVFa555bdbc44/zFoV8FcX1+C5hS7DwnDs/wAbkJl47nOK49mFBKQtp1Emlyaph3VXIS6ytSHErgzo6uFIUpPPCvjxzzx98pLfKrqxjSfku77avhRHINRivbffjOORHWVsOR8Ts9k5DdYkhSFxWeFf/szZVPPC220sucK+Yx8WVoVzgGAC/wCCiH7Zf6U/Zf8AOA3L+0XIzH8AAAAAAAAAAAAAAAAAAAAAAAAAAAAAAAAAAAAAAAAAAAAAAAAAAAAAAAAAAEgjxj+B/wAlvZbZ3VjsFgWmMTj6EmbE1HtB/Z9vvLRaWq/X8PKceyOTkEjAq3Y8jKefhVNve2PxR8P/AFTDkN1DUlp5tu3wKkX+Sf8Am1/q5a//ALxGj/8AG5zVJ6SvzTWsh1mfpbUuMtts/NRLu+wGsZEeQv3oT9MynHLiwdS97VKV8XGkN+1vn8P3fBKtlvUr0UvZG8zOjte7fZrUmv8AWcawbkX2KdeHsm2Dsu+rI0n2SKiNkeb4XTU2FTJLKFKasOI+RpjocQpyudc5Wy1sD9X7rrBevXiR6PdcNP4vV4ZqLXnaTXuN4bjEBD6+KSk13153TjuOw25kh9TsxzmBdTly5EhT0qZJV9TIeW+t5blbuCxo8A/qedK5DqPAem/kh2LV6m2brWjpMI1Z2WzWc7F15s7DqSDHqqOq29l1g+tvCtiQYEZhp29s3Gqm5jx/qZ82Ha8L5s/j8zHpe4feLZOTd6fF9sfUnN9uWZMznZen7XJo7Gudi5jcSX5t9sfUOyaFE6vrri5sH/qrGsn8M1j8+RMsmbiJy99AqMDM9M35wId+vHOeiuQyZaZTUVE6HuTrlIoHuX0trZfRkadwfRNxeW3UcrccfRwzz7kSPlOIWhGwPQnhy6t+Ju4x/tt5zt/6hgX2t3o+dau8b+ocqptsbr3Jl9Gpi0xes2RBqnuYbOHKtW4Kn47Dj+PTG5kZN7kkGAuVXzNDXkz8g+2fJz2/2P2u2yy3Su5H9FjWu8ChzXp9Rq/VeOLlIw/A6mU8hHMrllM2wm2EnhtlM+4vbKw4jxvq/kN4BmWfTrpH2L747Onah6z4tjOWZtVY6/l1vEynZ2stXV1djESxraqbbqttnZdUR7FLU22r0rjQlypvKXveiMtCFqTOU9P/AOnkR0w39Ud0fIBsrrtYbH19BekaF0limzcczpnBM3ntriO7Kz+8aWiqk5NWV6piaKJWv2seLLskXP1zNjAgpZjdd/vFh5k909iuz/a/sFoWqybIcuzLNtn5tleHb80DmWMsY7FQ9Nr4uGJr9quz5uI1WGwa2DUwuInE+NW08aE7DZksLjI0g6n1Xnm8NkYXqLV9GnJth7CvoWMYfj6rakovuveWKuW4UHi3ySyhwYCnF8e3hcqUy18fhxyvjnng399APEF5iet/dvqvvTEtG0GtbbWe8te5LJzXLN+aFi4jT44xkEOPmScyXjm1JVjIw2ViEi8h28eBFkzZVdYSY0WM/IeQ0u1xl7M1HPjSYM7YOuJsGbHeiTYcvK8ZkxZcWS2pmRGkx3p6kSI7jK1oWhfHKVJVylXHPHJWf+Uv0wfYrGuz2xc18caNJbm607EyadlOEa9j9hdNa9zbTbN1ymwssEso+28zoYFnitfbSJkeikQbOfLVVMxW7FCZbTrz8ajtb0+7EdI9mxtO9msEh682FNxevzSHS1+d662LDlYza2l1TQLWPkurstuqp5tyzx24a+Wmby8n6L3rbShbS14zG37ww+W7Z/iK7Scbax+plZ5pXZEGrw3sPqRqbxCXmWGwbByZV5Djbr7nEeHsagkTLKRTSJHHyVt2ljVvOR41rIktWNW6XfFL6mLpZJ09gPYXEbrIlK4zrXj9fKrqvsZ112ZXVs+DHv77T2QT4lq9S8NSrKDaRHUcU19A+o5rLbh1qBcQ4OnZD0nHmD0lk9lA1tqXBe0GFMSXOKzOdQbSwSlckwnH0twV2eFbWv8AH7eDZKaWjmQzEjWMaOpK+OJzzKOJC+o6g9Lp5VMqluXvYfCNT9KNL03wmZnu3sfu7VUDF8ZpmHOeLGaumwfL7ex5kNsp+LP1rFbBfccbQuyYb5cea9h76d6+lHRPobkfh98UGdyt2x9tXUO87495+a5urZ3fY164jn+TjWMph33u4Vw/Xx4jrkVTlOzStvV0KZfPX19bOxbwbBOnniv7/d/MVyfN+oXW3J904nhmSN4hk99T5HgGP19Rkj1dCt26mQ5mmW1vLkj7m2MN7nlvhaEokccqXx8FfC2I8FvU3dPRzxV9UOr/AGIoK/Fdy64r9uTM3xusv6XKItFK2Fvvamz6qqVf43OlV9lMYoM0qW5K4cmRG4kodQy+8hHC1RWPUv8AhB8k3cjyDu9o+qmhG946ryvUeuMQkO4zsHXVHkmMZHhkWxr50G9xnOsqqZT0d9t1t+PKr0To3COeUSXYz3sbcg27s0rs/rntbONIboxOVg209b3TmO5tiM2dU2UqhuWmGJS4T0+isJUOUriPJjq98eQ83zw595fJYt+mB87entqdetbePHtZsmh152A0pW1WutAZJnN1Gp6Td+rYKPocGwmru7HlqLG2Nj1eiDRxqp11D9tWQqx2t+tmIsm2MDPM14A+wu/vOTgmy8W1rtHIOmvebaOnntsba0ziy8ql6BlfQY1hG4n81Q1BlIw9KmKB7IYl5bROKTnnLPk8uSZECXGI3fnA6D6F8avf3N+qnXXa+WbXwXF8H1/kc6Tn0/HLfO8LyfK6hyys8Hy22xLHamvsbRqF9yrFtceth8tw8misPNqfZdcXqIP7Sn5i0o45Twpakp45WtDaeFK54Tx7nFq44Qn48/f5Vzxxxx9/nkkF6Q9NB5Ntm32JLzrGtBac1/d2VK9b5tlvbHrhexoGIz1wpE3I4cLWGxckky0oqpD7rLfEblxa2PgpvhPKVKtkqPfOjcliuTsc3Nqm/gsyFxHZlLsXELWK1KbbaeXGckQLhxCJHDL7C+Uc88K4S8hXw+CuCp97qeAPyf1W/wDsHsDGdNa+2Zri+27s7LcdzXAOyHXGxYuccvMpyLJK2ybxS12rDyCAlVQpC3ES6hhTbriWOfi8tCFx5nmlsOusO8e11lxbTifilXtcbVyhSfcnn4c/BXHP3+OeeD8gAAAAAAAAAAAAAAAAAAAAAAAAAAAAAAAAAAAAAAAAAAAAAAAAAAAAAAAAAAAD762zsqadHs6ewnVdlEUpcWwrJciDOjLW2ppamJcVxDjCuW1uJ55SrjnlKueP6OTtmQ7Q2ZltDX4vlexc6ybGaqc5Z1eOZDl1/dUVbZOofbdsIFRY2DseHOU3JkJU622lzniQvjlXwXz8eiAHqus967u0rJfm6c3HtTUsyU5y9Jl6z2FluBypDvMd2Hy6/Ixa3iKec+keea9yueeflvLR/mqVwewWHfrvXbQpNda91O2lnXzG+WZcCw7G7hmQpLPPPHPLUiLJzJSH2/jwnn2qTzx94xSly5U+VJnTpMibOmyHpcyZLeckypcqS4p6RJkyHlKW/IcdWta1r55UpSuVK5555PnAAAAAB9ESXKgSo06DJkQp0KQzLhzIjzkaVElRnEvR5MaQypK2JDbqELQtHPCkqTwpPPHPBlTVd9O8tFXxaik7n9sKaqgt8swqyp7Fbfr6+G1ypa+W4kKJmCG47fvWrn2oTxx8VK5/8TyXZu9937skRpm5ty7W25LhK98KVs7YmXZ7Jhr+SmP7or+VXEtTCvkIQj4o5459ieE/5vHwPKAAAAZR0XeHupi+PQcRxnt92ix3FKuD9zKzGKLf+2KjHq6t9qk/c+BS1+WtxokH2rc4+U20lv4L5/B++Y02NjYW9hOtradMs7WzmSLGysrGQ9NsLGwmvLkzJ06ZJWpyXLekOuOOuuKUtxbnK188q555PiAAAAAAAAAAAAAAAAAAAAAAAAAAAAAAAAAAAAAAAAAAAAAAAAAAAAAAAAAAAAAAAAAAAAAAAAAAAAAAAAAAAAAAAAAAAAAAAAAAAAAAAAAAAAAAAAAAAAAAAAAAAAAAAAAAAAAAAAAAAAAAAAAAAAAAAAAAAAAAAAAAAAAAAAAAAAAAAAAAAAAAAAAAAAAAAAAAAAAAAAAAAAAAAAAAAAAAAAAAAAAAAAAAAAAAAAAAAAAAAAAAAAAAAAAAAAAAAAAAAAAAAAAAAAAAAAAAAAAAAAAAAAAAAAAAAAAAAAAAAAAAAAAAAAAAAAAAAAAAAAAAAAAAAAAAAAAAAAAAAAAAAAAAAAAAAAAAAAAAAAAAAAAAAAAAAAAAAAAAAAAAAAAAAAAAAAAAAAAAAAAAAAAAAAAAAAAAAAAAAAAAAAAAAAAAAAAAAAAAAAAAAAAAAAAAAAAAAAAAAAAN+fjnV4ZeyGwup/UTfXSrtfV7p3lneq9A3m/Nedt6uRQPbL2Zl1JgVXnUXWdvqqM1j+Pru7yPJeg/WWSoDHHLaObJSPeuYHuL0onhh64ag2z2E2BN7eXuC6M1dsTb2ZVCt0Yi2qdi+uMOuswvmWFxddVykyfuZTylM/GdFb+alHzXkNe8gP8AcPbXjMz7C6eq6VdPOwvX3O4WW8S7XM9qdo67b9BdYSmBYsOUzmDI1XBcr75yxcp5Dcxi64aiohyYzkef9S29E10gGRXWjP8ArhrvOpt12d67ZV2WwN+lfhRMGxHe87r7ZwblyTHdZvOMyga7yVUlLcdp9r6VcD5auJXK+V+9CPhO48SPg98IPlf6g1navFuvvZXT7v8AD7LdbZPr627N2+ZKocmxJqomyOIOVMYZVpva16qyGnfae+gjK45kKZW3wtpZrD8z/V7we+IzsdiXWaD0Y7Ndjs0vNV45te9uHO7dlp7HMeq8pyDMqGspor/Om8okXlwnnD1SHv8Au8WMhm2ZSh9x5DzaIjWWTcbs8pyaww6hsMVxCfkFzNxXGLa+RlVrjmNyrGS/R0VplDdPXJySfDrHIsd6fxXweJjkdUjiHG+Z8lHXjt+BYBnG1M0xjXGtcSyLPM/zW6gY5iOG4lUTr7JclvbN5MeBU01NWsuP2E515aeEttoVzz/T/RxzyTF9X+md629Gur0zux51eztxpzE65us5idbdA2FBPzObktmlUil11Pz52FaIzjPJvDMpt6lxSFzHhs18mx5yv7nR5kqHqV2t5E/E5RWj1B1W8IWnE4PXzOeIeV9o+y3aTZGwspjcNLbVZ2tRhe2amJh8x7lMVXMGLZ2sSOpl7lp1f1H8z6z1u3X4Ce5WV0Wne4PSDMvHDkWZyotNA7WdUeyGy8t1hR38tNfX1bmwNVb8dyePgGG8PtPcyrSDza8NfWcOWDcVhMu4j/75bfTgdpPGxi0vsJrTKK/tl01W3Fsl7mwao5r8m17UXC2VUkzaGGQ7Gc3Gxt9EyI3HySqmzqh9a0Lm8U65cOK9HJBl/wBP9hdLte5Xlc7ul1v212QxWwoIsPDqXVe/ouiXsZvET0vz7e5fc1revZQl2E22xHbRKr2onxfW6zPW8wqFPR8bXgB8Fvkr6e6u7ga2032mwLHtjLyqtk4XmG/Jkq6x7IMJyq3w/IYCrGpgqj2tf91aaQ5ElI4ZU/FfZcejRXuXYzelny4aB8AvjN7I5v09a6e919r7QxjCMUubjMKTtRUYJjlHY7Ax3jIadFLIv8JyBVrMh0llSyuXJNSqKqTIXGXHeaZWp6I07yyp13lhLjTCnF8stPOpfdba5Vzy2h15DTfDznCfbwpXDaOFc8fHhCf83j07Sd1qDHtq4Pd77wXMtm6erLpErPcC1/nUDWmX5PTIYf8AhW1GcWWJXjNCrmbzEW8v7mPOPRmnozL0J55udGl0+Mjqd6fnyO4F25ytjqH3M0zc9P8ASV1v7M6Of2dj53WZPglFX5FPnMY1fwqGsdTkSU0PCfppNc0zzzORyiWv2LI5/ZvePjkz3Ap2OdWug23+vWfcZBClVmz857tTt4Ql47EkPcTKyfrR/r/RMtTJkNTf863dL5hut8exUlHCvma8yS74kcF8NXfztPoTpTtXoX2J1xnW2Yt3QR9z4z3as8vorDLMWwTJsxem2uun9M068dgz2sYcZ4+ltZ6WJNgnn5KIyVeyTf3m9OF4QOinUje/bfOdVdk8sxrR2DyMtlYtS9hJtbaZJOdnwaSioIdjaV3DEByZfWtZH5eWl3lpMlS22JLqUR3IBHbDbHRvZMTGo/UXp5tTq/OqLS0Vkdrn3bFzsREzKlfbQisZTj8rR2NLxO0YdaS5y6zZTWlJkOsrZc54akIwqJNvjIxjwV93ey/XTp5nPRjt7rvNtyPMYR/lTY7lRc6qOc/YxyXYNSLHG6/UuO8xqWwsa2Q3y9G445hqltc/RrZS4tEqPsh6YzwX9VtAbk7JbSwzstxrvRut8u2fl7eO7nubTIZdHiFNLuZddQVz8aO1NvJKYvEeG29IjMLkSm0vyY7PveRD1vt++m4cdtIdD0A8inEFziTHrLp/tNgtZcttuNKQzYc1TlfaRIs5tSvelpbk1j3N8e/5qPcjnvOqtb+mA7ET4OO3O6vJ90Vyqw+ihNZBt2PpXcmmWZr7K2+OX7DWuupt8z/+JvspclzWa2vajRfmvKjcOPOxsrezvpH+x9VqeH2G8c/ZfUPkL09e0vGU4xExVdRgmd5Rjjv1Ln1mAzWsuucW2MyyzGcSpTGQV0yW83yxBqnpPP0xE2y7EMrwDJ7/AAjOsavsNzLFLadQ5PimUVE+hyPHrusfXFsKi6pbRhqRWWTEltxt1l5tDja0cpWnjk64fq1yyl1rl9LjrCXEcvNMupYdca4Vxy4hp5bTnDLnKfdwlXLa+E88/HlCv83mU14ftSeFbyZdtde9Ms66Hdg9H5xsHE8ysca2FR95rHYFBeZHgGHXWdXlbKxC01DQSqKO/jeN3TzHMWwuHkuRfg6yiOl2Uzv/API76enwieOXpZvHubmeluzOxKDS9biD68Jx/sRZU1pkdpnWxMQ1jjlc3bzqN9qqi85HmlSqTJUw/wAsRW3nUMPLQlpcBvtZtDpzsubiL3UrqbsXq1EqWbdnMImd9oX+yKMxXJdhrppcBUvTGKOYk9FbanJdQl2e3J4mI+8zyz7ncZsToHcryrGcWYe+mfyXIKagZkfJVI+Q7c2Maube+nQpPL/tVJSr2cK45V7fhxzx8Sxb8hHhH9NX4w9X1W0O2ln2DxdrKpk+s17geN7hyXKNl7KtapmNItYWGYpDr0fPjxGJkHmbYTX4NTCVYRGpk+O9Mhtvxusn3x6X2J9V/A3ot5Nr/wBkhCYX8J9765xH6iLz8fmPSvuVml39HI4+97WkfPSr/wAXkks3WXpE/ELs3W+vtjwbXuPWQdg4Riebw62XunBHpVfFyuggX0eDJdZ1B7HZDLM9Da1I/BUpvnlP3iHFbZ/6eTEc0s6G16heTa1ZxjKJlRY8f9qLR3MWyapbZyHM4+TH1RFf+neTGc/BblRnfa58ESGV/BxMgLxi+OT0vHlYnXOG6Chdr8H3RjtOrILjRe59sysU2G9jzDjLE3I8WcpJdpU5nRsS3kIkc1tm/NhIcZesoMFuTHU5EI8oPXHDOofkI7edatcMTouvdPbuy7E8EjWls9e2kfDmZKJuMs2du+y2ufZJpZkLiQ4pHHPLyV/0/wCdz6t1W7J+LXXOraLCu1fjH2P2P2Sm0unsm3ljHe7O9POvVdhMdcqIlFqKi1PIrYzldX8sNccyLZ1Ux5C3nnUIWmO3Ot6n+mp8DncvrhpztFpfHuwNtrbdWE1uY4849va6TPrXH+XoV7jFy21Xcpj5FT5HCt6myZSpSWZ9LJa4WvhHu5j1eXPRPhN8UHbV7qyvxw9rd+XtHiuCZ7MyXJ+79lpnCMnosvhSbFCcWXUaqyWxvKlqTDerJUhX3Kd4n19kyxyjiGzJkxXNoXOvsj2JmV9qnBbjWOt7fILGwwvXt/m3OyLjDaCU+p2Djs7O1Y1TqypyM2r5fE1dZEcdQhPLrfLnuWvNnpz2A8dOpcStqXuJ47867d5ba5U1Mg59jvdDNevUPFMQ4jRWFUsDAcS1dYov7biT90JC5cu4aS/wqPGbah8NPPvygu/vW/03/RDp51G7K3XQzsBm2zu6ercZ27qbrVL7TbWwjLqHDb3FqTJpt5s3JnMstEYrSxnMgrIDD8ausnbGW8v6OMtiNNeixAu1OzOtG09hRsi6tdXrbqfr9upREk65t985P2FkSbVMl5xVunNMrxOnksJVFXHb5jcR1I4Uzy4lfHv9icZAAAAAAAAAAAAAAAAAAAAAAAAAAAAAAAAAAAAAAAAAAAAAAAAAAAADP/xO/am+NP8AP/6b/vFa5LfryxfZZeSz8wDuR+7rsYpBgAC079G39kfkf53+5f1J1ARgvWSfa341+Z/pv9eNwEUEFmp6T7w7451y6+0HkZ3liceZ2K7EY+5YaLYuoiXX9Q6BvYnLVbf07L7XwgZhmde67Nemo5W6jGZlbDjrjcWN0xJix+p08j2Sd5vJBsbV1FkT0rr104vsi0Vqyiiv/GosM2opjNZuvYzqWZLrM+yss8qZVbEmMr4ZeoMLpVobQ6uSt6OOCzl9I/5AFdwekO0Oh+9ZEHOco6qRYOP47Ay5qJeR826v7Ki2tbU4nb1lo26nIa2gt4OQUslD6VxkUeQUFby18tv8OKD6j7xFwPF73CiX+oKqRG6n9m28gzfTMX4uyGtd5FUyoXOwtPOy1tce6HVTLmrmUvK+VOKpMghxVuyZdfNkLjsAtu/SgfYldcfy/wCxH7cc4IQXqwPttexv9n/Xf9h+EEcEEr70x/4q/OD/APDB2n+rmeEUEG7/ANN59tr0I/L/AGF+w7aBY9+pC+xK77/2f6+/bhq8pxQbf/AP9sl49v7f6j/gV8Wffn3+xt8hP5v9x/xyiKYUEkD05HmMzvxy9tsK0zsjNLKT0s7E5lU4ds/Frq1mPY1qrLsnkxqTH9541CflfT47Kh2SqlrJnWW//wARx9l1T7UmZWVHMaXt6m/wkYp3g6/5R3O6/YbBrO4/X/FZ+R5Gxj9cyxL7EamxyDxMvMWv2YMRT13salpoUiVjMv8ACkyWo7+PPJfRJqnKqrJBv+9Lj9uv0a/SZ/c87BE/z1R32FHeX9Gb98Pr6VAplj0MxZzOe83TDCmm5jjuYdsOuuLNt16EuT3HMg2/h9SlEFtSFcOTOVS/g0nlKuOV+3j4K/oNrnqeu0eTdk/MH2RpZ9w9Mwfrg9jnXjXNP9U4/FooeE0UGZnvtb4d5a4nS9rXGcSHVoQ2vhpUaK98zmIlfMfIveep/wDos9av7ANN/s6xwoxts/jU2X/aBmX6x2RkT49Ox2U9Ru8PVbsZiNrIqbDVu79fXtopiS7EbtcPkZBDqs8xmwdafa5VT22FT8grZqPmI4XFtHke9Px93Gyb1OuFOYR5ve7DHDXsg5NYaWzWtd/7on6lvKOvWqLCzd+VFXzy17chVdM/zvCHXPpfnK454dStehAne+jO8kX8Gs42n4y9l3/tqNg/dfePWv7oSfwY2bUtYz/le15XfNUpSvujidZCyKHGb4bYYVht/IV7pFh+Fse9YL43f+0H1LxHvprih+r2r1D+NFs/6CN77HI+uOXW6PqpUj5aVOy/4J51Pj2bKE8Jai1WYZLPkL9jCfhWSG0Xw59BXvI3311Foa6Uqu03RvS9udkcqclcVsDE9A64ciW2dyp9zy4jijVZcuVlBEmq59kWfl0WQ7/MtOcp/fzK98efIh393Ju7Hnvk6WxiYzprrRQMR3IFbjvX3WL82lwBNbUuITzS/dbhVlkMqH8OeI0/MZUdHPymm08aswAAAAAAAAAAAAAAAAAAAAAAAAAAAAAAAAAAAAAAAAAAAAAAAAAAAAZ/+J37U3xp/n/9N/3itclv15YvssvJZ+YB3I/d12MUgwABad+jb+yPyP8AO/3L+pOoCMF6yT7W/GvzP9N/rxuAigmWnQ3revuB3S6tdYfmyI0HeG9Nb6+yCdEWluXV4heZLXtZpcxVK+9zIhYkm6lo4/pUqHxxx99Rdpbgy+j629a9pZ7QUlbW43oPR2b5fSY5BjcxKeBR6swKzua2khw4LKuYta1AomWG2mW1expHCG0c/DhJRHXl1a5LdW+R30+Ra3d/aWF1c2ctfzJVjbWst6dYz5K/hx75D0x95xfPw4+KnOTigSWPSZb0n6h8y2ocNalKjU3YzVu6dL5B7l/COpqJhMvclDw6jlXHxeXlWpKOO0rjhSuF2Ht+8ha+SdJ6mfqPUdrfEN2SmcVTMzOetNbE7RYBZqYW6/Tr1RxImbJXwplPv5iv6anbEZWj48M8PKjSXuOeIqfhUBgtu/SgfYldcfy/7EftxzghBerA+217G/2f9d/2H4QRwQSvvTH/AIq/OD/8MHaf6uZ4RQQbv/Tefba9CPy/2F+w7aBY9+pC+xK77/2f6+/bhq8pxQbf/AP9sl49v7f6j/gV8Wffn3+xt8hP5v8Acf8AHKIphQC758VO+7bs/wCNzpFvbIp7lrlmfda9Vyc3tXV+9y0z6kxmFjGe2aufdzyn6jMaS7e4SpSlI4f9ilKVxzzzU0ecTqHVdH/Kb290Pi1azU6/RsbjZesa+G0lmsrNfbjp63aGPY5UNpRxymtpUZTIom+OePdxzjKuOVu/+1XqdN/3pcft1+jX6TP7nnYIn+eqO+wo7y/ozfvh9fSoFOfxXKckwbJsczXDb62xbL8PvqfKcVyegnyaq9xzJMfsI9tR31LZw3EPV1tEtIcWRGfaWlxl6OhxCkrSnnj9sxzHLNh5bk+f57kt5mecZtkFzlmYZdk9pMu8jyfJ8hsJFte5BfXFi85ItbiZaS5UiTIeWt156Qtxa1LVzydaL3nqf/os9av7ANN/s6xwoxts/jU2X/aBmX6x2R5+eu7u33unspn0vam/dn5pt7Y06nx2gmZnnt7NyHIJFNilLCx7H692wnOKXzHjVNfFbTx/StSVvO8rfddcX5Eex9e96bF6xbx1N2G1JcKotk6Zz7GtiYfY/hqj8XOMWkeyYhWUdtxH19LKQw5FnRVK+XLhzH4zvHLTq+ObsXqv2F0T5MekOvd347VVeX6W7Q6jn1+X4NdpRZxGGr+vscM2vqfLGVNoTMkV12jKaCyTwn5L6q95bPK47ra10/vls8f+VeNDvhuzq7cxrJzDam6XmekcksuFKVmejswlzZuvr7iUpPCZ06PEYl09o4jj5abvFrNlH3mTc3hceH4jPT2ZLsqTymi7p+baVNwHCY8mMlvJcL6PYwxIYyS3iIf545i1uRY7euurkx18/VxN2Y098r51Ry6xE+AAAAAAAAAAAAAAAAAAAAAAAAAAAAAAAAAAAAAAAAAAAAAAAAAAAAAM/wDxO/am+NP8/wD6b/vFa5LfryxfZZeSz8wDuR+7rsYpBgAC079G39kfkf53+5f1J1ARgvWSfa341+Z/pv8AXjcBFBN+Ppgq2Fa+c/orFsI6ZLDU7sNZNtqUtPCZ1N1O3vcVkjjltfHPuZsYMV3jj4+3nlnjhaVJ55TzaEeWL7LLyWfmAdyP3ddjFIMAbavBDkScY8w3jxsV8SueJPZXCse+ENaUO+/LvrcUb5WrlxPxi8Luk/P4+PPKmPmJ4SvnnhCrfzuRUV1/1C7U0VxF4nVN31u3lUWsNa3W0S66y1jlEKdFU4w4hxtLkZ5xHKkKSrjhXxSpPP3yiZBbd+lA+xK64/l/2I/bjnBCC9WB9tr2N/s/67/sPwgjgglfemP/ABV+cH/4YO0/1czwigg3f+m8+216Efl/sL9h20Cx79SF9iV33/s/19+3DV5Tig2/+Af7ZLx7f2/1H/Ar4s+/Pv8AY2+Qn83+4/45RFMKAXB/pjLmZfeDXonOm/J4eYqd90yOGEKbR9HjnabeOPV/PKeVq+L3MCrjcuK+PwU571cJTwrhKYW3rK6OtqfLXh8+C/Xuysn6b6dvLluGnhMmNZR9hbpxtpi254/z7Dmox6qcTzz9/wClkRuP6OOCJyb/AL0uP26/Rr9Jn9zzsET/AD1R32FHeX9Gb98Pr6VAoAL3nqf/AKLPWr+wDTf7OscKMbbP41Nl/wBoGZfrHZHn4AJzvo0vJFzhG09n+NHZd98vG9v/AHV3T1y+6En+bg7Pxula/wAqeBV/zVqVz92sDpot5GYT8uPHd13auccLlWv4cn7zO+E7U/lgv+ombZRbV+GX3X3cFQvZ1+tb0KXnPVq3mt221NaNzobfvYyBUypq3qKa+vliqVZXC0o+M9zkrZPN/wCQat8hvezNM11wzHpes2kaeu679UsSqm+IVDUaT1m9Lram9raphlpqB937Zy0uUNcModiV9pXVDi3UVbKzT+AAAAAAAAAAAAAAAAAAAAAAAAAAAAAAAAAAAAAAAAAAAAAAAAAAAAAZ/wDid+1N8af5/wD03/eK1yW/Xli+yy8ln5gHcj93XYxSDAAFp36Nv7I/I/zv9y/qTqAjBesk+1vxr8z/AE3+vG4CKCbdfAvumt0D5g+gWw7ic3V1cne9brGdYvu8MRYcfemP3+j1yZslf4MWvRxsT4yHXOUtNMe9bq0NpWvi2/8AIdgthtHoB3l1nUNyHrXYnTzszgtWzESlyU7YZdpbNsfhNxkL/BckKk2DfCOOfvcqVx8SjLAN0Xp38Ql5v5pOgFNCZS+7C27cZettUbmVwmLr7W2c57YPfKTxzyhTcDGpLnDn9DPLPDyvhwj4lrB5S9yVvX/xvd5tu2UlmNziHVrdS6b6h2Oy1Ly28wS5xvCKzl2UhaEqmZjcUcRPubd+KpvHHDLyvg0uj9Bbd+lA+xK64/l/2I/bjnBCC9WB9tr2N/s/67/sPwgjggleemSWhvVPnDcWpKEI8YG1FrWtXCUJQnG89UpSuVfeSnjjj4888/e44IoYN3/pvPttehH5f7C/YdtAse/UhfYld9/7P9fftw1eU4oNv/gH+2S8e39v9R/wK+LPvz7/AGNvkJ/N/uP+OURTCgF0L4FtbWOqfDr49sWteHEzLDrvjew+Eu8q+YiHt+wt9tVjauFR2+U+2tzaJxwnlPPt449vvc+HzF12/qs94VO5fMzvOoo5bNhW6KwHUWkOJ8bllTD1tS4ixnGTxELa44Up6DlmwL2tf+b+GmTTvIT8W0N88xwjf96XH7dfo1+kz+552CJ/nqjvsKO8v6M374fX0qBQAXvPU/8A0WetX9gGm/2dY4UY22fxqbL/ALQMy/WOyPPwAZV9Fs2yrW/dXqTnWEXc7HcrxfslpS1pbiueUxJiSmNjY6lSeeeOfg/FdZW8zIYc4U1IYkOMPIWy4tCrp3vlaz6Po13Ou6p76W0p+qHYm1rpPymX/p59fqDMJcN/5Mltbb3skMtq9riFIV7fgtPKfjwUW4AAAAAAAAAAAAAAAAAAAAAAAAAAAAAAAAAAAAAAAAAAAAAAAAAAAAAM/wDxO/am+NP8/wD6b/vFa5LfryxfZZeSz8wDuR+7rsYpBgc7jGOW+YZLj2JY/Ecn32U3lTjlJBZQtx2bb3c+PWVsRtDSFKW45MksoTwlKlc8r/B455+8bLfNL0z1V4+vJf2S6h6Rn5dZ6x1EnTScan55aQbrK5POd9f9VbMu121lW1UJiQrjIsztks/Lis8IjpZb+ClI5WrVqWnfo2/sj8j/ADv9y/qTqAjBesk+1vxr8z/Tf68bgIoJ99ZZ2NLZV9zUTpVZbVM6JZ1dlBfcjTa+xgSG5UKdDktK4WxKaktNuNrTzwpC2+Fcc/HgulPDn5GMK8ovQ3VO+4s2pd2bBpYuuOx+GNKiKexbc2N1sWFlyZFUhxz6PHbxCmL2nQvlfxqcljMuq5ksyUN1IPkr6jXXRLvf2h6q28J+JC1RtjI4WEuyeVKdttW5A43lmpr5S+fj8XJ+tr3F5TieFL+U9KcZ5WpbauTBoEw/0ZfVa42b5A9r9p51a9/AnrBpW1pYFspjn5P+VPdr6sWoYDD7nHtUrjXlVtBx/wCXzytr5kbhfCUSE+7a76yfyR0mF6S1/wCNPXWQtyc93DaY9t3sJGrZqXP4O6oxGzVZa6wy+ZYc/m7C+z+ur7tDDnwdYia9jPuM/JtIbqq5MFpj6ODb9bnnilyTWybBTl5o3s7s/GplU/KU8/Eos0pMN2NSWUaNy+v6SplWeS5Qy3xwlpK5dLOX8vlXudcjIesc1JaYL5XqHYrsFtqk3d1k1dk0GzYitsNy7fDrjMdc3MCVIRxxzNtI8HGcfcWpfxUiLaw2/d7EJ4TE9BKS8O8Rzrx4W/Pb3Kydj6Kh2RpTBujmt57vCfjfZXuJu/w7P6iAy9x8JkiJB3BrWW58pK3GIypMnnllEdayLaDd/wCm8+216Efl/sL9h20Cx79SF9iV33/s/wBfftw1eU4oNv8A4B/tkvHt/b/Uf8Cviz78+/2NvkJ/N/uP+OURTCgzQ8e3S/YXkF7iaM6na5i2HE7aOZ10PK8hgxFymsE1xXOpsth5/Y8/LU2zDqcTjWUlHDvtRIlNxoSPc/JZQu4P7990NB+JHojlG7cojVtXieocJptb6N1dFlIiSs6ziNR/cLVWqscaUvl1TK01jKprzSXlVtJS2Nq42tmA6Use29pZtvHaeyNz7KuXci2HtjOsr2PnF6/8eHbfLM0vJ2RX9hyjlXPyku2ljKUlHHPtQlXCE/gp4PPDf96XH7dfo1+kz+552CJ/nqjvsKO8v6M374fX0qBQAXvPU/8A0WetX9gGm/2dY4UY22fxqbL/ALQMy/WOyPPwAZAdTf8ASn60fnAaa/aLjhdc+Qn/AEBe8P5oHZb9jGalGMAAAAAAAAAAAAAAAAAAAAAAAAAAAAAAAAAAAAAAAAAAAAAAAAAAAAADen4bvHD36zrv946t4Y9037KL0hR9q+se7LDddrpvPMe0/wAaswnbuEZzf5lD2fkFHGo7OrTi9bKlRvppzzk5KEohIfWtCObU3yVYTl+yvHN391zr/HLjMM8z/pR2pwnCcRx6C9Z3+VZblWi87osbxyjrYyVOWFxOuZ8OLGYbTyt16UhtHHKlcFQ9/EpeXD/Zy9v/APcfm3//ACzvuJ+AvzIZoqMin8e3YOHzKcktNc5ZR0+BJQuK0t53mSvOrut4ht8obVw2t7lCHl8pQzyta0J5kv8AhH9Kj2Z1b2e1T2y8i0bCdc41o3KqXZGDdfKDLqHY+ZZbsnFZzVtiEnPbvD5c3HqXDa2+jVtipiFa28i1eq+IEliHDW669oi9Ud9uv3l/Rm/c86+mmbS3XXsF2RyCfifXbRW5N95TVV/3WtMa0trDNtpZBW1XzPk/dOfTYNST5MOv+bz7fnONpb934Pu+Jas+lp6s766leLSDg/YzV+aac2BmO/8AamyY+AbDoZ2K5nU41cVuF43UPXmN2qETKWRJcxOY+hiWzHkcMvtLUylK0KXHX9Wd44u9m/PIhgO9+vvVDe/YHVtz1j15hisk0ZrHMdsrpcvxfONoPXOO5HTYNUTp1JMRX3FJLbefjJhvsXDfDElx9mWzGg/3lHdYzdW+N5JUWmPZFj1pYUd/QXlfLqrqjuqqW9Atae4qp7Lb9bZxp0eQzIjvNodZdZW24hK0qTxxJtE8UXlc7C+JfsQnc+m+Y+W4TlcOLju6tKX9hJh4htbEY0hcmKzIkR23VY/mFbIfkP0t2yy6/AdkPsONS6ydZV82Wl5GNddB/U+6nwPsL49tz4Xgvkz1Tg6aOd1f3FcUuttibZwpl9+9kaxsWryW3Fu7yjnzbqTQZPSSrCj+F5Iq76TDbkxZdDBg371f7F9WMxm6/wCx+j9paRy+DJeiLpdl4VfYm7MW1xwriTTybaE2xfVrjKm3WJcJ2RFkMvIfjvOMrQtXt3Snxu90fIPsClwHqzobOM/bsrSNX3Gw101hU6jwaM7I4Zl3Od7LmROKvHq+O0l91TSn3J8niKtiuhTZnLcZyb3Y+Sbx++mX6HRuj3U/OMD7n9+p8ixyva0zD5S7LW0XdmQQ4dbc5juHKKSx5aqMfp4VPArKrDq2crIFxMfiptU07tlJul1+28t4bX7Kbcz/AHvvLN7rY+2doZFKynN8zv3m3LG5tpaW2k+1qO2hiurY0JiLEgworTMOBCgx4UNhiLHZZR5QDf76e/zGteJTtJkUjZlbbZB1a7EQcZxDecKjbcmXuGS8bsLB/Ctt0FU3x7ruTScZBkjM6ub54dm1eQzOY3D0+NBZXO78v3jh0B6hDpHrnZ/U/eOtcj2frFWR5X1r3DRXUW815kv8I4FVxmWo9gT6lh+Xj0GxXT4/y9ypjiyx+1p465MBbf18GRXA738MPlS65ZVZ4psfoZ2ZkrrJy4P8KNdapyvbuv7Ffuc4juVOwdX11vTzkvNNKcaRxM4f9nx97KFoWhHu3Uv0/Xk57QXcSbknXvLOqOloEf7uZ92D7cVFjofXeC4XHY4nWGWOQs+Yg22Uw01/uWxxVwJLLnLiFyZUOF86axkP5ju6/VnFOu3Xjw7+OHKm8/6k9VLeTnu6uwkJlqG32r7QzY9pBvM1gPRFK4u8Lr1XF9zFmfPkQZrtpGi1XL1JjdFZT45AJTPp0fG536xnyydNN351037K600xhFjnmcZFtjaOlNj6415Hx6bpjYNdTSYOWZhjcOHdPWFra1EWE1CckOPuWjS/gmP8x5uwR82ugdkdovFX3T0ZqDFrjONm5rquM9hmH4/xDVd5LdYnmWL5sxS1jU+S03ImSG8ccbQ1wv5r3K/lR0OPraaXTyb36edtOrbdU92W6w9gev8AGv502tx6fufTuwtZ1uRzq7j3To+OWeY49Dj5Aptvj3q5huvp+Wrhzjn2K4Vzjqyy7IdaYYacefecQyyyyhTjzzziuENtNNo45U44pak8JTxxzzzzz8OCTn4GfFl5Hsc8qPTjbOd9Iezuq9Yat2bFz3ONg7h0vnuo8RqcZhY7fucy491sajrGbuU65yy0xFgKkyXXJTXCWvavhRY8eVzrrsftp44+4/XPUEKHa7S2ro/K6DAKafY19RFvsrYTHuKbHlW9vMjw6lywmVjcJuVMkMRI7k5D0l5thDi01NeR+DHy/wCLW8uks/Hb2jlTITi2nnsc1tZZhULU2tbfPMTIMSVOgT2/chXwWxJcQpPwWlSkqTzzkf1v9NL5fuw1vF4teskzrlgyHHFZDs3s3kVNqjHsVgRlr4mWdni8uRJyibDaYZfd5XBoJSPls+9a0IWhapQPWTeHg89MjpHMYdT2DxfvR39zSr+g2HZ6MaosvzC1djSGHGdZVd5VWc6h0LrOFbNw5NhEtLtV/aOs/dJ6Darh1dXWw1/Kl5Zuznlk3mjam87CPjOB4n90q7TOi8XnTXcC1Rjk+Qhx5uJ9TwhWSZpNbjwebm/ktNybFyGy20zArYsCshauz9WWXZDrTDDTjz7ziGWWWUKceeecVwhtpptHHKnHFLUnhKeOOeeeefhwS5/TJeM/vhr/AMt3XPsFt/qH2V0vqHUuI7qym32Dt7SmfawxOenOdD7F1pjUCous9pK5q+lSrPPITjbddzMe+Uz85baI3veRNz9Qb183J2n8QHcXRugMDutnbZy2t0xZ4tgeONtP3+RNYF2M1BsTJI1PEddR9fZN4pid4+zGb55fkripjx0OPuttqqIN7dUu0PVybRV3Zbrjvbr5NyhNmvF4+69TZ5q9WUM0zsdi2kY1zm1DC4yCLGdmw0vOw+Xm2+ZjXuXx81Hux/BlppvoT3g7Dx8bn6L6gdmNtU2XSEx8dyXAdIbIyTErL4zEwHZiMurcccrI9WxKV7ZUx6W3EiJQtcl5lCFrTd4aMw+015pLTuAXfy/u1g2rNfYfb/JW24191MZxOopbD5TjTi0Lb+rhPe3lK1J54+HwUrj75TNd6vF93y6ybz7DI2D1H7HwNeYfszaUqJt1OmtgT9VX2GU+T2L7OcVWyq7HV0s/G3aZ+vlrlNzPlsNzkcSPkr+KONYAB+rLLsh1phhpx595xDLLLKFOPPPOK4Q2002jjlTjilqTwlPHHPPPPPw4N5PQ7wn+VLOe1HWaxndFOzOusOh7y1VfZRm+1tTZPq3H8TxKj2HjsvJMmtntixarlcWHUsy5fEdv3S5jUVXEJmQtSEqtou3evck231O7P6pwyM3Ny/Z3XjdWvcUhvPsxWpeSZnrbJcbo4rsmS4huO25Z2UVCnHFpQjhXuWpPHHPJSv7k8cfkA68U19k+8uk3azVeIYx7ub7Oc20Hs+jwCtaQplC5Luey8Z4p3IfDkhlPz0TlM+5zhPv93PwMLwAAAAAAAAAAAAAAAAAAAAAAAAAAAAAAAAAAAAAAAAAAAAAAAAAAAADJ3D+7HczXuM02F4D237OYRh2OQk12P4liG+9qY1jNDXoWtxEGloaXK2ItXDS444rhphptHHLiueE/hcnY/wCMK79/14u4H95fdH+NR/GFd+/68XcD+8vuj/Gp3iJ5VvKFAiRoMHyR994UKFHZiQ4cTuF2GjRYsWM2hmPGjR2dicIYjtsoShCEccJSlHCU8cccHJQvLb5Uq+ZGnMeSnvo49FebkNIm9ut+WcNa21cKSmTX2WfOsTGeeePwm3mltq4+8tHPH3jEbc269t9idlZLuPe2x8v21tXMPuP/AAp2Dnt5OyTLMg/g/QVeLUf3VurF1b0z6THKSnhMe9XPy41ayyn4IQng+TWO4dt6Tv5GV6a2lsbUmUS61+mlZJrHOMmwK/k08l+NJk1Ui4xWziSHq1yTDiOLYU5y0tcVtakcqQjnj0OX297Yz5UqdO7QdiJk6bIelzJkvdeypMqZKkuqekSZMh7JVLfkOPLWta188qUpXKlc888n6V/cLttUzI9jVdpexlZYQ3OHok+v3bsyHNivccc8cOxpUbJkrYc+/wA8e5KuOfwjwO2trW/tbO9vbOwury6sJttc3NtNk2Nrb2tjJcmWFnZ2Exxbs6wfluvOvPOrW4646pa1KWrnk44H0R5D8N9iXEfeiy4rzUiNJjurYkR5DC0usvsPNK4U08hxKVJUnnhSVJ4545+JbM+lW2rmu/fELjdhuDYeXbmvqrdu5cGsrDZuUXmwLSJSQJNFNqcUenZbNlufcViot4qo8P38xmmp3tQhPClJI1vrD+y/a3X/AH5w/r7je+NzYV11zHqTrPMedP4psnJsd1hlE+dsTcGOXFxf4XQXDUG6nKkYs3HV90GHXUt1rPsSllTXK4WAAB7VpHsj2G60ZKvMeu289vaKyp1KG5OQah2Nl2u7Wawj38cRbGZidvEXYweUuOJWw/y4y4h5aFoUhauOdkdV6gjzM01XLqIfkE3i9EmxYkN162Xh99aIahIWhlcS8vMWkza+UrhxXzX2JDb7/Pw5fcc5SnnjDXsb5Bu8fbqOqu7Mds9/bqoeXmJKMSzrZ2VWuDR5MZ5MhiVDwT7oop4MpL6G18OswW3Pcyjn3fFCPbh4AZKvdze4Milpcbf7XdlH8dxuHFrsdoXt6bQcpaCvgRGoEGDS1a8q5Yq4bMFhllpphttDbTKG0J4Qnjg4r/tZdp/6y/YD/fLsX/EZ1TP967u2xU0NDtPce1NlUeKyLKXi9Nn+wstzKqxuVcfI+68mhrsit5LNPIl/SxfqVx0Nqf8Ap0fN5X7E/Dyoyxqe+neWgqayiou5/a+lpKWvhVNNT1PYrb9dVVNVXR24dfWVlfDzFDMCvYiMstMstIQ2020lCEpRxxwff/GFd+/68XcD+8vuj/Go/jCu/f8AXi7gf3l90f41PG9h793tt1Kk7X3VtrZ/DjzkhzjYex8xzXhch1cdx19fGSXMn3PKXDiKUvn8LnmK1zzz+Aj4eRgH9oWptSVoUpC0KStC0K5StK088KSpKk8/FKuOePjxzx9/jkybte7Hcu8i18G67b9nLeDUt/JqodpvvalhFrGvltM/Lr48vK1oht/JYZR7W+E8e1lHH9CUnA/9rLtP/WX7Af75di/4jOnbD3ZuXbkbH4m19ubO2fExNmbHxWLsPPcqzSPjMeyebkWLGPsZJbSU0zMh9ptb6Y3DaXVtJUvhXPHHJ5gDJfCe6HcPWeLVGDa47Ydltf4Tj7L0egw/CN7bRxTFqOPIlyJ8iPT4/RZTHiVrLk6VKeWlllCVOyXHOeOVrUrn+bjub3ByGaqxv+13ZO9sVNtsqn3G9NoWc1TTXHPDTSpU3KXF8tp4554Sn3fDj/wFt3N7gX2IWGvrztd2UusCtq+RU2uEW29NoWOIWdVLUpcqssMamZSuFMr3VrVy4y4yptfKueVJV8TGoAGRcrt/20nfS8Te0XYqXxBgw62FxK3ZsuRxDra9lMaBXxfm5Kr6eCxHQltlpHwbaQnhCE8J4+B8n/ay7T/1l+wH++XYv+IzlMw7ldv9h4nYYDn/AGs7JZzgtvFZg2uF5hvPZ+TYnZwo62nY8Owxy6yh6HOiocjsqQ24ypCVNI54445Tx8MawAAAAAAAAAAAAAAAAAAAAAAAAAAAAAAAAAAAAAAAAAAAAAAAAAAAAAAAAAAATXPSYeY3RvUORsjoP2jy+t1jgm69lNbU0vtfJ7CJV4HQ7Os8bo8OyvCc4vZy0N4tBuKrE8Rdqp8lxquanVkuPKdZesIy1yL/AFEPg3yHy9YBp3bvW/NcHxzshpKovqrH2sxmSIuEbg1jlTkK9RjMjLKiDNXSXEG2jvTKKVyw7Xvc5JPjzVx25LM+HBPyL0z3m7xu3l1D/RnI7bmM4tLdlju2+v8Ae1E1jhxaWpUSfA2srj5biEe/ht3hqQhLieHmWl/FHGrntj1A7G9Gty2/X3tRrSZqfbtHT0GQWOIy8hxHKeEUuT16LSjsY2QYLf2lXYx3oi/v8xprvLTrbkd7huQ042jGoAAAAAAAAAAAAAAAAAAAAAAAAAAAAAAAAAAAAAAAAAAAAAAAAAAAAAAAAAAAAAAAAAAAAAAAAAAAAAAyj1H3f7p9fqRONaH7fdodJ46hLiE0Go9/7X1vSpS84l51KarDcthMcJU8htauOG/gpSOFc/f4O1Zl5GvITseBzVbD739y88q+W+Wua3M+0G7sogctKeYkKb5h3mcPtqb5kRo7nKfb8PfHQv8AzkJ54w6ly5U+VJnTpMibOmyHpcyZLeckypcqS4p6RJkyHlKW/IcdWta1r55UpSuVK5555PnAAAAAAAAAAAAAAAAAAAAAAAAAAAAAAAAAAAAAAAAAAAAAAAAAAAAAAAAAAAAAAAAAAAAAAAAAAAAAAAAAAAAAAAAAAAAAAAAAAAAAAAAAAAAAAAAAAAAAAAAAAAAAAAAAAAAAAAAAAAAAAAAAAAAAAAAAAAAAAAAAAAAAAAAAAAAAAAAAAAAAAAAAAAAAAAAAAAAAAAAAAAAAAAAAAAAAAAAAAAAAAAAAAAAAAAAAAAAAAAAAAAAAAAAAAAAAAAAAAAAAAAAAAAAAAAAAAAAAAAAAAAAAAAAAAAAAAAAAAAAAAAAAAAAAAAAAAAAAAAAAAAAAAAAAAAAAAAAAAAAAAAAAAAAAAAAAAAAAAAAAAAAAAAAAAAAAAAAAAAAAAAAAAAAAAAAAAAAAAAAAAAAAAAAAAAAAAAAAAAAAAAAAAAAAAAAAAAAAAAAAAAAAAAAAAAAAAAAAAAAAAAAAAAAAAAAAAAAAAAAAAAAAAAAAAAAAAAAAAAAAAAAAAAAAAAAAAAAAAAAAAAAAAAAAAAAAAAAAAAAAAAAAAAAAAAAAAAAAAAAAAAAAAAAAAAAAAAAAAAAAAAAAAAAAAAAAAAAAAAAAAAAAAAAAAAAAAAAAAAAAAAAAAAAAAAAAAAAAAAAAAAAAAAAAAAAAAAAAAAAAAAAAAAAAAAAAAAAAAAAAAAAAAAAAAAAAAAAAAAAAAAAAAAAAAAAAAAAAAAAAAAAAAAAAAAAAAAAAAAAAAAAAAAAAAAAAAAAAAAAAAAAAAAAAAAAAAAAAAAAAAAAAAAAAAAAAAAAAAAAAAAAAAAAAAAAAAAAAAAAAAAAAAAAAAAAAAAAAAAAAAAAAAAAAAAAAAAAAAAAAAAAAAAAAAAAAAAAAAAAAAAAAAAAAAAAAAAAAAAAAAAAAAAAAAAAAAAAAAAAAAAAAAAAAAAAAAAAAAAAAAAAAAAAAAAAAAAAAAAAAAAAAAAAAAAAAAAAAAAAAAAAAAAAAAAAAAAAAAAAAAAAAAAAAAAAAAAAAAAAAAAAAAAAAAAAAAAAAAAAAAAAAAAAAAAAAAAAAAAAAAAAAAAAAAAAAAAAAAAAAAAAAAAAAAAAAAAAAAAAAAAAAAAAAAAAAAAAAAAAAAAAAAAAAAAAAAAAAAAAAAAAAAAAAAAAAAAAAAAAAAAAAAAAAAAAAAAAAAAAAAAAAAAAAAAAAAAAAAAAAAAAAAAAAAAAAAAAAAAAAAAAAAAAAAAAAAAAAAAAAAAAAAAAAAAAAAAAAAAAAAAAAAAAAAAAAAAAAAAAAAAAAAAAAAAAAAAAAAAAAAAAAAAAAAAAAAAAAAAAAAAAAAAAAAAAAAAAAAAAAAAAAAAAAAAAAAAAAAAAAAAAAAAAAAAAAAAAAAAAAAAAAAAAAAAAAAAAAAAAAAAAAAAAAAAAAAAAAAAAAAAAAAAAAAAAAAAAAAAAAAAAAAAAAAAAAAAAAAAAAAAAAAAAAAAAAAAAAAAAAAAAAAAAAAAAAAAAAAAAAAAAAAAAAAAAAAAAAAAAAAAAAAAAAAAAAAAAAAAAAAAAAAAAAAAAAAAAAAAAAAAAAAAAAAAAAAAAAAAAAAAAAAAAAAAAAAAAAAAAAAAAAAAAAAAAAAAAAAAAAAAAAAAAAAAAAAAAAAAAAAAAAAAAAAAAAAAAAAAAAAAAAAAAAAAAAAAAAAAAAAAAAAAAAAAAAAAAAAAAAAAAAAAAAAAAAAAAAAAAAAAAAAAAAAAAAAAAAAAAAAAAAAAAAAAAAAAAAAAAAAAAAAAAAAAAAAAAAAAAAAAAAAAAAAAAAAAAAAAAAAAAAAAAAAAAAAAAAAAAAAAAAAAAAAAAAAAAAAAAAAAAAAAAAAAAAAAAAAAAAAAAAAAAAAAAAAAAAAAAAAAAAAAAAAAAAAAAAAAAAAAAAAAAAAAAAAAAAAAAAAAAAAAAAAAAAAAAAAAAAAAAAAAAAAAAAAAAAAAAAAAAAAAAAAAAAAAAAAAAAAAAAAAAAAAAAAAAAAAAAAAAAAAAAAAAAAAAAAAAAAAAAAAAAAAAAAAAAAAAAAAAAAAAAAAAAAAAAAAAAAAAAAAAAAAAAAAAAAAAAAAAAAAAAAAAAAAAAAAAAAAAAAAAAAAAAAAAAAAAAAAAAAAAAAAAAAAAAAAAAAAAAAAAAAAAAAAAAAAAAAAAAAAAAAAAAAAAAAAAAAAAAAAAAAAAAAAAAAAAAAAAAAAAAAAAAAAAAAAAAAAAAAAAAAAAAAAAAAAAAAAAAAAAAAAAAAAAAAAAAAAAAAAAAAAAAAAAAAAAAAAAAAAAAAAAAAAAAAAAAAAAAAAAAAAAAAAAAAAAAAAAAAAAAAAAAAAAAAAAAAAAAAAAAAAAAAAAAAAAAAAAAAAAAAAAAAAAAAAAAAAAAAAAAAAAAAAAAAAAAAAAAAAAAAAAAAAAAAAAAAAAAAAAAAAAAAAAAAAAAAAAAAAAAAAAAAAAAAAAAAAAAAAAAAAAAAAAAAAAAAAAAAAAAAAAAAAAAAAAAAAAAAAAAAAAAAAAAAAAAAAAAAAAAAAAAAAAAAAAAAAAAAAAAAAAAAAAAAAAAAAAAAAAAAAAAAAAAAAAAAAAAAAAAAAAAAAAAAAAAAAAAAAAAAAAAAAAAAAAAAAAAAAAAAAAAAAAAAAAAAAAAAAAAAAAAAAAAAAAAAAAAAAAAAAAAAAP/2Q==;strokeWidth=102;spacingTop=-3;spacingBottom=-3;spacingLeft=-3;spacingRight=-3;labelBackgroundColor=none;rounded=0;html=1;whiteSpace=wrap;" parent="32" vertex="1">
          <mxGeometry width="406" height="304" as="geometry" />
        </mxCell>
        <mxCell id="36" style="vsdxID=36;fillColor=none;gradientColor=none;fillOpacity=0;strokeOpacity=0;strokeWidth=2;spacingTop=-3;spacingBottom=-3;spacingLeft=-3;spacingRight=-3;labelBackgroundColor=none;rounded=1;strokeColor=none;html=1;whiteSpace=wrap;" parent="1" vertex="1">
          <mxGeometry x="1024" y="689" width="254" height="35" as="geometry" />
        </mxCell>
        <mxCell id="37" style="vsdxID=37;fillColor=#ffffff;gradientColor=none;fillOpacity=0;strokeOpacity=0;shape=stencil(hZNRcoMgEIZPwyuzsNrIYydNLtATOJFWplYzxLTa05e4JIJi6xPs/y98u7IM95e6PGsm4dLb7kN/m6qvGb4wKU1ba2t6t2J4YLh/66x+t921rWh/Lp1TwhTRFeWIm1tCaU+v5kdTDDiKXU4CZX52X7cbB6+TNPoTgBfZFDmS+XS15Bax3W8zXuQq/Ege5P3yp51K6KOMThvQ38496IihPqHAs6NpTBugq+LhX9nX5EpxlDE9xLQCIMbbqg6Xfkx2L4E8p9C+UFz8BT3771XkHPIYOyxsDqkshg2ahUvTJu2iv4uMxOvY+t9izRU/gQd5UB/GDky1LEH9z4t2i2l2aKpM09Dohfpy1lyI5hQPvw==);strokeWidth=2;spacingTop=-3;spacingBottom=-3;spacingLeft=-3;spacingRight=-3;labelBackgroundColor=none;rounded=1;html=1;whiteSpace=wrap;" parent="36" vertex="1">
          <mxGeometry width="254" height="35" as="geometry" />
        </mxCell>
        <mxCell id="38" value="&lt;p style=&quot;align:center;margin-left:0;margin-right:0;margin-top:0px;margin-bottom:0px;text-indent:0;valign:middle;direction:ltr;&quot;&gt;&lt;font style=&quot;font-size:19px;font-family:Arial;color:#0c7cba;direction:ltr;letter-spacing:0px;line-height:100%;opacity:1&quot;&gt;&lt;i&gt;&lt;b&gt;Catálogos Corporativos&lt;br/&gt;&lt;/b&gt;&lt;/i&gt;&lt;/font&gt;&lt;/p&gt;" style="text;vsdxID=36;fillColor=none;gradientColor=none;fillOpacity=0;strokeOpacity=0;strokeWidth=2;spacingTop=-3;spacingBottom=-3;spacingLeft=-3;spacingRight=-3;labelBackgroundColor=none;rounded=1;strokeColor=none;html=1;whiteSpace=wrap;verticalAlign=middle;align=center;;html=1;" parent="36" vertex="1">
          <mxGeometry x="3.17" y="3.05" width="247.65" height="29.21" as="geometry" />
        </mxCell>
        <mxCell id="39" style="vsdxID=39;fillColor=none;gradientColor=none;fillOpacity=0;strokeOpacity=0;strokeWidth=2;spacingTop=-3;spacingBottom=-3;spacingLeft=-3;spacingRight=-3;labelBackgroundColor=none;rounded=1;strokeColor=none;html=1;whiteSpace=wrap;" parent="1" vertex="1">
          <mxGeometry x="573" y="269" width="101" height="75" as="geometry" />
        </mxCell>
        <mxCell id="40" style="vsdxID=40;fillColor=#ffffff;gradientColor=none;fillOpacity=0;strokeOpacity=0;shape=stencil(fZNRboMwDIZPk9fI2KMZj1PXXaAnQCUb0RhUKV3pTr8UB5FEKTxh+//JZwcL2l/a+qwFwmW0w7e+mWZsBb0LRNO32prRvQk6CNp/DlZ/2eHaNxyfa6dEmDO6YU/xUCPU9nQ0f5pzIKlQJRfY+TP8Pk6cfJ1Ld45KCWpOfLD2dLUsLmK1D1GigvUpALk+oQeSu8o7MPrARBySXNjuFArm4+HNEXSmD2irncQyIoYt3OrVdR8jQ0IIEAM+bYlSA+VGlmFeHR7qRVa0Rb0aljaUVMlkw87SVhbUcFgJ/TPW4D4yhgzqesEp/BTf+EIZ9kKxgrLzyVBu/7PuZV4OXhvTdbxbYT1dJpfiRaTDPw==);strokeWidth=2;spacingTop=-3;spacingBottom=-3;spacingLeft=-3;spacingRight=-3;labelBackgroundColor=none;rounded=1;html=1;whiteSpace=wrap;" parent="39" vertex="1">
          <mxGeometry width="101" height="75" as="geometry" />
        </mxCell>
        <mxCell id="41" value="&lt;p style=&quot;align:center;margin-left:0;margin-right:0;margin-top:0px;margin-bottom:0px;text-indent:0;valign:middle;direction:ltr;&quot;&gt;&lt;font style=&quot;font-size:19px;font-family:Arial;color:#fcc438;direction:ltr;letter-spacing:0px;line-height:100%;opacity:1&quot;&gt;&lt;i&gt;&lt;b&gt;Inventario de Tarjetas&lt;br/&gt;&lt;/b&gt;&lt;/i&gt;&lt;/font&gt;&lt;/p&gt;" style="text;vsdxID=39;fillColor=none;gradientColor=none;fillOpacity=0;strokeOpacity=0;strokeWidth=2;spacingTop=-3;spacingBottom=-3;spacingLeft=-3;spacingRight=-3;labelBackgroundColor=none;rounded=1;strokeColor=none;html=1;whiteSpace=wrap;verticalAlign=middle;align=center;;html=1;" parent="39" vertex="1">
          <mxGeometry x="3.17" y="2.98" width="95.25" height="69.22" as="geometry" />
        </mxCell>
        <mxCell id="42" style="vsdxID=42;fillColor=none;gradientColor=none;fillOpacity=0;strokeOpacity=0;strokeWidth=2;spacingTop=-3;spacingBottom=-3;spacingLeft=-3;spacingRight=-3;labelBackgroundColor=none;rounded=1;strokeColor=none;html=1;whiteSpace=wrap;" parent="1" vertex="1">
          <mxGeometry x="986" y="259" width="177" height="62" as="geometry" />
        </mxCell>
        <mxCell id="43" style="vsdxID=43;fillColor=#ffffff;gradientColor=none;fillOpacity=0;strokeOpacity=0;shape=stencil(fZNBcsMgDEVPw5YRqLXDspMmF+gJPDGtmbp2hjit09OXWDhGKTErkP4fPQESuD011dEKDafB95/2x9VDI/BVaO26xno3hJ3AncDte+/th+/PXU3nYxWUGqaIrcmjrmoNlT+8uV9LMZCoymdKkPOr/75WHGOeUhc6FRKKKbAn7eHsSay4Oh61LBGS9UTpUc+1TRkNmvlHnP0qWi6YCqbq8BIAWtclsKaUm4IBwxqtMRKQEwMnVAAc8FFHeK/H3IVlkBdHZEJpNmvQi0HdmkZOnfa1NHKLzbDpbeE/2SPg5E3ynsyvWN5ZZXD428/ESVvIBZi9qQzq+t8Nm2lIaHxc29KMpfn7oQohGkjc/QE=);strokeWidth=2;spacingTop=-3;spacingBottom=-3;spacingLeft=-3;spacingRight=-3;labelBackgroundColor=none;rounded=1;html=1;whiteSpace=wrap;" parent="42" vertex="1">
          <mxGeometry width="177" height="62" as="geometry" />
        </mxCell>
        <mxCell id="44" value="&lt;p style=&quot;align:center;margin-left:0;margin-right:0;margin-top:0px;margin-bottom:0px;text-indent:0;valign:middle;direction:ltr;&quot;&gt;&lt;font style=&quot;font-size:16px;font-family:Arial;color:#834187;direction:ltr;letter-spacing:0px;line-height:100%;opacity:1&quot;&gt;&lt;i&gt;&lt;b&gt;FTP pára descarga de Identificaciones&lt;br/&gt;&lt;/b&gt;&lt;/i&gt;&lt;/font&gt;&lt;/p&gt;" style="text;vsdxID=42;fillColor=none;gradientColor=none;fillOpacity=0;strokeOpacity=0;strokeWidth=2;spacingTop=-3;spacingBottom=-3;spacingLeft=-3;spacingRight=-3;labelBackgroundColor=none;rounded=1;strokeColor=none;html=1;whiteSpace=wrap;verticalAlign=middle;align=center;;html=1;" parent="42" vertex="1">
          <mxGeometry x="3.17" y="2.27" width="172.09" height="57.15" as="geometry" />
        </mxCell>
        <mxCell id="45" style="vsdxID=45;fillColor=none;gradientColor=none;fillOpacity=0;strokeOpacity=0;strokeWidth=2;spacingTop=-3;spacingBottom=-3;spacingLeft=-3;spacingRight=-3;labelBackgroundColor=none;rounded=1;strokeColor=none;html=1;whiteSpace=wrap;" parent="1" vertex="1">
          <mxGeometry x="1024" y="729" width="254" height="35" as="geometry" />
        </mxCell>
        <mxCell id="46" style="vsdxID=46;fillColor=#ffffff;gradientColor=none;fillOpacity=0;strokeOpacity=0;shape=stencil(hZNRcoMgEIZPwyuzsNrIYydNLtATOJFWplYzxLTa05e4JIJi6xPs/y98u7IM95e6PGsm4dLb7kN/m6qvGb4wKU1ba2t6t2J4YLh/66x+t921rWh/Lp1TwhTRFeWIm1tCaU+v5kdTDDiKXU4CZX52X7cbB6+TNPoTgBfZFDmS+XS15Bax3W8zXuQq/Ege5P3yp51K6KOMThvQ38496IihPqHAs6NpTBugq+LhX9nX5EpxlDE9xLQCIMbbqg6Xfkx2L4E8p9C+UFz8BT3771XkHPIYOyxsDqkshg2ahUvTJu2iv4uMxOvY+t9izRU/gQd5UB/GDky1LEH9z4t2i2l2aKpM09Dohfpy1lyI5hQPvw==);strokeWidth=2;spacingTop=-3;spacingBottom=-3;spacingLeft=-3;spacingRight=-3;labelBackgroundColor=none;rounded=1;html=1;whiteSpace=wrap;" parent="45" vertex="1">
          <mxGeometry width="254" height="35" as="geometry" />
        </mxCell>
        <mxCell id="47" value="&lt;p style=&quot;align:center;margin-left:0;margin-right:0;margin-top:0px;margin-bottom:0px;text-indent:0;valign:middle;direction:ltr;&quot;&gt;&lt;font style=&quot;font-size:19px;font-family:Arial;color:#de5f85;direction:ltr;letter-spacing:0px;line-height:100%;opacity:1&quot;&gt;&lt;i&gt;&lt;b&gt;Tabla de Amortizaciones&lt;br/&gt;&lt;/b&gt;&lt;/i&gt;&lt;/font&gt;&lt;/p&gt;" style="text;vsdxID=45;fillColor=none;gradientColor=none;fillOpacity=0;strokeOpacity=0;strokeWidth=2;spacingTop=-3;spacingBottom=-3;spacingLeft=-3;spacingRight=-3;labelBackgroundColor=none;rounded=1;strokeColor=none;html=1;whiteSpace=wrap;verticalAlign=middle;align=center;;html=1;" parent="45" vertex="1">
          <mxGeometry x="3.17" y="3.05" width="247.65" height="29.21" as="geometry" />
        </mxCell>
        <mxCell id="48" style="vsdxID=49;fillColor=none;gradientColor=none;fillOpacity=0;strokeOpacity=0;strokeWidth=2;spacingTop=-3;spacingBottom=-3;spacingLeft=-3;spacingRight=-3;labelBackgroundColor=none;rounded=1;strokeColor=none;html=1;whiteSpace=wrap;" parent="1" vertex="1">
          <mxGeometry x="1026" y="764" width="177" height="35" as="geometry" />
        </mxCell>
        <mxCell id="49" style="vsdxID=50;fillColor=#ffffff;gradientColor=none;fillOpacity=0;strokeOpacity=0;shape=stencil(hZNBcoMwDEVP461HtiDgZSdNLtATMMEtnlLIOKShPX0dRIpFnZSVJX2hJ9kSuD011dEKDafB9+/24uqhEfgstHZdY70bwkngTuD2tff2zffnrib7WAWlhslja8pRV7WGyh9e3LclH0hURU4ByvzoP68VxzlOoa/5DyDLbPLsSXw4e1IrLp/NTJa5iT8Kj/pW3BRzgmb5I5KppcpmAcaCqTo8BYDWdRGtKWS5YcTwiNYYCciJgRMqAA54ryNc6zE5sQTzkkJ2aaR6BL3ob13kEnKOHTe2uEzGYeNp4Vp1Dze6kmRK4k0st6z+svCL/6WNekKuwNSYEqD/vNxwmHaEtse1La1YHF/vVHDRPuLuBw==);strokeWidth=2;spacingTop=-3;spacingBottom=-3;spacingLeft=-3;spacingRight=-3;labelBackgroundColor=none;rounded=1;html=1;whiteSpace=wrap;" parent="48" vertex="1">
          <mxGeometry width="177" height="35" as="geometry" />
        </mxCell>
        <mxCell id="50" value="&lt;p style=&quot;align:center;margin-left:0;margin-right:0;margin-top:0px;margin-bottom:0px;text-indent:0;valign:middle;direction:ltr;&quot;&gt;&lt;font style=&quot;font-size:19px;font-family:Arial;color:#b2b2b2;direction:ltr;letter-spacing:0px;line-height:100%;opacity:1&quot;&gt;&lt;i&gt;&lt;b&gt;Alta de Clientes&lt;br/&gt;&lt;/b&gt;&lt;/i&gt;&lt;/font&gt;&lt;/p&gt;" style="text;vsdxID=49;fillColor=none;gradientColor=none;fillOpacity=0;strokeOpacity=0;strokeWidth=2;spacingTop=-3;spacingBottom=-3;spacingLeft=-3;spacingRight=-3;labelBackgroundColor=none;rounded=1;strokeColor=none;html=1;whiteSpace=wrap;verticalAlign=middle;align=center;;html=1;" parent="48" vertex="1">
          <mxGeometry x="3.17" y="3.05" width="171.45" height="29.21" as="geometry" />
        </mxCell>
        <mxCell id="VKDjqQCW4cRNB_Xo4mpc-66" value="" style="group" vertex="1" connectable="0" parent="1">
          <mxGeometry x="1163" y="150" width="422" height="132" as="geometry" />
        </mxCell>
        <mxCell id="VKDjqQCW4cRNB_Xo4mpc-63" value="" style="shape=image;verticalLabelPosition=bottom;labelBackgroundColor=#ffffff;verticalAlign=top;aspect=fixed;imageAspect=0;image=data:image/png,iVBORw0KGgoAAAANSUhEUgAAAaYAAAA+CAMAAABX7U+rAAAABGdBTUEAALGPC/xhBQAAAAFzUkdCAK7OHOkAAAAJcEhZcwAACxMAAAsTAQCanBgAAAE4UExURUxpcShAQCg9Pyg9Pig9QCo9PyBAQCk9Pyg8Pig8QCg4QCg9Pyk9Pyk7PSk9Pyo9Pyg6PTBAQCg8PCU6QCg8Pyo6QCg9PXyum3qtmik8Pik8Pyg8QCk7QCo+Pio8Pnyvmyk+P3uumik9PSg4OHyrm32vnHinl3yrlyk+Pik9PiY9PSg+Pik9P3ivl3Cfnyk8Pyo8QCc8Pis+Pik9PSg+PnytmXuum3ysnCk8QH2unCk9QCk8Pyo+PyU6Onyvm32umnuunHyumyk+Pnytm3utm3qvmoCvn3utmSY9QH2tmSk6OnmsmX2vm32tnCc7QHmsnCc8P3yum3yvmnuumyk9QH2tnHuvnCk9PnuumXqqmnqqlXyumnCvn4Cvl32vnX2tmn6vmik9QHuumn6unIS1nCo9Pyk9P3yum8v6J+8AAABmdFJOUwAgv6Bg7xDfgEAgn+9wv59gEEAwvzBg72CQz4Bwf4C/z99QIECfIECPj1B/ryAQv4CQj3BfgM9QkN9Qr88wf9/fv2+AcDAQcFBwH1CPn3BQr8+voKCvn7CgMDCQECCPYG9wsF8fr+HlBlcAAAqrSURBVHja7Zxpe9s4DoAlWxIty7LrO3ac+2rSpGnaTNok03t67HSOtnPvzrXH2P//H0wsHwJBgKQ86db7rPEtFS2BeAkSBME6zrxLbV/0++VW0VnIHMvN/khEfWGL+ad0JeHCGvMqXkqpL4KFPeZUBMDUX13YYz6lDin1ywuDzKdsSpjEwiDzvzQtMM2thBKmTxcGmU+p+hBTZ2GQOZUCxLRIRMytO4GI/M7CHHMrrlhQ+t+I9hJQjUWqaN6lGTYXeaKFLGQhC/n/leDhQat1UNvSt9qqtVqt2sM50XmkTc1i+Qq2trbsV7mtxBS27W//8mZp6c3e3z98f5Pj7JH45f0a09X4cJoaWN9XUXmFqYx7G0fr4kqG+e1m+rBAn8ZWQYthcHch/6lqU061qbQCXefWxy2prjXRZ8B7ReXAiGhpZ2MwkbNf9+SncfpuVb/po9c6S6ZdD1akxEyin7rtdyuoVbmFWuTSZ6Puwj9h8qdCh98o65BP/yyopi8jlf0KnanAnRMrRfazBfW94pnOp/betweynO/sgucdzYlZTZNXBjv76ZB+jSGNTCn3JrhJtCkXeUzP4Ftx8ofsOtAtcvSYFEiUyvQIvLLKPRZTUFHfKlospKcDSgAokD8u4V9X+BoCj8g5U/ZP5C4wZlOQTUr3GEyubEcHudOqwZlCLaaAU1lWh1dbFOnv/kE3r5Cj6vYXA04eUSZBLKqaxDL4ladCRRKlvzv1uUYr9NtRewe5U4noeDd9fOzoMLnrrMrIoqzasFbJ6xtFEPPpT48HvJxPHCpmD6DhZ5E5XPXJLRvdTjVdWCEx9QlMrra2odbHQ4jB5Apbi/J965fqWTARnH4faKW9PfYZn2MhGWtTDjwUV9Ho6JEW1HEyYIJ2V2Zq6NXC0WDSU4JFSK91zUrFLJj660jbRwOT/FsJImLGYxRPUwMIYTHlmQwT2mIK2fEjq+1pMJmUSS3q+nY4rTD172akNBhs4z5LLDry6wN6XhkHEJs2bn4oB77dqNGlO2zCBBuUjc5EYyqbB35AjUC/ETV80vB2mKQI4GsLSoP2T7ogAo22VdoUHhE/NHrNYjPsNdCUJ3VjfKjg5qlvGDGFfS7wIZyJxKQsN6KLrP8t1TIafS3ME4YnMQmBfRGMq922DabB+W200HQcdh0pawMI4Bb+1G7uAynKA9z9Hjn5TN6mYmqceJ7Xy3cdkzvdIvyYwIQmsssw+bLrNZRzXqifSIeE5ysaKJi6y8lrXU8w7vR4YCdf8EFEhXdWT114yIhh6CxF6ld+kwm4VklM/rISdkN3quu2tgwm2fuLija+p+Oe7KR8bBqECTB1lsnFWlmY2juv7m/ff/XNBrk8dYgFuaoM6A61MamrmLgjUvCrnrx1VNxJxvQg0GcaOpo8EYNJCo/uyG8emlQ0qQ/JwfRX2J1kTA+Mm5td5Exn29PmSwjUGRdEqBPtNPStExkIc5U2sEwXPcpjxhCT75Gvi+k9HeVMBKZCX1PFsgzdZpNvKFB8JZmshxofqgP5SxnFZ1L75/LDJWQWTbAVsgGEHG+smOzq8TNYpHy8SVOnM0abZKmXiomkmWacAzJawjtTwPoGxnRHM0on+57H1DZ2Ki+k8GINmXCV2jTJniaIcZyXc4xETiTH50urOIbO6VLaqpFSNXKk+RVMdX36hnaZY8cwujw1IqX7P1JtSXKXr5UfyJy2URBBbpqgNTzKFBeo7aFybOPb7SoC1KUbnP2gO8XEkA01mEAXbuopuXZaCzOmGGca1yCF58S3P4MN/oGohHxSIcbDos7ushJS8Jt1u/6OXmmDCbqTUGeoY0eDqWJdBbtpqbYZUx2p+xJCeEJ+HII8p/yXTr6V0fj6lImQqTPBmmV/b1hjqiqu4zLbAgVTzrryP7ZU+3MjJhdh2lMiBEW2YZP/yIonUxvMuKChXmBCgeW+9oDNMpMy8lgrTND6ZS5PRGNK+/SDAVPBUu0wC6bk6SeQwW36621MMpYMBQeql5PjC8El1GlOkyNLW0wFe0w4YwT3yZ4Wk299QSP/wTB9h+M4Qn4EbT5BC3JZ+mBJ2qFIkxcOZZmc88qHwoQzRh532UyDqfDRMK1hBIT8DZ64O0oQIQWPVSkrUmGSNCMWguXkXfvaJLtTIEUxnmM56UUfDdOGcWlynPugzb9wl1dRXPsWQHMN1yNB7jKVexkwhRkwOdJ87LGbob+wNuU/RAhhjWlPnRhBENGRWcCqFk0uYaKO16U2XJtyl/RiiwlqFvCZBQXTpebwlw0hvFAjzn8LU0yWicT8zpTfcbg99azKtbR8JkxwnivzqimYOuZEsRqgGm/dzI7plcWkt6bu6lGHC4ZyIWqc5/GGy7deDzJgivs2qimYQv7wl9+Url4vpjWcYrAKIej80DGfMTENLnhuNlzgc9qirRkxacaWDlPV1/bDu0vluErXi+lHfE5ByHdENBjyRUE5JovlWC4cw6Aw5qo2/gom0tEjx4QJfkDNvbo++Me8HAldHyboKQO6uH8XNnnD1/OU+LlFDSCU2ndfMnZV74m3VmbCRLlTaMYUakrnkgLXUouIUojV+LQ4KyYpE0RvnKQc+hE/0Ue8MYrqWML9lTFpR/Cw5HplFkyEOx07ZkxSplhINWQryOV9tdQolWewK9kwvZTOKXYpZ3pMJmdVGCG7fVAmliQFIZXI30IvCpk6gaEjCrac0oSpauHnBCb54KUymQmCWOCxBMfBOnFrIS17zYZJPsg4I7J60unu92xlHlh/QuPEMs5OVA4C0AXZ9/JkThbcirg3AyZlBAnHBhOe4cVhoVCI5Nq90cRXFUSGMunh+I7GlFNGTPKx4JfKDx4RNZUkjJg91BOa5XP9MCrsl321OSq6OoxrD7cO4gj86+kMmEKjM5GYXJtjylj9gIiTW3NbB/vTF0w4ZcQkz3qDM3neQ9c0njDFP2j9KehtYaj0/adtlvw0OybkF8KxwwQLgwwFux1TieSYU0ZM8lHGYHAOcxF774iSFRrGMX/YjEOAsk13ubMOWEYUZMcUmpyJKfU3KzNWu7pudcaeGdNL5YLgr3vJEvXLK3wt7YkmvPXYMRspAY9W0hd9azBMcwZvklQjK1CYizPLdsqYbwWMW2bFJBc7TGRjg6hYRkm/t+z0EeMAIqjVasXhPB3UNTfQcGFhRzsom84smEJTCou7hrZspYyR06RlZkxysKeR7617DB0tARhG/SjMXQVnNyPuoIkq/9SYJq0RzoaJL0w1YJITWpwySe/zFmpnx3SEHWfj/c7Ozto7POUd4Zd12Zg7r0xiV1/LlQI34ely/fB7ltEGbJgRU2zI6vJXpDm1Fa2dr8xqZ8ckpcDbO/d/nuBbeg8fHGk29YJ3tGKKqXFXHI9s4z4QxkHJn/HK1fwZMaWeXsyIyUYZHVGp5QyY0uWp/fxnqfnRN5pKS9Bjj03RTW9hXNnztYi86RC+yKMbWydMGh2f8TZ6wYypV3lwRU5mTMMzF1nrxjKTwXdRQ6z2LJgmteJPVY85Gp1ItX+jdHnLDswCng2HmMIg8KBxmt5Joyv6vuhGPd1RR3BxctkY/r8p3ejk4qP/D2phL7rS+kqZyxNPq0yzd9n1k52TqaW1vFhrD57Sx7dL7wbtpy+urZd/Ap8WNot+pcNOAAAAAElFTkSuQmCC;" vertex="1" parent="VKDjqQCW4cRNB_Xo4mpc-66">
          <mxGeometry y="70" width="422" height="62" as="geometry" />
        </mxCell>
        <mxCell id="VKDjqQCW4cRNB_Xo4mpc-65" value="" style="rounded=0;whiteSpace=wrap;html=1;shadow=0;fillColor=#000066;" vertex="1" parent="VKDjqQCW4cRNB_Xo4mpc-66">
          <mxGeometry x="131" width="160" height="62" as="geometry" />
        </mxCell>
        <mxCell id="VKDjqQCW4cRNB_Xo4mpc-64" value="" style="shape=image;verticalLabelPosition=bottom;labelBackgroundColor=#ffffff;verticalAlign=top;aspect=fixed;imageAspect=0;image=data:image/png,iVBORw0KGgoAAAANSUhEUgAAAI4AAAAYCAMAAAAbHDVkAAAArlBMVEVMaXH////////////////////////////////////////////////////////////////////vQEjvPkjvQEjvP0j////////vQEj////vQEjvP0nvQEDvP0f////////vQEfvP0jvQEfvQEjvQEjvP0jvQEjvQEXvP0fvQEjvQEnxQEnvQErvQErvQEf////yQEjvQEnvPknvQEbvPkftQEnvQEnvQEn////vP0j9hCqiAAAAOHRSTlMAH+9gv98Qf58gP0CPbzDPr18gf7/fgFBfT0DvEM+gcK+fb59gv38w74Bvb08wj5BfkI9Qb3BQjwjC3QgAAALRSURBVHja7ZZpU9swEIYXWWd8JpSkSYCEEs7et/3//1glrey1kRiG0g/tTN8PYXZn9e6jSKsArdUR/K6UXa0hUmbTHJ4n40jgP84/hlNlWhdzGCRLF0swVZ5LkMYYmRdal4YqMoxHOKdvL/f76xvCGVWqPLTM87zCtLUOds66WI1wWOskTDD42GK8E/ZzBgornJaA2oVY6wHnbtt57RcTnGWorM30y3QLlSfkoVuGOCTmwY2gTMBBEc+SEsH/9KzrdfuVcCQn83kSxzAyQhySkABQtzEOae73HuFYGtLNgNOM66oIB/ce47Ci8Pmy78VDgnAaxT1xb8EK1Qw4d45ie3H94aSzukCcwUuhl5AxjvZWWmlBOK4QTI0WwsVVOGjCmfeJCv8oPNeA4yhOFmD1pdt+cxzkZQYvFeGY4VrJc8KZgVXuOP1na8CrIJwGnGrPVdM0GcT50VktMHVMV3k18mpcJsIpRxPE6d2huS9pRMEQjhp54HdEHhp+uhOK3x3aB+A2I5zGx6hVAod6O7EUDtahgv+lxXkT4+iRF/Z5iMPDNaD+CZzixTgVez5O9dRhVY8fVj45rHuLcwVBm8PhsLA8nLwePSw92nyWwMFlK7p+CRxOXXy1hk1ntQHUYuumrGIc8hG4cIt8S4bxcJWZAScpEjg4PWxHoxfjlC7dOJMVGw367SdAfe88T+N74mssG3wsTP+yL3HwpTMQa8B3JoWz8mnBa9amccI+Ws7F8AxuOqeTV6jO6uxUAuQTL9FPs2iwt+rftppjIoED5y0piQN5/CNx3I2FPOC6kYSBB0sVHhEphSObp3Agi3BiHhw1NaWZAqrJDzZL4OASLOEzQTjJ/wqYKnoceH81pTkGr3UdKiWgMuFj0VtJjTQcZy+pWanKGcCRlYSkKluxliBHFYt3r73uPQ1Vrq2XnJhPY7NWan6E3eDP67On+Vu0eQnNL/xHH0rmcOrjAAAAAElFTkSuQmCC;shadow=1;" vertex="1" parent="VKDjqQCW4cRNB_Xo4mpc-66">
          <mxGeometry x="140" y="19" width="142" height="24" as="geometry" />
        </mxCell>
        <UserObject label="" lucidchartObjectId="Oyx6BkkLzK0G" id="VKDjqQCW4cRNB_Xo4mpc-67">
          <mxCell style="html=1;overflow=block;blockSpacing=1;whiteSpace=wrap;shape=image;whiteSpace=wrap;fontSize=11;spacing=0;strokeColor=none;strokeOpacity=100;strokeWidth=0;image=https://images.lucid.app/images/8a8f2ce8-5737-4c57-8d01-74a37eb459bc/content;imageAspect=0;" vertex="1" parent="1">
            <mxGeometry x="220" y="171" width="353" height="98" as="geometry" />
          </mxCell>
        </UserObject>
      </root>
    </mxGraphModel>
  </diagram>
</mxfile>
